<svg width="549" height="309" viewBox="0 0 549 309" fill="none" xmlns="http://www.w3.org/2000/svg">
<g filter="url(#filter0_d_255_13)">
<path d="M506.745 299.544H100.01C100.01 269.16 74.2298 260.183 61.3395 259.492V105.499C92.2762 105.499 100.01 79.2582 100.01 66.1377H506.745C503.431 96.522 530.224 105.039 544.035 105.499V259.492C511.994 260.597 505.825 286.654 506.745 299.544Z" fill="#F67449"/>
<path d="M506.745 299.544H100.01C100.01 269.16 74.2298 260.183 61.3395 259.492V105.499C92.2762 105.499 100.01 79.2582 100.01 66.1377H506.745C503.431 96.522 530.224 105.039 544.035 105.499V259.492C511.994 260.597 505.825 286.654 506.745 299.544Z" stroke="black"/>
</g>
<line x1="476.977" y1="299.027" x2="476.977" y2="66.6327" stroke="white" stroke-width="8" stroke-dasharray="30 30"/>
<mask id="path-3-outside-1_255_13" maskUnits="userSpaceOnUse" x="199.339" y="103.138" width="206" height="158" fill="black">
<rect fill="white" x="199.339" y="103.138" width="206" height="158"/>
<path d="M223.237 161.138L228.633 105.278H247.581L252.881 161.138H242.312L241.519 152.124H234.79L234.092 161.138H223.237ZM235.584 143.206H240.662L238.218 114.8H237.71L235.584 143.206ZM256.309 161.138V105.278H271.448C275.51 105.278 278.462 106.273 280.303 108.262C282.165 110.229 283.096 113.488 283.096 118.037V120.481C283.096 123.105 282.62 125.231 281.668 126.86C280.737 128.49 279.308 129.558 277.383 130.066C279.901 130.701 281.583 132.192 282.429 134.541C283.297 136.868 283.731 139.714 283.731 143.079C283.731 146.697 283.392 149.86 282.715 152.568C282.038 155.277 280.811 157.382 279.033 158.884C277.256 160.387 274.727 161.138 271.448 161.138H256.309ZM267.227 126.321H269.512C270.549 126.321 271.215 125.919 271.511 125.115C271.808 124.311 271.956 123.348 271.956 122.227V116.609C271.956 114.81 271.162 113.911 269.575 113.911H267.227V126.321ZM268.338 151.299C271.236 151.299 272.686 149.924 272.686 147.173V140.19C272.686 138.604 272.442 137.355 271.956 136.445C271.49 135.514 270.601 135.049 269.29 135.049H267.227V151.235C267.692 151.278 268.062 151.299 268.338 151.299ZM300.742 161.646C296.278 161.646 292.861 160.302 290.491 157.615C288.142 154.906 286.968 151.003 286.968 145.903V119.37C286.968 114.588 288.132 110.959 290.459 108.484C292.808 106.008 296.235 104.771 300.742 104.771C305.249 104.771 308.666 106.008 310.994 108.484C313.342 110.959 314.517 114.588 314.517 119.37V145.903C314.517 151.003 313.332 154.906 310.962 157.615C308.613 160.302 305.207 161.646 300.742 161.646ZM300.838 151.362C302.53 151.362 303.377 149.722 303.377 146.443V119.18C303.377 116.429 302.551 115.054 300.901 115.054C299.039 115.054 298.108 116.461 298.108 119.275V146.506C298.108 148.241 298.32 149.49 298.743 150.251C299.166 150.992 299.864 151.362 300.838 151.362ZM319.024 161.138V105.278H330.513L335.654 132.034V105.278H346.445V161.138H335.527L329.942 133.208V161.138H319.024ZM364.727 161.646C360.262 161.646 356.845 160.302 354.475 157.615C352.127 154.906 350.952 151.003 350.952 145.903V119.37C350.952 114.588 352.116 110.959 354.443 108.484C356.792 106.008 360.22 104.771 364.727 104.771C369.233 104.771 372.651 106.008 374.978 108.484C377.327 110.959 378.501 114.588 378.501 119.37V145.903C378.501 151.003 377.316 154.906 374.946 157.615C372.598 160.302 369.191 161.646 364.727 161.646ZM364.822 151.362C366.515 151.362 367.361 149.722 367.361 146.443V119.18C367.361 116.429 366.536 115.054 364.885 115.054C363.023 115.054 362.092 116.461 362.092 119.275V146.506C362.092 148.241 362.304 149.49 362.727 150.251C363.15 150.992 363.849 151.362 364.822 151.362ZM212.478 259.646C204.501 259.646 200.513 253.933 200.513 242.507V218.417C200.513 207.986 205.083 202.771 214.224 202.771C217.99 202.771 220.878 203.532 222.888 205.056C224.898 206.558 226.284 208.758 227.046 211.657C227.808 214.556 228.189 218.09 228.189 222.258H217.271V217.307C217.271 216.101 217.101 215.096 216.763 214.292C216.445 213.466 215.768 213.054 214.732 213.054C213.441 213.054 212.584 213.487 212.161 214.355C211.759 215.222 211.558 216.175 211.558 217.211V244.284C211.558 245.786 211.748 247.014 212.129 247.966C212.531 248.897 213.303 249.362 214.446 249.362C215.631 249.362 216.414 248.897 216.795 247.966C217.197 247.014 217.398 245.765 217.398 244.221V236.254H214.414V226.606H228.062V259.138H223.587L221.682 254.44C219.736 257.91 216.668 259.646 212.478 259.646ZM232.505 259.138V203.278H254.849V214.069H243.867V224.956H254.404V235.461H243.867V248.251H255.579V259.138H232.505ZM259.292 259.138V203.278H270.781L275.923 230.034V203.278H286.714V259.138H275.796L270.21 231.208V259.138H259.292ZM291.665 259.138V203.278H314.009V214.069H303.027V224.956H313.565V235.461H303.027V248.251H314.739V259.138H291.665ZM318.452 259.138V203.278H335.591C338.447 203.278 340.606 203.934 342.066 205.246C343.525 206.537 344.499 208.356 344.985 210.705C345.493 213.033 345.747 215.773 345.747 218.925C345.747 221.972 345.356 224.405 344.573 226.225C343.811 228.045 342.362 229.304 340.225 230.002C341.981 230.362 343.208 231.24 343.906 232.636C344.626 234.012 344.985 235.799 344.985 238V259.138H333.972V237.27C333.972 235.641 333.634 234.636 332.957 234.255C332.301 233.853 331.232 233.652 329.751 233.652V259.138H318.452ZM329.815 223.972H332.512C334.057 223.972 334.829 222.29 334.829 218.925C334.829 216.746 334.66 215.318 334.321 214.641C333.983 213.964 333.348 213.625 332.417 213.625H329.815V223.972ZM347.905 259.138L353.301 203.278H372.249L377.549 259.138H366.98L366.187 250.124H359.458L358.76 259.138H347.905ZM360.252 241.206H365.33L362.886 212.8H362.378L360.252 241.206ZM380.977 259.138V203.278H392.149V249.616H403.638V259.138H380.977Z"/>
</mask>
<path d="M223.237 161.138L228.633 105.278H247.581L252.881 161.138H242.312L241.519 152.124H234.79L234.092 161.138H223.237ZM235.584 143.206H240.662L238.218 114.8H237.71L235.584 143.206ZM256.309 161.138V105.278H271.448C275.51 105.278 278.462 106.273 280.303 108.262C282.165 110.229 283.096 113.488 283.096 118.037V120.481C283.096 123.105 282.62 125.231 281.668 126.86C280.737 128.49 279.308 129.558 277.383 130.066C279.901 130.701 281.583 132.192 282.429 134.541C283.297 136.868 283.731 139.714 283.731 143.079C283.731 146.697 283.392 149.86 282.715 152.568C282.038 155.277 280.811 157.382 279.033 158.884C277.256 160.387 274.727 161.138 271.448 161.138H256.309ZM267.227 126.321H269.512C270.549 126.321 271.215 125.919 271.511 125.115C271.808 124.311 271.956 123.348 271.956 122.227V116.609C271.956 114.81 271.162 113.911 269.575 113.911H267.227V126.321ZM268.338 151.299C271.236 151.299 272.686 149.924 272.686 147.173V140.19C272.686 138.604 272.442 137.355 271.956 136.445C271.49 135.514 270.601 135.049 269.29 135.049H267.227V151.235C267.692 151.278 268.062 151.299 268.338 151.299ZM300.742 161.646C296.278 161.646 292.861 160.302 290.491 157.615C288.142 154.906 286.968 151.003 286.968 145.903V119.37C286.968 114.588 288.132 110.959 290.459 108.484C292.808 106.008 296.235 104.771 300.742 104.771C305.249 104.771 308.666 106.008 310.994 108.484C313.342 110.959 314.517 114.588 314.517 119.37V145.903C314.517 151.003 313.332 154.906 310.962 157.615C308.613 160.302 305.207 161.646 300.742 161.646ZM300.838 151.362C302.53 151.362 303.377 149.722 303.377 146.443V119.18C303.377 116.429 302.551 115.054 300.901 115.054C299.039 115.054 298.108 116.461 298.108 119.275V146.506C298.108 148.241 298.32 149.49 298.743 150.251C299.166 150.992 299.864 151.362 300.838 151.362ZM319.024 161.138V105.278H330.513L335.654 132.034V105.278H346.445V161.138H335.527L329.942 133.208V161.138H319.024ZM364.727 161.646C360.262 161.646 356.845 160.302 354.475 157.615C352.127 154.906 350.952 151.003 350.952 145.903V119.37C350.952 114.588 352.116 110.959 354.443 108.484C356.792 106.008 360.22 104.771 364.727 104.771C369.233 104.771 372.651 106.008 374.978 108.484C377.327 110.959 378.501 114.588 378.501 119.37V145.903C378.501 151.003 377.316 154.906 374.946 157.615C372.598 160.302 369.191 161.646 364.727 161.646ZM364.822 151.362C366.515 151.362 367.361 149.722 367.361 146.443V119.18C367.361 116.429 366.536 115.054 364.885 115.054C363.023 115.054 362.092 116.461 362.092 119.275V146.506C362.092 148.241 362.304 149.49 362.727 150.251C363.15 150.992 363.849 151.362 364.822 151.362ZM212.478 259.646C204.501 259.646 200.513 253.933 200.513 242.507V218.417C200.513 207.986 205.083 202.771 214.224 202.771C217.99 202.771 220.878 203.532 222.888 205.056C224.898 206.558 226.284 208.758 227.046 211.657C227.808 214.556 228.189 218.09 228.189 222.258H217.271V217.307C217.271 216.101 217.101 215.096 216.763 214.292C216.445 213.466 215.768 213.054 214.732 213.054C213.441 213.054 212.584 213.487 212.161 214.355C211.759 215.222 211.558 216.175 211.558 217.211V244.284C211.558 245.786 211.748 247.014 212.129 247.966C212.531 248.897 213.303 249.362 214.446 249.362C215.631 249.362 216.414 248.897 216.795 247.966C217.197 247.014 217.398 245.765 217.398 244.221V236.254H214.414V226.606H228.062V259.138H223.587L221.682 254.44C219.736 257.91 216.668 259.646 212.478 259.646ZM232.505 259.138V203.278H254.849V214.069H243.867V224.956H254.404V235.461H243.867V248.251H255.579V259.138H232.505ZM259.292 259.138V203.278H270.781L275.923 230.034V203.278H286.714V259.138H275.796L270.21 231.208V259.138H259.292ZM291.665 259.138V203.278H314.009V214.069H303.027V224.956H313.565V235.461H303.027V248.251H314.739V259.138H291.665ZM318.452 259.138V203.278H335.591C338.447 203.278 340.606 203.934 342.066 205.246C343.525 206.537 344.499 208.356 344.985 210.705C345.493 213.033 345.747 215.773 345.747 218.925C345.747 221.972 345.356 224.405 344.573 226.225C343.811 228.045 342.362 229.304 340.225 230.002C341.981 230.362 343.208 231.24 343.906 232.636C344.626 234.012 344.985 235.799 344.985 238V259.138H333.972V237.27C333.972 235.641 333.634 234.636 332.957 234.255C332.301 233.853 331.232 233.652 329.751 233.652V259.138H318.452ZM329.815 223.972H332.512C334.057 223.972 334.829 222.29 334.829 218.925C334.829 216.746 334.66 215.318 334.321 214.641C333.983 213.964 333.348 213.625 332.417 213.625H329.815V223.972ZM347.905 259.138L353.301 203.278H372.249L377.549 259.138H366.98L366.187 250.124H359.458L358.76 259.138H347.905ZM360.252 241.206H365.33L362.886 212.8H362.378L360.252 241.206ZM380.977 259.138V203.278H392.149V249.616H403.638V259.138H380.977Z" fill="white"/>
<path d="M223.237 161.138L222.242 161.042L222.136 162.138H223.237V161.138ZM228.633 105.278V104.278H227.725L227.638 105.182L228.633 105.278ZM247.581 105.278L248.576 105.184L248.49 104.278H247.581V105.278ZM252.881 161.138V162.138H253.98L253.876 161.043L252.881 161.138ZM242.312 161.138L241.316 161.225L241.396 162.138H242.312V161.138ZM241.519 152.124L242.515 152.036L242.434 151.124H241.519V152.124ZM234.79 152.124V151.124H233.865L233.793 152.047L234.79 152.124ZM234.092 161.138V162.138H235.017L235.089 161.215L234.092 161.138ZM235.584 143.206L234.586 143.131L234.506 144.206H235.584V143.206ZM240.662 143.206V144.206H241.751L241.658 143.12L240.662 143.206ZM238.218 114.8L239.214 114.714L239.136 113.8H238.218V114.8ZM237.71 114.8V113.8H236.782L236.713 114.725L237.71 114.8ZM223.237 161.138L224.233 161.234L229.628 105.374L228.633 105.278L227.638 105.182L222.242 161.042L223.237 161.138ZM228.633 105.278V106.278H247.581V105.278V104.278H228.633V105.278ZM247.581 105.278L246.585 105.373L251.885 161.232L252.881 161.138L253.876 161.043L248.576 105.184L247.581 105.278ZM252.881 161.138V160.138H242.312V161.138V162.138H252.881V161.138ZM242.312 161.138L243.308 161.05L242.515 152.036L241.519 152.124L240.522 152.212L241.316 161.225L242.312 161.138ZM241.519 152.124V151.124H234.79V152.124V153.124H241.519V152.124ZM234.79 152.124L233.793 152.047L233.095 161.06L234.092 161.138L235.089 161.215L235.787 152.201L234.79 152.124ZM234.092 161.138V160.138H223.237V161.138V162.138H234.092V161.138ZM235.584 143.206V144.206H240.662V143.206V142.206H235.584V143.206ZM240.662 143.206L241.658 143.12L239.214 114.714L238.218 114.8L237.222 114.886L239.665 143.291L240.662 143.206ZM238.218 114.8V113.8H237.71V114.8V115.8H238.218V114.8ZM237.71 114.8L236.713 114.725L234.586 143.131L235.584 143.206L236.581 143.28L238.707 114.874L237.71 114.8ZM256.309 161.138H255.309V162.138H256.309V161.138ZM256.309 105.278V104.278H255.309V105.278H256.309ZM280.303 108.262L279.569 108.941L279.576 108.949L280.303 108.262ZM281.668 126.86L280.804 126.356L280.799 126.364L281.668 126.86ZM277.383 130.066L277.128 129.099L277.138 131.036L277.383 130.066ZM282.429 134.541L281.488 134.88L281.492 134.89L282.429 134.541ZM267.227 126.321H266.227V127.321H267.227V126.321ZM267.227 113.911V112.911H266.227V113.911H267.227ZM271.956 136.445L271.061 136.893L271.067 136.905L271.074 136.917L271.956 136.445ZM267.227 135.049V134.049H266.227V135.049H267.227ZM267.227 151.235H266.227V152.149L267.136 152.231L267.227 151.235ZM256.309 161.138H257.309V105.278H256.309H255.309V161.138H256.309ZM256.309 105.278V106.278H271.448V105.278V104.278H256.309V105.278ZM271.448 105.278V106.278C275.371 106.278 277.995 107.24 279.569 108.941L280.303 108.262L281.037 107.582C278.929 105.305 275.65 104.278 271.448 104.278V105.278ZM280.303 108.262L279.576 108.949C281.176 110.64 282.096 113.581 282.096 118.037H283.096H284.096C284.096 113.395 283.153 109.819 281.029 107.574L280.303 108.262ZM283.096 118.037H282.096V120.481H283.096H284.096V118.037H283.096ZM283.096 120.481H282.096C282.096 122.993 281.639 124.928 280.804 126.356L281.668 126.86L282.531 127.365C283.601 125.534 284.096 123.216 284.096 120.481H283.096ZM281.668 126.86L280.799 126.364C280.01 127.745 278.812 128.655 277.128 129.099L277.383 130.066L277.638 131.033C279.805 130.461 281.463 129.234 282.536 127.356L281.668 126.86ZM277.383 130.066L277.138 131.036C279.349 131.593 280.76 132.859 281.489 134.88L282.429 134.541L283.37 134.202C282.406 131.526 280.452 129.808 277.627 129.096L277.383 130.066ZM282.429 134.541L281.492 134.89C282.306 137.074 282.731 139.794 282.731 143.079H283.731H284.731C284.731 139.635 284.287 136.663 283.366 134.192L282.429 134.541ZM283.731 143.079H282.731C282.731 146.638 282.397 149.716 281.745 152.326L282.715 152.568L283.685 152.811C284.387 150.004 284.731 146.756 284.731 143.079H283.731ZM282.715 152.568L281.745 152.326C281.108 154.872 279.975 156.779 278.388 158.121L279.033 158.884L279.679 159.648C281.646 157.985 282.968 155.681 283.685 152.811L282.715 152.568ZM279.033 158.884L278.388 158.121C276.853 159.418 274.587 160.138 271.448 160.138V161.138V162.138C274.868 162.138 277.659 161.355 279.679 159.648L279.033 158.884ZM271.448 161.138V160.138H256.309V161.138V162.138H271.448V161.138ZM267.227 126.321V127.321H269.512V126.321V125.321H267.227V126.321ZM269.512 126.321V127.321C270.154 127.321 270.773 127.197 271.306 126.876C271.853 126.545 272.231 126.053 272.45 125.46L271.511 125.115L270.573 124.769C270.495 124.981 270.392 125.091 270.273 125.163C270.139 125.244 269.907 125.321 269.512 125.321V126.321ZM271.511 125.115L272.45 125.46C272.797 124.517 272.956 123.431 272.956 122.227H271.956H270.956C270.956 123.264 270.818 124.104 270.573 124.769L271.511 125.115ZM271.956 122.227H272.956V116.609H271.956H270.956V122.227H271.956ZM271.956 116.609H272.956C272.956 115.584 272.732 114.629 272.11 113.924C271.467 113.195 270.558 112.911 269.575 112.911V113.911V114.911C270.18 114.911 270.46 115.077 270.611 115.247C270.782 115.442 270.956 115.835 270.956 116.609H271.956ZM269.575 113.911V112.911H267.227V113.911V114.911H269.575V113.911ZM267.227 113.911H266.227V126.321H267.227H268.227V113.911H267.227ZM268.338 151.299V152.299C269.928 152.299 271.307 151.922 272.287 150.993C273.276 150.054 273.686 148.716 273.686 147.173H272.686H271.686C271.686 148.38 271.37 149.106 270.91 149.542C270.441 149.988 269.645 150.299 268.338 150.299V151.299ZM272.686 147.173H273.686V140.19H272.686H271.686V147.173H272.686ZM272.686 140.19H273.686C273.686 138.52 273.432 137.086 272.837 135.974L271.956 136.445L271.074 136.917C271.452 137.624 271.686 138.687 271.686 140.19H272.686ZM271.956 136.445L272.85 135.998C272.168 134.635 270.863 134.049 269.29 134.049V135.049V136.049C270.34 136.049 270.812 136.394 271.061 136.893L271.956 136.445ZM269.29 135.049V134.049H267.227V135.049V136.049H269.29V135.049ZM267.227 135.049H266.227V151.235H267.227H268.227V135.049H267.227ZM267.227 151.235L267.136 152.231C267.614 152.275 268.019 152.299 268.338 152.299V151.299V150.299C268.106 150.299 267.77 150.281 267.317 150.239L267.227 151.235ZM290.491 157.615L289.735 158.27L289.741 158.276L290.491 157.615ZM290.459 108.484L289.734 107.796L289.731 107.799L290.459 108.484ZM310.994 108.484L310.265 109.169L310.268 109.172L310.994 108.484ZM310.962 157.615L310.209 156.956L310.209 156.957L310.962 157.615ZM298.743 150.251L297.869 150.737L297.875 150.748L298.743 150.251ZM300.742 161.646V160.646C296.489 160.646 293.376 159.374 291.241 156.953L290.491 157.615L289.741 158.276C292.346 161.23 296.067 162.646 300.742 162.646V161.646ZM290.491 157.615L291.246 156.96C289.111 154.497 287.968 150.862 287.968 145.903H286.968H285.968C285.968 151.143 287.174 155.316 289.735 158.27L290.491 157.615ZM286.968 145.903H287.968V119.37H286.968H285.968V145.903H286.968ZM286.968 119.37H287.968C287.968 114.739 289.095 111.395 291.188 109.169L290.459 108.484L289.731 107.799C287.169 110.524 285.968 114.438 285.968 119.37H286.968ZM290.459 108.484L291.185 109.172C293.289 106.954 296.418 105.771 300.742 105.771V104.771V103.771C296.053 103.771 292.326 105.063 289.734 107.796L290.459 108.484ZM300.742 104.771V105.771C305.067 105.771 308.183 106.954 310.265 109.169L310.994 108.484L311.722 107.799C309.15 105.063 305.431 103.771 300.742 103.771V104.771ZM310.994 108.484L310.268 109.172C312.38 111.398 313.517 114.741 313.517 119.37H314.517H315.517C315.517 114.436 314.304 110.521 311.719 107.796L310.994 108.484ZM314.517 119.37H313.517V145.903H314.517H315.517V119.37H314.517ZM314.517 145.903H313.517C313.517 150.86 312.364 154.494 310.209 156.956L310.962 157.615L311.715 158.273C314.299 155.319 315.517 151.145 315.517 145.903H314.517ZM310.962 157.615L310.209 156.957C308.096 159.374 304.996 160.646 300.742 160.646V161.646V162.646C305.417 162.646 309.13 161.23 311.715 158.273L310.962 157.615ZM300.838 151.362V152.362C301.429 152.362 301.993 152.217 302.491 151.895C302.984 151.576 303.356 151.122 303.63 150.591C304.163 149.558 304.377 148.136 304.377 146.443H303.377H302.377C302.377 148.029 302.166 149.067 301.853 149.674C301.704 149.963 301.547 150.123 301.406 150.215C301.269 150.303 301.092 150.362 300.838 150.362V151.362ZM303.377 146.443H304.377V119.18H303.377H302.377V146.443H303.377ZM303.377 119.18H304.377C304.377 117.737 304.166 116.489 303.615 115.571C303.016 114.571 302.065 114.054 300.901 114.054V115.054V116.054C301.387 116.054 301.675 116.224 301.9 116.6C302.175 117.057 302.377 117.872 302.377 119.18H303.377ZM300.901 115.054V114.054C299.675 114.054 298.645 114.541 297.972 115.557C297.348 116.501 297.108 117.789 297.108 119.275H298.108H299.108C299.108 117.946 299.334 117.124 299.64 116.661C299.899 116.27 300.265 116.054 300.901 116.054V115.054ZM298.108 119.275H297.108V146.506H298.108H299.108V119.275H298.108ZM298.108 146.506H297.108C297.108 148.274 297.315 149.741 297.869 150.737L298.743 150.251L299.617 149.766C299.324 149.239 299.108 148.209 299.108 146.506H298.108ZM298.743 150.251L297.875 150.748C298.504 151.849 299.566 152.362 300.838 152.362V151.362V150.362C300.162 150.362 299.828 150.135 299.611 149.755L298.743 150.251ZM319.024 161.138H318.024V162.138H319.024V161.138ZM319.024 105.278V104.278H318.024V105.278H319.024ZM330.513 105.278L331.495 105.09L331.339 104.278H330.513V105.278ZM335.654 132.034L334.672 132.222L336.654 132.034H335.654ZM335.654 105.278V104.278H334.654V105.278H335.654ZM346.445 105.278H347.445V104.278H346.445V105.278ZM346.445 161.138V162.138H347.445V161.138H346.445ZM335.527 161.138L334.547 161.334L334.708 162.138H335.527V161.138ZM329.942 133.208L330.922 133.012L328.942 133.208H329.942ZM329.942 161.138V162.138H330.942V161.138H329.942ZM319.024 161.138H320.024V105.278H319.024H318.024V161.138H319.024ZM319.024 105.278V106.278H330.513V105.278V104.278H319.024V105.278ZM330.513 105.278L329.531 105.467L334.672 132.222L335.654 132.034L336.636 131.845L331.495 105.09L330.513 105.278ZM335.654 132.034H336.654V105.278H335.654H334.654V132.034H335.654ZM335.654 105.278V106.278H346.445V105.278V104.278H335.654V105.278ZM346.445 105.278H345.445V161.138H346.445H347.445V105.278H346.445ZM346.445 161.138V160.138H335.527V161.138V162.138H346.445V161.138ZM335.527 161.138L336.508 160.942L330.922 133.012L329.942 133.208L328.961 133.404L334.547 161.334L335.527 161.138ZM329.942 133.208H328.942V161.138H329.942H330.942V133.208H329.942ZM329.942 161.138V160.138H319.024V161.138V162.138H329.942V161.138ZM354.475 157.615L353.72 158.27L353.725 158.276L354.475 157.615ZM354.443 108.484L353.718 107.796L353.715 107.799L354.443 108.484ZM374.978 108.484L374.25 109.169L374.253 109.172L374.978 108.484ZM374.946 157.615L374.194 156.956L374.193 156.957L374.946 157.615ZM362.727 150.251L361.853 150.737L361.859 150.748L362.727 150.251ZM364.727 161.646V160.646C360.473 160.646 357.36 159.374 355.225 156.953L354.475 157.615L353.725 158.276C356.33 161.23 360.051 162.646 364.727 162.646V161.646ZM354.475 157.615L355.231 156.96C353.095 154.497 351.952 150.862 351.952 145.903H350.952H349.952C349.952 151.143 351.158 155.316 353.72 158.27L354.475 157.615ZM350.952 145.903H351.952V119.37H350.952H349.952V145.903H350.952ZM350.952 119.37H351.952C351.952 114.739 353.079 111.395 355.172 109.169L354.443 108.484L353.715 107.799C351.153 110.524 349.952 114.438 349.952 119.37H350.952ZM354.443 108.484L355.169 109.172C357.274 106.954 360.402 105.771 364.727 105.771V104.771V103.771C360.037 103.771 356.311 105.063 353.718 107.796L354.443 108.484ZM364.727 104.771V105.771C369.052 105.771 372.167 106.954 374.25 109.169L374.978 108.484L375.707 107.799C373.134 105.063 369.415 103.771 364.727 103.771V104.771ZM374.978 108.484L374.253 109.172C376.365 111.398 377.501 114.741 377.501 119.37H378.501H379.501C379.501 114.436 378.289 110.521 375.704 107.796L374.978 108.484ZM378.501 119.37H377.501V145.903H378.501H379.501V119.37H378.501ZM378.501 145.903H377.501C377.501 150.86 376.349 154.494 374.194 156.956L374.946 157.615L375.699 158.273C378.284 155.319 379.501 151.145 379.501 145.903H378.501ZM374.946 157.615L374.193 156.957C372.081 159.374 368.981 160.646 364.727 160.646V161.646V162.646C369.402 162.646 373.115 161.23 375.699 158.273L374.946 157.615ZM364.822 151.362V152.362C365.414 152.362 365.977 152.217 366.475 151.895C366.969 151.576 367.341 151.122 367.615 150.591C368.148 149.558 368.361 148.136 368.361 146.443H367.361H366.361C366.361 148.029 366.151 149.067 365.838 149.674C365.688 149.963 365.532 150.123 365.39 150.215C365.253 150.303 365.076 150.362 364.822 150.362V151.362ZM367.361 146.443H368.361V119.18H367.361H366.361V146.443H367.361ZM367.361 119.18H368.361C368.361 117.737 368.15 116.489 367.6 115.571C367 114.571 366.049 114.054 364.885 114.054V115.054V116.054C365.372 116.054 365.659 116.224 365.885 116.6C366.159 117.057 366.361 117.872 366.361 119.18H367.361ZM364.885 115.054V114.054C363.66 114.054 362.629 114.541 361.957 115.557C361.332 116.501 361.092 117.789 361.092 119.275H362.092H363.092C363.092 117.946 363.318 117.124 363.625 116.661C363.883 116.27 364.249 116.054 364.885 116.054V115.054ZM362.092 119.275H361.092V146.506H362.092H363.092V119.275H362.092ZM362.092 146.506H361.092C361.092 148.274 361.3 149.741 361.853 150.737L362.727 150.251L363.601 149.766C363.308 149.239 363.092 148.209 363.092 146.506H362.092ZM362.727 150.251L361.859 150.748C362.488 151.849 363.551 152.362 364.822 152.362V151.362V150.362C364.147 150.362 363.812 150.135 363.595 149.755L362.727 150.251ZM222.888 205.056L222.284 205.853L222.29 205.857L222.888 205.056ZM228.189 222.258V223.258H229.189V222.258H228.189ZM217.271 222.258H216.271V223.258H217.271V222.258ZM216.763 214.292L215.829 214.65L215.835 214.665L215.841 214.68L216.763 214.292ZM212.161 214.355L211.262 213.917L211.258 213.925L211.253 213.935L212.161 214.355ZM212.129 247.966L211.201 248.337L211.206 248.35L211.211 248.362L212.129 247.966ZM216.795 247.966L215.873 247.577L215.869 247.587L216.795 247.966ZM217.398 236.254H218.398V235.254H217.398V236.254ZM214.414 236.254H213.414V237.254H214.414V236.254ZM214.414 226.606V225.606H213.414V226.606H214.414ZM228.062 226.606H229.062V225.606H228.062V226.606ZM228.062 259.138V260.138H229.062V259.138H228.062ZM223.587 259.138L222.66 259.513L222.913 260.138H223.587V259.138ZM221.682 254.44L222.609 254.065L221.828 252.137L220.81 253.951L221.682 254.44ZM212.478 259.646V258.646C208.762 258.646 206.102 257.335 204.324 254.788C202.501 252.176 201.513 248.134 201.513 242.507H200.513H199.513C199.513 248.305 200.519 252.832 202.684 255.933C204.895 259.1 208.218 260.646 212.478 260.646V259.646ZM200.513 242.507H201.513V218.417H200.513H199.513V242.507H200.513ZM200.513 218.417H201.513C201.513 213.326 202.631 209.694 204.693 207.341C206.732 205.014 209.844 203.771 214.224 203.771V202.771V201.771C209.462 201.771 205.719 203.135 203.188 206.023C200.68 208.886 199.513 213.078 199.513 218.417H200.513ZM214.224 202.771V203.771C217.874 203.771 220.515 204.512 222.284 205.853L222.888 205.056L223.492 204.259C221.241 202.553 218.106 201.771 214.224 201.771V202.771ZM222.888 205.056L222.29 205.857C224.085 207.199 225.363 209.187 226.079 211.911L227.046 211.657L228.013 211.403C227.206 208.33 225.712 205.917 223.487 204.255L222.888 205.056ZM227.046 211.657L226.079 211.911C226.812 214.702 227.189 218.145 227.189 222.258H228.189H229.189C229.189 218.034 228.803 214.41 228.013 211.403L227.046 211.657ZM228.189 222.258V221.258H217.271V222.258V223.258H228.189V222.258ZM217.271 222.258H218.271V217.307H217.271H216.271V222.258H217.271ZM217.271 217.307H218.271C218.271 216.015 218.09 214.868 217.684 213.903L216.763 214.292L215.841 214.68C216.112 215.323 216.271 216.186 216.271 217.307H217.271ZM216.763 214.292L217.696 213.933C217.468 213.339 217.086 212.844 216.537 212.509C216.001 212.182 215.378 212.054 214.732 212.054V213.054V214.054C215.122 214.054 215.356 214.131 215.497 214.217C215.625 214.295 215.74 214.419 215.829 214.65L216.763 214.292ZM214.732 213.054V212.054C213.21 212.054 211.91 212.588 211.262 213.917L212.161 214.355L213.06 214.793C213.258 214.387 213.672 214.054 214.732 214.054V213.054ZM212.161 214.355L211.253 213.935C210.785 214.945 210.558 216.042 210.558 217.211H211.558H212.558C212.558 216.307 212.732 215.5 213.068 214.775L212.161 214.355ZM211.558 217.211H210.558V244.284H211.558H212.558V217.211H211.558ZM211.558 244.284H210.558C210.558 245.86 210.756 247.225 211.201 248.337L212.129 247.966L213.057 247.594C212.74 246.802 212.558 245.713 212.558 244.284H211.558ZM212.129 247.966L211.211 248.362C211.484 248.994 211.907 249.516 212.494 249.87C213.072 250.218 213.741 250.362 214.446 250.362V249.362V248.362C214.009 248.362 213.72 248.274 213.526 248.157C213.34 248.045 213.176 247.868 213.047 247.569L212.129 247.966ZM214.446 249.362V250.362C215.165 250.362 215.847 250.221 216.433 249.873C217.031 249.517 217.456 248.989 217.72 248.344L216.795 247.966L215.869 247.587C215.752 247.874 215.596 248.044 215.411 248.154C215.214 248.271 214.911 248.362 214.446 248.362V249.362ZM216.795 247.966L217.716 248.355C218.189 247.234 218.398 245.839 218.398 244.221H217.398H216.398C216.398 245.692 216.204 246.793 215.873 247.577L216.795 247.966ZM217.398 244.221H218.398V236.254H217.398H216.398V244.221H217.398ZM217.398 236.254V235.254H214.414V236.254V237.254H217.398V236.254ZM214.414 236.254H215.414V226.606H214.414H213.414V236.254H214.414ZM214.414 226.606V227.606H228.062V226.606V225.606H214.414V226.606ZM228.062 226.606H227.062V259.138H228.062H229.062V226.606H228.062ZM228.062 259.138V258.138H223.587V259.138V260.138H228.062V259.138ZM223.587 259.138L224.513 258.762L222.609 254.065L221.682 254.44L220.755 254.816L222.66 259.513L223.587 259.138ZM221.682 254.44L220.81 253.951C219.052 257.086 216.33 258.646 212.478 258.646V259.646V260.646C217.006 260.646 220.42 258.735 222.554 254.93L221.682 254.44ZM232.505 259.138H231.505V260.138H232.505V259.138ZM232.505 203.278V202.278H231.505V203.278H232.505ZM254.849 203.278H255.849V202.278H254.849V203.278ZM254.849 214.069V215.069H255.849V214.069H254.849ZM243.867 214.069V213.069H242.867V214.069H243.867ZM243.867 224.956H242.867V225.956H243.867V224.956ZM254.404 224.956H255.404V223.956H254.404V224.956ZM254.404 235.461V236.461H255.404V235.461H254.404ZM243.867 235.461V234.461H242.867V235.461H243.867ZM243.867 248.251H242.867V249.251H243.867V248.251ZM255.579 248.251H256.579V247.251H255.579V248.251ZM255.579 259.138V260.138H256.579V259.138H255.579ZM232.505 259.138H233.505V203.278H232.505H231.505V259.138H232.505ZM232.505 203.278V204.278H254.849V203.278V202.278H232.505V203.278ZM254.849 203.278H253.849V214.069H254.849H255.849V203.278H254.849ZM254.849 214.069V213.069H243.867V214.069V215.069H254.849V214.069ZM243.867 214.069H242.867V224.956H243.867H244.867V214.069H243.867ZM243.867 224.956V225.956H254.404V224.956V223.956H243.867V224.956ZM254.404 224.956H253.404V235.461H254.404H255.404V224.956H254.404ZM254.404 235.461V234.461H243.867V235.461V236.461H254.404V235.461ZM243.867 235.461H242.867V248.251H243.867H244.867V235.461H243.867ZM243.867 248.251V249.251H255.579V248.251V247.251H243.867V248.251ZM255.579 248.251H254.579V259.138H255.579H256.579V248.251H255.579ZM255.579 259.138V258.138H232.505V259.138V260.138H255.579V259.138ZM259.292 259.138H258.292V260.138H259.292V259.138ZM259.292 203.278V202.278H258.292V203.278H259.292ZM270.781 203.278L271.763 203.09L271.607 202.278H270.781V203.278ZM275.923 230.034L274.941 230.222L276.923 230.034H275.923ZM275.923 203.278V202.278H274.923V203.278H275.923ZM286.714 203.278H287.714V202.278H286.714V203.278ZM286.714 259.138V260.138H287.714V259.138H286.714ZM275.796 259.138L274.815 259.334L274.976 260.138H275.796V259.138ZM270.21 231.208L271.191 231.012L269.21 231.208H270.21ZM270.21 259.138V260.138H271.21V259.138H270.21ZM259.292 259.138H260.292V203.278H259.292H258.292V259.138H259.292ZM259.292 203.278V204.278H270.781V203.278V202.278H259.292V203.278ZM270.781 203.278L269.799 203.467L274.941 230.222L275.923 230.034L276.905 229.845L271.763 203.09L270.781 203.278ZM275.923 230.034H276.923V203.278H275.923H274.923V230.034H275.923ZM275.923 203.278V204.278H286.714V203.278V202.278H275.923V203.278ZM286.714 203.278H285.714V259.138H286.714H287.714V203.278H286.714ZM286.714 259.138V258.138H275.796V259.138V260.138H286.714V259.138ZM275.796 259.138L276.777 258.942L271.191 231.012L270.21 231.208L269.229 231.404L274.815 259.334L275.796 259.138ZM270.21 231.208H269.21V259.138H270.21H271.21V231.208H270.21ZM270.21 259.138V258.138H259.292V259.138V260.138H270.21V259.138ZM291.665 259.138H290.665V260.138H291.665V259.138ZM291.665 203.278V202.278H290.665V203.278H291.665ZM314.009 203.278H315.009V202.278H314.009V203.278ZM314.009 214.069V215.069H315.009V214.069H314.009ZM303.027 214.069V213.069H302.027V214.069H303.027ZM303.027 224.956H302.027V225.956H303.027V224.956ZM313.565 224.956H314.565V223.956H313.565V224.956ZM313.565 235.461V236.461H314.565V235.461H313.565ZM303.027 235.461V234.461H302.027V235.461H303.027ZM303.027 248.251H302.027V249.251H303.027V248.251ZM314.739 248.251H315.739V247.251H314.739V248.251ZM314.739 259.138V260.138H315.739V259.138H314.739ZM291.665 259.138H292.665V203.278H291.665H290.665V259.138H291.665ZM291.665 203.278V204.278H314.009V203.278V202.278H291.665V203.278ZM314.009 203.278H313.009V214.069H314.009H315.009V203.278H314.009ZM314.009 214.069V213.069H303.027V214.069V215.069H314.009V214.069ZM303.027 214.069H302.027V224.956H303.027H304.027V214.069H303.027ZM303.027 224.956V225.956H313.565V224.956V223.956H303.027V224.956ZM313.565 224.956H312.565V235.461H313.565H314.565V224.956H313.565ZM313.565 235.461V234.461H303.027V235.461V236.461H313.565V235.461ZM303.027 235.461H302.027V248.251H303.027H304.027V235.461H303.027ZM303.027 248.251V249.251H314.739V248.251V247.251H303.027V248.251ZM314.739 248.251H313.739V259.138H314.739H315.739V248.251H314.739ZM314.739 259.138V258.138H291.665V259.138V260.138H314.739V259.138ZM318.452 259.138H317.452V260.138H318.452V259.138ZM318.452 203.278V202.278H317.452V203.278H318.452ZM342.066 205.246L341.397 205.99L341.403 205.995L342.066 205.246ZM344.985 210.705L344.006 210.908L344.008 210.918L344.985 210.705ZM344.573 226.225L343.654 225.83L343.65 225.839L344.573 226.225ZM340.225 230.002L339.914 229.051L336.325 230.224L340.024 230.982L340.225 230.002ZM343.906 232.636L343.012 233.083L343.016 233.092L343.02 233.1L343.906 232.636ZM344.985 259.138V260.138H345.985V259.138H344.985ZM333.972 259.138H332.972V260.138H333.972V259.138ZM332.957 234.255L332.434 235.107L332.45 235.117L332.466 235.126L332.957 234.255ZM329.751 233.652V232.652H328.751V233.652H329.751ZM329.751 259.138V260.138H330.751V259.138H329.751ZM329.815 223.972H328.815V224.972H329.815V223.972ZM329.815 213.625V212.625H328.815V213.625H329.815ZM318.452 259.138H319.452V203.278H318.452H317.452V259.138H318.452ZM318.452 203.278V204.278H335.591V203.278V202.278H318.452V203.278ZM335.591 203.278V204.278C338.311 204.278 340.189 204.904 341.397 205.99L342.066 205.246L342.734 204.502C341.022 202.964 338.584 202.278 335.591 202.278V203.278ZM342.066 205.246L341.403 205.995C342.667 207.113 343.553 208.721 344.006 210.908L344.985 210.705L345.965 210.502C345.444 207.992 344.384 205.961 342.728 204.497L342.066 205.246ZM344.985 210.705L344.008 210.918C344.497 213.157 344.747 215.823 344.747 218.925H345.747H346.747C346.747 215.722 346.49 212.908 345.962 210.492L344.985 210.705ZM345.747 218.925H344.747C344.747 221.902 344.362 224.184 343.654 225.83L344.573 226.225L345.491 226.62C346.349 224.627 346.747 222.042 346.747 218.925H345.747ZM344.573 226.225L343.65 225.839C343.017 227.351 341.818 228.429 339.914 229.051L340.225 230.002L340.535 230.952C342.906 230.178 344.605 228.738 345.495 226.611L344.573 226.225ZM340.225 230.002L340.024 230.982C341.53 231.29 342.472 232.004 343.012 233.083L343.906 232.636L344.801 232.189C343.944 230.475 342.432 229.433 340.425 229.022L340.225 230.002ZM343.906 232.636L343.02 233.1C343.64 234.285 343.985 235.898 343.985 238H344.985H345.985C345.985 235.701 345.611 233.738 344.792 232.173L343.906 232.636ZM344.985 238H343.985V259.138H344.985H345.985V238H344.985ZM344.985 259.138V258.138H333.972V259.138V260.138H344.985V259.138ZM333.972 259.138H334.972V237.27H333.972H332.972V259.138H333.972ZM333.972 237.27H334.972C334.972 236.399 334.883 235.62 334.666 234.975C334.447 234.325 334.069 233.733 333.447 233.383L332.957 234.255L332.466 235.126C332.521 235.157 332.651 235.259 332.771 235.614C332.892 235.974 332.972 236.512 332.972 237.27H333.972ZM332.957 234.255L333.479 233.402C332.578 232.85 331.274 232.652 329.751 232.652V233.652V234.652C331.19 234.652 332.024 234.856 332.434 235.107L332.957 234.255ZM329.751 233.652H328.751V259.138H329.751H330.751V233.652H329.751ZM329.751 259.138V258.138H318.452V259.138V260.138H329.751V259.138ZM329.815 223.972V224.972H332.512V223.972V222.972H329.815V223.972ZM332.512 223.972V224.972C333.092 224.972 333.639 224.81 334.113 224.465C334.577 224.129 334.914 223.659 335.159 223.127C335.636 222.088 335.829 220.653 335.829 218.925H334.829H333.829C333.829 220.562 333.636 221.65 333.341 222.293C333.199 222.602 333.054 222.763 332.938 222.847C332.833 222.923 332.705 222.972 332.512 222.972V223.972ZM334.829 218.925H335.829C335.829 217.814 335.786 216.869 335.695 216.102C335.607 215.357 335.464 214.691 335.216 214.193L334.321 214.641L333.427 215.088C333.517 215.268 333.628 215.654 333.709 216.337C333.787 216.998 333.829 217.857 333.829 218.925H334.829ZM334.321 214.641L335.216 214.193C334.666 213.093 333.622 212.625 332.417 212.625V213.625V214.625C333.074 214.625 333.3 214.834 333.427 215.088L334.321 214.641ZM332.417 213.625V212.625H329.815V213.625V214.625H332.417V213.625ZM329.815 213.625H328.815V223.972H329.815H330.815V213.625H329.815ZM347.905 259.138L346.91 259.042L346.804 260.138H347.905V259.138ZM353.301 203.278V202.278H352.393L352.306 203.182L353.301 203.278ZM372.249 203.278L373.244 203.184L373.158 202.278H372.249V203.278ZM377.549 259.138V260.138H378.648L378.544 259.043L377.549 259.138ZM366.98 259.138L365.984 259.225L366.064 260.138H366.98V259.138ZM366.187 250.124L367.183 250.036L367.102 249.124H366.187V250.124ZM359.458 250.124V249.124H358.533L358.461 250.047L359.458 250.124ZM358.76 259.138V260.138H359.685L359.757 259.215L358.76 259.138ZM360.252 241.206L359.254 241.131L359.174 242.206H360.252V241.206ZM365.33 241.206V242.206H366.419L366.326 241.12L365.33 241.206ZM362.886 212.8L363.882 212.714L363.804 211.8H362.886V212.8ZM362.378 212.8V211.8H361.45L361.381 212.725L362.378 212.8ZM347.905 259.138L348.901 259.234L354.296 203.374L353.301 203.278L352.306 203.182L346.91 259.042L347.905 259.138ZM353.301 203.278V204.278H372.249V203.278V202.278H353.301V203.278ZM372.249 203.278L371.253 203.373L376.553 259.232L377.549 259.138L378.544 259.043L373.244 203.184L372.249 203.278ZM377.549 259.138V258.138H366.98V259.138V260.138H377.549V259.138ZM366.98 259.138L367.976 259.05L367.183 250.036L366.187 250.124L365.19 250.212L365.984 259.225L366.98 259.138ZM366.187 250.124V249.124H359.458V250.124V251.124H366.187V250.124ZM359.458 250.124L358.461 250.047L357.763 259.06L358.76 259.138L359.757 259.215L360.455 250.201L359.458 250.124ZM358.76 259.138V258.138H347.905V259.138V260.138H358.76V259.138ZM360.252 241.206V242.206H365.33V241.206V240.206H360.252V241.206ZM365.33 241.206L366.326 241.12L363.882 212.714L362.886 212.8L361.89 212.886L364.333 241.291L365.33 241.206ZM362.886 212.8V211.8H362.378V212.8V213.8H362.886V212.8ZM362.378 212.8L361.381 212.725L359.254 241.131L360.252 241.206L361.249 241.28L363.375 212.874L362.378 212.8ZM380.977 259.138H379.977V260.138H380.977V259.138ZM380.977 203.278V202.278H379.977V203.278H380.977ZM392.149 203.278H393.149V202.278H392.149V203.278ZM392.149 249.616H391.149V250.616H392.149V249.616ZM403.638 249.616H404.638V248.616H403.638V249.616ZM403.638 259.138V260.138H404.638V259.138H403.638ZM380.977 259.138H381.977V203.278H380.977H379.977V259.138H380.977ZM380.977 203.278V204.278H392.149V203.278V202.278H380.977V203.278ZM392.149 203.278H391.149V249.616H392.149H393.149V203.278H392.149ZM392.149 249.616V250.616H403.638V249.616V248.616H392.149V249.616ZM403.638 249.616H402.638V259.138H403.638H404.638V249.616H403.638ZM403.638 259.138V258.138H380.977V259.138V260.138H403.638V259.138Z" fill="black" mask="url(#path-3-outside-1_255_13)"/>
<rect x="0.589081" y="57.6487" width="288.253" height="48.0642" rx="24.0321" transform="rotate(-11.4171 0.589081 57.6487)" fill="#49BEAD" stroke="black"/>
<path d="M55.4585 82.1651L51.3015 61.5807L58.5061 60.1257L65.6867 77.3451L66.216 77.2382L66.1517 58.5817L73.3563 57.1268L77.5132 77.7112L73.7492 78.4714L70.1683 60.7393L69.639 60.8462L69.6911 79.2909L63.2806 80.5855L56.1709 63.5661L55.6416 63.673L59.2225 81.405L55.4585 82.1651ZM79.9785 77.2134L81.2324 55.5362L87.9958 54.1704L97.5636 73.6622L93.5643 74.4698L91.5323 70.1669L84.1807 71.6515L83.9778 76.4057L79.9785 77.2134ZM84.3678 67.8798L89.8962 66.7634L85.3716 57.2406L84.8423 57.3475L84.3678 67.8798ZM81.976 53.6109L83.2624 49.3724L87.5557 48.5054L85.2695 52.9458L81.976 53.6109ZM107.256 72.1332C105.668 72.4539 104.209 72.4527 102.879 72.1296C101.549 71.8066 100.434 71.185 99.5337 70.2649C98.6338 69.3449 98.0334 68.1399 97.7325 66.65L97.5662 65.8266L101.389 65.0546L101.555 65.8779C101.805 67.113 102.375 67.967 103.266 68.44C104.154 68.8933 105.254 68.9873 106.567 68.7221C107.901 68.4529 108.837 67.9883 109.377 67.3283C109.937 66.6644 110.134 65.9207 109.967 65.0974C109.852 64.5288 109.593 64.1018 109.188 63.8162C108.803 63.5267 108.275 63.3374 107.605 63.2485C106.949 63.136 106.161 63.0708 105.239 63.0529L104.533 63.0424C103.058 63.0138 101.763 62.8672 100.649 62.6025C99.5502 62.3143 98.6472 61.8336 97.9399 61.1603C97.2522 60.483 96.7817 59.517 96.5283 58.2623C96.275 57.0077 96.3533 55.8799 96.7632 54.8789C97.1889 53.8544 97.8933 52.998 98.8765 52.3097C99.8753 51.5979 101.11 51.0936 102.58 50.7966C104.051 50.4997 105.406 50.4913 106.646 50.7714C107.901 51.0279 108.954 51.5908 109.802 52.4599C110.667 53.3055 111.25 54.4733 111.55 55.9632L111.729 56.8454L107.906 57.6174L107.728 56.7352C107.569 55.951 107.286 55.3554 106.877 54.9482C106.484 54.5175 105.981 54.2517 105.369 54.1509C104.753 54.0305 104.053 54.0494 103.269 54.2078C102.093 54.4453 101.266 54.8469 100.789 55.4126C100.327 55.9548 100.173 56.6081 100.327 57.3727C100.43 57.8824 100.645 58.288 100.971 58.5894C101.317 58.8868 101.778 59.0997 102.355 59.2281C102.932 59.3565 103.65 59.4257 104.509 59.4359L105.215 59.4463C106.748 59.4631 108.104 59.6076 109.281 59.88C110.478 60.1484 111.461 60.6231 112.231 61.3042C113.001 61.9852 113.513 62.9531 113.766 64.2077C114.02 65.4624 113.92 66.6354 113.467 67.7266C113.03 68.7943 112.278 69.7214 111.213 70.5078C110.163 71.2707 108.844 71.8125 107.256 72.1332ZM128.806 67.353L119.414 47.8256L123.413 47.0179L131.418 64.2239L131.83 64.1408L132.529 45.177L136.529 44.3693L135.451 66.0109L128.806 67.353ZM143.161 64.454L139.004 43.8695L152.237 41.1972L152.949 44.726L143.598 46.6144L144.59 51.5253L153.118 49.8031L153.83 53.3319L145.302 55.054L146.33 60.1413L155.857 58.2173L156.57 61.746L143.161 64.454ZM159.443 61.1658L155.286 40.5813L162.667 39.0908L170.377 56.2032L170.907 56.0963L167.284 38.1584L171.107 37.3864L175.264 57.9709L167.883 59.4614L160.173 42.349L159.644 42.4559L163.266 60.3938L159.443 61.1658ZM178.555 57.3062L177.866 53.8951L180.572 53.3487L177.792 39.5865L175.087 40.1329L174.398 36.7218L182.867 35.0115C185.631 34.4532 187.872 34.7354 189.588 35.8579C191.32 36.9568 192.465 38.8884 193.023 41.6526L193.807 45.5342C194.365 48.2984 194.061 50.5328 192.895 52.2372C191.745 53.9181 189.788 55.0377 187.024 55.5959L178.555 57.3062ZM184.43 52.4472L186.37 52.0553C187.939 51.7386 189.002 51.0953 189.561 50.1254C190.121 49.1555 190.25 47.9257 189.949 46.4357L189.117 42.3188C188.813 40.8093 188.216 39.7259 187.329 39.0686C186.437 38.3917 185.207 38.2116 183.639 38.5284L181.698 38.9203L184.43 52.4472ZM198.728 53.2323L194.571 32.6478L198.453 31.864L202.61 52.4484L198.728 53.2323ZM205.894 51.7853L205.205 48.3741L207.91 47.8278L205.131 34.0656L202.426 34.6119L201.737 31.2008L210.206 29.4905C212.97 28.9323 215.21 29.2144 216.926 30.3369C218.658 31.4359 219.803 33.3674 220.361 36.1316L221.145 40.0133C221.704 42.7775 221.4 45.0118 220.234 46.7163C219.084 48.3972 217.127 49.5167 214.363 50.075L205.894 51.7853ZM211.768 46.9263L213.709 46.5343C215.277 46.2176 216.341 45.5743 216.9 44.6044C217.459 43.6346 217.588 42.4047 217.287 40.9148L216.456 36.7979C216.151 35.2884 215.555 34.2049 214.667 33.5477C213.776 32.8708 212.546 32.6907 210.977 33.0074L209.037 33.3993L211.768 46.9263ZM234.149 46.5078C231.561 47.0303 229.36 46.7403 227.546 45.6376C225.728 44.5153 224.551 42.6308 224.017 39.9843L223.019 35.044C222.485 32.3974 222.84 30.214 224.084 28.4937C225.324 26.7538 227.238 25.6225 229.825 25.0999C232.413 24.5773 234.616 24.8772 236.434 25.9995C238.249 27.1022 239.423 28.9768 239.957 31.6234L240.955 36.5637C241.489 39.2103 241.137 41.4035 239.896 43.1434C238.652 44.8637 236.736 45.9852 234.149 46.5078ZM233.448 43.0378C234.899 42.7448 235.941 42.0957 236.574 41.0904C237.208 40.0851 237.382 38.8767 237.097 37.4652L236.052 32.2897C235.767 30.8782 235.137 29.8321 234.163 29.1514C233.189 28.4708 231.977 28.2769 230.526 28.5699C229.095 28.8589 228.053 29.508 227.4 30.5173C226.766 31.5226 226.592 32.731 226.877 34.1425L227.922 39.318C228.207 40.7295 228.837 41.7756 229.811 42.4563C230.805 43.133 232.017 43.3268 233.448 43.0378Z" fill="white"/>
<defs>
<filter id="filter0_d_255_13" x="56.8395" y="65.6377" width="491.696" height="242.407" filterUnits="userSpaceOnUse" color-interpolation-filters="sRGB">
<feFlood flood-opacity="0" result="BackgroundImageFix"/>
<feColorMatrix in="SourceAlpha" type="matrix" values="0 0 0 0 0 0 0 0 0 0 0 0 0 0 0 0 0 0 127 0" result="hardAlpha"/>
<feOffset dy="4"/>
<feGaussianBlur stdDeviation="2"/>
<feComposite in2="hardAlpha" operator="out"/>
<feColorMatrix type="matrix" values="0 0 0 0 0 0 0 0 0 0 0 0 0 0 0 0 0 0 0.65 0"/>
<feBlend mode="normal" in2="BackgroundImageFix" result="effect1_dropShadow_255_13"/>
<feBlend mode="normal" in="SourceGraphic" in2="effect1_dropShadow_255_13" result="shape"/>
</filter>
</defs>
</svg>
