<svg width="549" height="309" viewBox="0 0 549 309" fill="none" xmlns="http://www.w3.org/2000/svg">
<g filter="url(#filter0_d_255_14)">
<path d="M506.746 299.544H100.01C100.01 269.16 74.2298 260.183 61.3395 259.492V105.499C92.2762 105.499 100.01 79.2582 100.01 66.1377H506.746C503.431 96.522 530.224 105.039 544.035 105.499V259.492C511.994 260.597 505.825 286.654 506.746 299.544Z" fill="#F67449"/>
<path d="M506.746 299.544H100.01C100.01 269.16 74.2298 260.183 61.3395 259.492V105.499C92.2762 105.499 100.01 79.2582 100.01 66.1377H506.746C503.431 96.522 530.224 105.039 544.035 105.499V259.492C511.994 260.597 505.825 286.654 506.746 299.544Z" stroke="black"/>
</g>
<line x1="476.977" y1="299.027" x2="476.977" y2="66.6327" stroke="white" stroke-width="8" stroke-dasharray="30 30"/>
<mask id="path-3-outside-1_255_14" maskUnits="userSpaceOnUse" x="221.339" y="103.138" width="159" height="157" fill="black">
<rect fill="white" x="221.339" y="103.138" width="159" height="157"/>
<path d="M223.237 161.138L228.633 105.278H247.581L252.881 161.138H242.312L241.519 152.124H234.79L234.092 161.138H223.237ZM235.584 143.206H240.662L238.218 114.8H237.71L235.584 143.206ZM256.309 161.138V105.278H271.448C275.51 105.278 278.462 106.273 280.303 108.262C282.165 110.229 283.096 113.488 283.096 118.037V120.481C283.096 123.105 282.62 125.231 281.668 126.86C280.737 128.49 279.308 129.558 277.383 130.066C279.901 130.701 281.583 132.192 282.429 134.541C283.297 136.868 283.731 139.714 283.731 143.079C283.731 146.697 283.392 149.86 282.715 152.568C282.038 155.277 280.811 157.382 279.033 158.884C277.256 160.387 274.727 161.138 271.448 161.138H256.309ZM267.227 126.321H269.512C270.549 126.321 271.215 125.919 271.511 125.115C271.808 124.311 271.956 123.348 271.956 122.227V116.609C271.956 114.81 271.162 113.911 269.575 113.911H267.227V126.321ZM268.338 151.299C271.236 151.299 272.686 149.924 272.686 147.173V140.19C272.686 138.604 272.442 137.355 271.956 136.445C271.49 135.514 270.602 135.049 269.29 135.049H267.227V151.235C267.692 151.278 268.062 151.299 268.338 151.299ZM300.742 161.646C296.278 161.646 292.861 160.302 290.491 157.615C288.142 154.906 286.968 151.003 286.968 145.903V119.37C286.968 114.588 288.132 110.959 290.459 108.484C292.808 106.008 296.235 104.771 300.742 104.771C305.249 104.771 308.666 106.008 310.994 108.484C313.342 110.959 314.517 114.588 314.517 119.37V145.903C314.517 151.003 313.332 154.906 310.962 157.615C308.613 160.302 305.207 161.646 300.742 161.646ZM300.838 151.362C302.53 151.362 303.377 149.722 303.377 146.443V119.18C303.377 116.429 302.551 115.054 300.901 115.054C299.039 115.054 298.108 116.461 298.108 119.275V146.506C298.108 148.241 298.32 149.49 298.743 150.251C299.166 150.992 299.864 151.362 300.838 151.362ZM319.024 161.138V105.278H330.513L335.654 132.034V105.278H346.445V161.138H335.527L329.942 133.208V161.138H319.024ZM364.727 161.646C360.262 161.646 356.845 160.302 354.475 157.615C352.127 154.906 350.952 151.003 350.952 145.903V119.37C350.952 114.588 352.116 110.959 354.443 108.484C356.792 106.008 360.22 104.771 364.727 104.771C369.234 104.771 372.651 106.008 374.978 108.484C377.327 110.959 378.501 114.588 378.501 119.37V145.903C378.501 151.003 377.316 154.906 374.946 157.615C372.598 160.302 369.191 161.646 364.727 161.646ZM364.822 151.362C366.515 151.362 367.361 149.722 367.361 146.443V119.18C367.361 116.429 366.536 115.054 364.885 115.054C363.023 115.054 362.092 116.461 362.092 119.275V146.506C362.092 148.241 362.304 149.49 362.727 150.251C363.15 150.992 363.849 151.362 364.822 151.362ZM271.035 259.138L264.148 203.247H274.78L278.875 241.269L282.525 203.247H293.157L286.27 259.138H271.035ZM295.918 259.138V203.278H306.709V259.138H295.918ZM311.152 259.138V203.278H325.911C329 203.278 331.444 203.966 333.242 205.341C335.062 206.717 336.363 208.674 337.146 211.213C337.929 213.752 338.32 216.778 338.32 220.29C338.32 223.675 337.992 226.627 337.337 229.145C336.681 231.642 335.506 233.578 333.814 234.953C332.142 236.328 329.762 237.016 326.672 237.016H322.134V259.138H311.152ZM322.134 226.987H322.769C324.842 226.987 326.112 226.405 326.577 225.241C327.043 224.077 327.276 222.364 327.276 220.1C327.276 217.984 327.043 216.354 326.577 215.212C326.133 214.048 325.064 213.466 323.372 213.466H322.134V226.987Z"/>
</mask>
<path d="M223.237 161.138L228.633 105.278H247.581L252.881 161.138H242.312L241.519 152.124H234.79L234.092 161.138H223.237ZM235.584 143.206H240.662L238.218 114.8H237.71L235.584 143.206ZM256.309 161.138V105.278H271.448C275.51 105.278 278.462 106.273 280.303 108.262C282.165 110.229 283.096 113.488 283.096 118.037V120.481C283.096 123.105 282.62 125.231 281.668 126.86C280.737 128.49 279.308 129.558 277.383 130.066C279.901 130.701 281.583 132.192 282.429 134.541C283.297 136.868 283.731 139.714 283.731 143.079C283.731 146.697 283.392 149.86 282.715 152.568C282.038 155.277 280.811 157.382 279.033 158.884C277.256 160.387 274.727 161.138 271.448 161.138H256.309ZM267.227 126.321H269.512C270.549 126.321 271.215 125.919 271.511 125.115C271.808 124.311 271.956 123.348 271.956 122.227V116.609C271.956 114.81 271.162 113.911 269.575 113.911H267.227V126.321ZM268.338 151.299C271.236 151.299 272.686 149.924 272.686 147.173V140.19C272.686 138.604 272.442 137.355 271.956 136.445C271.49 135.514 270.602 135.049 269.29 135.049H267.227V151.235C267.692 151.278 268.062 151.299 268.338 151.299ZM300.742 161.646C296.278 161.646 292.861 160.302 290.491 157.615C288.142 154.906 286.968 151.003 286.968 145.903V119.37C286.968 114.588 288.132 110.959 290.459 108.484C292.808 106.008 296.235 104.771 300.742 104.771C305.249 104.771 308.666 106.008 310.994 108.484C313.342 110.959 314.517 114.588 314.517 119.37V145.903C314.517 151.003 313.332 154.906 310.962 157.615C308.613 160.302 305.207 161.646 300.742 161.646ZM300.838 151.362C302.53 151.362 303.377 149.722 303.377 146.443V119.18C303.377 116.429 302.551 115.054 300.901 115.054C299.039 115.054 298.108 116.461 298.108 119.275V146.506C298.108 148.241 298.32 149.49 298.743 150.251C299.166 150.992 299.864 151.362 300.838 151.362ZM319.024 161.138V105.278H330.513L335.654 132.034V105.278H346.445V161.138H335.527L329.942 133.208V161.138H319.024ZM364.727 161.646C360.262 161.646 356.845 160.302 354.475 157.615C352.127 154.906 350.952 151.003 350.952 145.903V119.37C350.952 114.588 352.116 110.959 354.443 108.484C356.792 106.008 360.22 104.771 364.727 104.771C369.234 104.771 372.651 106.008 374.978 108.484C377.327 110.959 378.501 114.588 378.501 119.37V145.903C378.501 151.003 377.316 154.906 374.946 157.615C372.598 160.302 369.191 161.646 364.727 161.646ZM364.822 151.362C366.515 151.362 367.361 149.722 367.361 146.443V119.18C367.361 116.429 366.536 115.054 364.885 115.054C363.023 115.054 362.092 116.461 362.092 119.275V146.506C362.092 148.241 362.304 149.49 362.727 150.251C363.15 150.992 363.849 151.362 364.822 151.362ZM271.035 259.138L264.148 203.247H274.78L278.875 241.269L282.525 203.247H293.157L286.27 259.138H271.035ZM295.918 259.138V203.278H306.709V259.138H295.918ZM311.152 259.138V203.278H325.911C329 203.278 331.444 203.966 333.242 205.341C335.062 206.717 336.363 208.674 337.146 211.213C337.929 213.752 338.32 216.778 338.32 220.29C338.32 223.675 337.992 226.627 337.337 229.145C336.681 231.642 335.506 233.578 333.814 234.953C332.142 236.328 329.762 237.016 326.672 237.016H322.134V259.138H311.152ZM322.134 226.987H322.769C324.842 226.987 326.112 226.405 326.577 225.241C327.043 224.077 327.276 222.364 327.276 220.1C327.276 217.984 327.043 216.354 326.577 215.212C326.133 214.048 325.064 213.466 323.372 213.466H322.134V226.987Z" fill="white"/>
<path d="M223.237 161.138L222.242 161.042L222.136 162.138H223.237V161.138ZM228.633 105.278V104.278H227.725L227.638 105.182L228.633 105.278ZM247.581 105.278L248.576 105.184L248.49 104.278H247.581V105.278ZM252.881 161.138V162.138H253.98L253.877 161.043L252.881 161.138ZM242.312 161.138L241.316 161.225L241.396 162.138H242.312V161.138ZM241.519 152.124L242.515 152.036L242.435 151.124H241.519V152.124ZM234.79 152.124V151.124H233.865L233.793 152.047L234.79 152.124ZM234.092 161.138V162.138H235.017L235.089 161.215L234.092 161.138ZM235.584 143.206L234.586 143.131L234.506 144.206H235.584V143.206ZM240.662 143.206V144.206H241.751L241.658 143.12L240.662 143.206ZM238.218 114.8L239.214 114.714L239.136 113.8H238.218V114.8ZM237.71 114.8V113.8H236.782L236.713 114.725L237.71 114.8ZM223.237 161.138L224.233 161.234L229.628 105.374L228.633 105.278L227.638 105.182L222.242 161.042L223.237 161.138ZM228.633 105.278V106.278H247.581V105.278V104.278H228.633V105.278ZM247.581 105.278L246.585 105.373L251.885 161.232L252.881 161.138L253.877 161.043L248.576 105.184L247.581 105.278ZM252.881 161.138V160.138H242.312V161.138V162.138H252.881V161.138ZM242.312 161.138L243.308 161.05L242.515 152.036L241.519 152.124L240.523 152.212L241.316 161.225L242.312 161.138ZM241.519 152.124V151.124H234.79V152.124V153.124H241.519V152.124ZM234.79 152.124L233.793 152.047L233.095 161.06L234.092 161.138L235.089 161.215L235.787 152.201L234.79 152.124ZM234.092 161.138V160.138H223.237V161.138V162.138H234.092V161.138ZM235.584 143.206V144.206H240.662V143.206V142.206H235.584V143.206ZM240.662 143.206L241.658 143.12L239.214 114.714L238.218 114.8L237.222 114.886L239.665 143.291L240.662 143.206ZM238.218 114.8V113.8H237.71V114.8V115.8H238.218V114.8ZM237.71 114.8L236.713 114.725L234.586 143.131L235.584 143.206L236.581 143.28L238.707 114.874L237.71 114.8ZM256.309 161.138H255.309V162.138H256.309V161.138ZM256.309 105.278V104.278H255.309V105.278H256.309ZM280.303 108.262L279.569 108.941L279.576 108.949L280.303 108.262ZM281.668 126.86L280.804 126.356L280.799 126.364L281.668 126.86ZM277.383 130.066L277.128 129.099L277.138 131.036L277.383 130.066ZM282.429 134.541L281.488 134.88L281.492 134.89L282.429 134.541ZM267.227 126.321H266.227V127.321H267.227V126.321ZM267.227 113.911V112.911H266.227V113.911H267.227ZM271.956 136.445L271.061 136.893L271.067 136.905L271.074 136.917L271.956 136.445ZM267.227 135.049V134.049H266.227V135.049H267.227ZM267.227 151.235H266.227V152.149L267.136 152.231L267.227 151.235ZM256.309 161.138H257.309V105.278H256.309H255.309V161.138H256.309ZM256.309 105.278V106.278H271.448V105.278V104.278H256.309V105.278ZM271.448 105.278V106.278C275.371 106.278 277.995 107.24 279.569 108.941L280.303 108.262L281.037 107.582C278.929 105.305 275.65 104.278 271.448 104.278V105.278ZM280.303 108.262L279.576 108.949C281.176 110.64 282.096 113.581 282.096 118.037H283.096H284.096C284.096 113.395 283.153 109.819 281.029 107.574L280.303 108.262ZM283.096 118.037H282.096V120.481H283.096H284.096V118.037H283.096ZM283.096 120.481H282.096C282.096 122.993 281.639 124.928 280.804 126.356L281.668 126.86L282.531 127.365C283.601 125.534 284.096 123.216 284.096 120.481H283.096ZM281.668 126.86L280.799 126.364C280.01 127.745 278.812 128.655 277.128 129.099L277.383 130.066L277.638 131.033C279.805 130.461 281.463 129.234 282.536 127.356L281.668 126.86ZM277.383 130.066L277.138 131.036C279.349 131.593 280.76 132.859 281.489 134.88L282.429 134.541L283.37 134.202C282.406 131.526 280.452 129.808 277.627 129.096L277.383 130.066ZM282.429 134.541L281.492 134.89C282.306 137.074 282.731 139.794 282.731 143.079H283.731H284.731C284.731 139.635 284.287 136.663 283.366 134.192L282.429 134.541ZM283.731 143.079H282.731C282.731 146.638 282.397 149.716 281.745 152.326L282.715 152.568L283.685 152.811C284.387 150.004 284.731 146.756 284.731 143.079H283.731ZM282.715 152.568L281.745 152.326C281.108 154.872 279.975 156.779 278.388 158.121L279.033 158.884L279.679 159.648C281.646 157.985 282.968 155.681 283.685 152.811L282.715 152.568ZM279.033 158.884L278.388 158.121C276.853 159.418 274.587 160.138 271.448 160.138V161.138V162.138C274.868 162.138 277.659 161.355 279.679 159.648L279.033 158.884ZM271.448 161.138V160.138H256.309V161.138V162.138H271.448V161.138ZM267.227 126.321V127.321H269.512V126.321V125.321H267.227V126.321ZM269.512 126.321V127.321C270.154 127.321 270.773 127.197 271.306 126.876C271.853 126.545 272.231 126.053 272.45 125.46L271.511 125.115L270.573 124.769C270.495 124.981 270.392 125.091 270.273 125.163C270.139 125.244 269.907 125.321 269.512 125.321V126.321ZM271.511 125.115L272.45 125.46C272.797 124.517 272.956 123.431 272.956 122.227H271.956H270.956C270.956 123.264 270.818 124.104 270.573 124.769L271.511 125.115ZM271.956 122.227H272.956V116.609H271.956H270.956V122.227H271.956ZM271.956 116.609H272.956C272.956 115.584 272.732 114.629 272.11 113.924C271.467 113.195 270.558 112.911 269.575 112.911V113.911V114.911C270.18 114.911 270.46 115.077 270.611 115.247C270.782 115.442 270.956 115.835 270.956 116.609H271.956ZM269.575 113.911V112.911H267.227V113.911V114.911H269.575V113.911ZM267.227 113.911H266.227V126.321H267.227H268.227V113.911H267.227ZM268.338 151.299V152.299C269.928 152.299 271.307 151.922 272.287 150.993C273.276 150.054 273.686 148.716 273.686 147.173H272.686H271.686C271.686 148.38 271.37 149.106 270.91 149.542C270.441 149.988 269.645 150.299 268.338 150.299V151.299ZM272.686 147.173H273.686V140.19H272.686H271.686V147.173H272.686ZM272.686 140.19H273.686C273.686 138.52 273.432 137.086 272.837 135.974L271.956 136.445L271.074 136.917C271.452 137.624 271.686 138.687 271.686 140.19H272.686ZM271.956 136.445L272.85 135.998C272.168 134.635 270.863 134.049 269.29 134.049V135.049V136.049C270.34 136.049 270.812 136.394 271.061 136.893L271.956 136.445ZM269.29 135.049V134.049H267.227V135.049V136.049H269.29V135.049ZM267.227 135.049H266.227V151.235H267.227H268.227V135.049H267.227ZM267.227 151.235L267.136 152.231C267.614 152.275 268.019 152.299 268.338 152.299V151.299V150.299C268.106 150.299 267.77 150.281 267.317 150.239L267.227 151.235ZM290.491 157.615L289.735 158.27L289.741 158.276L290.491 157.615ZM290.459 108.484L289.734 107.796L289.731 107.799L290.459 108.484ZM310.994 108.484L310.265 109.169L310.268 109.172L310.994 108.484ZM310.962 157.615L310.209 156.956L310.209 156.957L310.962 157.615ZM298.743 150.251L297.869 150.737L297.875 150.748L298.743 150.251ZM300.742 161.646V160.646C296.489 160.646 293.376 159.374 291.241 156.953L290.491 157.615L289.741 158.276C292.346 161.23 296.067 162.646 300.742 162.646V161.646ZM290.491 157.615L291.246 156.96C289.111 154.497 287.968 150.862 287.968 145.903H286.968H285.968C285.968 151.143 287.174 155.316 289.735 158.27L290.491 157.615ZM286.968 145.903H287.968V119.37H286.968H285.968V145.903H286.968ZM286.968 119.37H287.968C287.968 114.739 289.095 111.395 291.188 109.169L290.459 108.484L289.731 107.799C287.169 110.524 285.968 114.438 285.968 119.37H286.968ZM290.459 108.484L291.185 109.172C293.289 106.954 296.418 105.771 300.742 105.771V104.771V103.771C296.053 103.771 292.326 105.063 289.734 107.796L290.459 108.484ZM300.742 104.771V105.771C305.067 105.771 308.183 106.954 310.265 109.169L310.994 108.484L311.722 107.799C309.15 105.063 305.431 103.771 300.742 103.771V104.771ZM310.994 108.484L310.268 109.172C312.38 111.398 313.517 114.741 313.517 119.37H314.517H315.517C315.517 114.436 314.304 110.521 311.719 107.796L310.994 108.484ZM314.517 119.37H313.517V145.903H314.517H315.517V119.37H314.517ZM314.517 145.903H313.517C313.517 150.86 312.364 154.494 310.209 156.956L310.962 157.615L311.715 158.273C314.299 155.319 315.517 151.145 315.517 145.903H314.517ZM310.962 157.615L310.209 156.957C308.096 159.374 304.996 160.646 300.742 160.646V161.646V162.646C305.417 162.646 309.13 161.23 311.715 158.273L310.962 157.615ZM300.838 151.362V152.362C301.429 152.362 301.993 152.217 302.491 151.895C302.984 151.576 303.356 151.122 303.63 150.591C304.164 149.558 304.377 148.136 304.377 146.443H303.377H302.377C302.377 148.029 302.166 149.067 301.853 149.674C301.704 149.963 301.547 150.123 301.406 150.215C301.269 150.303 301.092 150.362 300.838 150.362V151.362ZM303.377 146.443H304.377V119.18H303.377H302.377V146.443H303.377ZM303.377 119.18H304.377C304.377 117.737 304.166 116.489 303.615 115.571C303.016 114.571 302.065 114.054 300.901 114.054V115.054V116.054C301.387 116.054 301.675 116.224 301.9 116.6C302.175 117.057 302.377 117.872 302.377 119.18H303.377ZM300.901 115.054V114.054C299.675 114.054 298.645 114.541 297.972 115.557C297.348 116.501 297.108 117.789 297.108 119.275H298.108H299.108C299.108 117.946 299.334 117.124 299.64 116.661C299.899 116.27 300.265 116.054 300.901 116.054V115.054ZM298.108 119.275H297.108V146.506H298.108H299.108V119.275H298.108ZM298.108 146.506H297.108C297.108 148.274 297.315 149.741 297.869 150.737L298.743 150.251L299.617 149.766C299.324 149.239 299.108 148.209 299.108 146.506H298.108ZM298.743 150.251L297.875 150.748C298.504 151.849 299.566 152.362 300.838 152.362V151.362V150.362C300.162 150.362 299.828 150.135 299.611 149.755L298.743 150.251ZM319.024 161.138H318.024V162.138H319.024V161.138ZM319.024 105.278V104.278H318.024V105.278H319.024ZM330.513 105.278L331.495 105.09L331.339 104.278H330.513V105.278ZM335.654 132.034L334.672 132.222L336.654 132.034H335.654ZM335.654 105.278V104.278H334.654V105.278H335.654ZM346.445 105.278H347.445V104.278H346.445V105.278ZM346.445 161.138V162.138H347.445V161.138H346.445ZM335.527 161.138L334.547 161.334L334.708 162.138H335.527V161.138ZM329.942 133.208L330.922 133.012L328.942 133.208H329.942ZM329.942 161.138V162.138H330.942V161.138H329.942ZM319.024 161.138H320.024V105.278H319.024H318.024V161.138H319.024ZM319.024 105.278V106.278H330.513V105.278V104.278H319.024V105.278ZM330.513 105.278L329.531 105.467L334.672 132.222L335.654 132.034L336.636 131.845L331.495 105.09L330.513 105.278ZM335.654 132.034H336.654V105.278H335.654H334.654V132.034H335.654ZM335.654 105.278V106.278H346.445V105.278V104.278H335.654V105.278ZM346.445 105.278H345.445V161.138H346.445H347.445V105.278H346.445ZM346.445 161.138V160.138H335.527V161.138V162.138H346.445V161.138ZM335.527 161.138L336.508 160.942L330.922 133.012L329.942 133.208L328.961 133.404L334.547 161.334L335.527 161.138ZM329.942 133.208H328.942V161.138H329.942H330.942V133.208H329.942ZM329.942 161.138V160.138H319.024V161.138V162.138H329.942V161.138ZM354.475 157.615L353.72 158.27L353.725 158.276L354.475 157.615ZM354.443 108.484L353.718 107.796L353.715 107.799L354.443 108.484ZM374.978 108.484L374.25 109.169L374.253 109.172L374.978 108.484ZM374.946 157.615L374.194 156.956L374.193 156.957L374.946 157.615ZM362.727 150.251L361.853 150.737L361.859 150.748L362.727 150.251ZM364.727 161.646V160.646C360.473 160.646 357.36 159.374 355.225 156.953L354.475 157.615L353.725 158.276C356.33 161.23 360.051 162.646 364.727 162.646V161.646ZM354.475 157.615L355.231 156.96C353.095 154.497 351.952 150.862 351.952 145.903H350.952H349.952C349.952 151.143 351.158 155.316 353.72 158.27L354.475 157.615ZM350.952 145.903H351.952V119.37H350.952H349.952V145.903H350.952ZM350.952 119.37H351.952C351.952 114.739 353.079 111.395 355.172 109.169L354.443 108.484L353.715 107.799C351.153 110.524 349.952 114.438 349.952 119.37H350.952ZM354.443 108.484L355.169 109.172C357.274 106.954 360.402 105.771 364.727 105.771V104.771V103.771C360.037 103.771 356.311 105.063 353.718 107.796L354.443 108.484ZM364.727 104.771V105.771C369.052 105.771 372.167 106.954 374.25 109.169L374.978 108.484L375.707 107.799C373.134 105.063 369.415 103.771 364.727 103.771V104.771ZM374.978 108.484L374.253 109.172C376.365 111.398 377.501 114.741 377.501 119.37H378.501H379.501C379.501 114.436 378.289 110.521 375.704 107.796L374.978 108.484ZM378.501 119.37H377.501V145.903H378.501H379.501V119.37H378.501ZM378.501 145.903H377.501C377.501 150.86 376.349 154.494 374.194 156.956L374.946 157.615L375.699 158.273C378.284 155.319 379.501 151.145 379.501 145.903H378.501ZM374.946 157.615L374.193 156.957C372.081 159.374 368.981 160.646 364.727 160.646V161.646V162.646C369.402 162.646 373.115 161.23 375.699 158.273L374.946 157.615ZM364.822 151.362V152.362C365.414 152.362 365.977 152.217 366.475 151.895C366.969 151.576 367.341 151.122 367.615 150.591C368.148 149.558 368.361 148.136 368.361 146.443H367.361H366.361C366.361 148.029 366.151 149.067 365.838 149.674C365.688 149.963 365.532 150.123 365.39 150.215C365.253 150.303 365.076 150.362 364.822 150.362V151.362ZM367.361 146.443H368.361V119.18H367.361H366.361V146.443H367.361ZM367.361 119.18H368.361C368.361 117.737 368.15 116.489 367.6 115.571C367 114.571 366.049 114.054 364.885 114.054V115.054V116.054C365.372 116.054 365.659 116.224 365.885 116.6C366.159 117.057 366.361 117.872 366.361 119.18H367.361ZM364.885 115.054V114.054C363.66 114.054 362.629 114.541 361.957 115.557C361.332 116.501 361.092 117.789 361.092 119.275H362.092H363.092C363.092 117.946 363.318 117.124 363.625 116.661C363.883 116.27 364.249 116.054 364.885 116.054V115.054ZM362.092 119.275H361.092V146.506H362.092H363.092V119.275H362.092ZM362.092 146.506H361.092C361.092 148.274 361.3 149.741 361.853 150.737L362.727 150.251L363.601 149.766C363.308 149.239 363.092 148.209 363.092 146.506H362.092ZM362.727 150.251L361.859 150.748C362.488 151.849 363.551 152.362 364.822 152.362V151.362V150.362C364.147 150.362 363.812 150.135 363.595 149.755L362.727 150.251ZM271.035 259.138L270.043 259.26L270.151 260.138H271.035V259.138ZM264.148 203.247V202.247H263.017L263.156 203.369L264.148 203.247ZM274.78 203.247L275.775 203.14L275.678 202.247H274.78V203.247ZM278.875 241.269L277.88 241.376L279.87 241.365L278.875 241.269ZM282.525 203.247V202.247H281.616L281.529 203.151L282.525 203.247ZM293.157 203.247L294.149 203.369L294.288 202.247H293.157V203.247ZM286.27 259.138V260.138H287.154L287.262 259.26L286.27 259.138ZM271.035 259.138L272.028 259.015L265.141 203.124L264.148 203.247L263.156 203.369L270.043 259.26L271.035 259.138ZM264.148 203.247V204.247H274.78V203.247V202.247H264.148V203.247ZM274.78 203.247L273.786 203.354L277.88 241.376L278.875 241.269L279.869 241.162L275.775 203.14L274.78 203.247ZM278.875 241.269L279.87 241.365L283.52 203.342L282.525 203.247L281.529 203.151L277.879 241.173L278.875 241.269ZM282.525 203.247V204.247H293.157V203.247V202.247H282.525V203.247ZM293.157 203.247L292.164 203.124L285.277 259.015L286.27 259.138L287.262 259.26L294.149 203.369L293.157 203.247ZM286.27 259.138V258.138H271.035V259.138V260.138H286.27V259.138ZM295.918 259.138H294.918V260.138H295.918V259.138ZM295.918 203.278V202.278H294.918V203.278H295.918ZM306.709 203.278H307.709V202.278H306.709V203.278ZM306.709 259.138V260.138H307.709V259.138H306.709ZM295.918 259.138H296.918V203.278H295.918H294.918V259.138H295.918ZM295.918 203.278V204.278H306.709V203.278V202.278H295.918V203.278ZM306.709 203.278H305.709V259.138H306.709H307.709V203.278H306.709ZM306.709 259.138V258.138H295.918V259.138V260.138H306.709V259.138ZM311.152 259.138H310.152V260.138H311.152V259.138ZM311.152 203.278V202.278H310.152V203.278H311.152ZM333.242 205.341L332.635 206.136L332.639 206.139L333.242 205.341ZM337.337 229.145L338.304 229.399L338.304 229.397L337.337 229.145ZM333.814 234.953L333.183 234.177L333.178 234.181L333.814 234.953ZM322.134 237.016V236.016H321.134V237.016H322.134ZM322.134 259.138V260.138H323.134V259.138H322.134ZM322.134 226.987H321.134V227.987H322.134V226.987ZM326.577 215.212L325.643 215.569L325.647 215.579L325.651 215.589L326.577 215.212ZM322.134 213.466V212.466H321.134V213.466H322.134ZM311.152 259.138H312.152V203.278H311.152H310.152V259.138H311.152ZM311.152 203.278V204.278H325.911V203.278V202.278H311.152V203.278ZM325.911 203.278V204.278C328.859 204.278 331.065 204.935 332.635 206.136L333.242 205.341L333.85 204.547C331.823 202.997 329.141 202.278 325.911 202.278V203.278ZM333.242 205.341L332.639 206.139C334.265 207.368 335.459 209.135 336.191 211.508L337.146 211.213L338.102 210.918C337.268 208.213 335.859 206.065 333.845 204.544L333.242 205.341ZM337.146 211.213L336.191 211.508C336.936 213.926 337.32 216.847 337.32 220.29H338.32H339.32C339.32 216.708 338.922 213.578 338.102 210.918L337.146 211.213ZM338.32 220.29H337.32C337.32 223.614 336.998 226.478 336.369 228.893L337.337 229.145L338.304 229.397C338.987 226.777 339.32 223.737 339.32 220.29H338.32ZM337.337 229.145L336.369 228.891C335.757 231.221 334.682 232.959 333.183 234.177L333.814 234.953L334.444 235.729C336.33 234.197 337.604 232.062 338.304 229.399L337.337 229.145ZM333.814 234.953L333.178 234.181C331.749 235.357 329.627 236.016 326.672 236.016V237.016V238.016C329.896 238.016 332.536 237.3 334.449 235.725L333.814 234.953ZM326.672 237.016V236.016H322.134V237.016V238.016H326.672V237.016ZM322.134 237.016H321.134V259.138H322.134H323.134V237.016H322.134ZM322.134 259.138V258.138H311.152V259.138V260.138H322.134V259.138ZM322.134 226.987V227.987H322.769V226.987V225.987H322.134V226.987ZM322.769 226.987V227.987C324.954 227.987 326.802 227.372 327.506 225.613L326.577 225.241L325.649 224.87C325.422 225.438 324.731 225.987 322.769 225.987V226.987ZM326.577 225.241L327.506 225.613C328.042 224.271 328.276 222.405 328.276 220.1H327.276H326.276C326.276 222.322 326.043 223.884 325.649 224.87L326.577 225.241ZM327.276 220.1H328.276C328.276 217.934 328.041 216.153 327.503 214.835L326.577 215.212L325.651 215.589C326.045 216.556 326.276 218.034 326.276 220.1H327.276ZM326.577 215.212L327.511 214.855C327.207 214.057 326.67 213.432 325.921 213.024C325.194 212.628 324.323 212.466 323.372 212.466V213.466V214.466C324.113 214.466 324.623 214.595 324.964 214.781C325.284 214.955 325.504 215.204 325.643 215.569L326.577 215.212ZM323.372 213.466V212.466H322.134V213.466V214.466H323.372V213.466ZM322.134 213.466H321.134V226.987H322.134H323.134V213.466H322.134Z" fill="black" mask="url(#path-3-outside-1_255_14)"/>
<rect x="0.589081" y="57.6487" width="288.253" height="48.0642" rx="24.0321" transform="rotate(-11.4171 0.589081 57.6487)" fill="#49BEAD" stroke="black"/>
<path d="M49.6576 83.3366L45.5007 62.7521L52.7052 61.2972L59.8859 78.5165L60.4152 78.4096L60.3509 59.7532L67.5554 58.2983L71.7124 78.8827L67.9484 79.6428L64.3675 61.9108L63.8381 62.0177L63.8903 80.4623L57.4797 81.7569L50.37 64.7375L49.8407 64.8444L53.4216 82.5765L49.6576 83.3366ZM83.6121 76.9081C81.9261 77.2486 80.414 77.2377 79.0758 76.8754C77.7533 76.4896 76.6537 75.7934 75.7772 74.787C74.9163 73.7571 74.3274 72.4579 74.0107 70.8896L71.3146 57.5391L75.1963 56.7552L77.9161 70.2233C78.1695 71.478 78.7223 72.3968 79.5745 72.9796C80.4464 73.5585 81.5586 73.7113 82.9113 73.4381C84.264 73.165 85.22 72.5944 85.7793 71.7266C86.3581 70.8547 86.5209 69.7915 86.2675 68.5368L83.5477 55.0687L87.4293 54.2848L90.1254 67.6353C90.4421 69.2036 90.3938 70.6314 89.9804 71.9187C89.5827 73.1825 88.8395 74.2507 87.7507 75.1235C86.6776 75.9728 85.298 76.5676 83.6121 76.9081ZM100.64 73.0409L99.2086 65.954L89.4841 53.8698L93.8068 52.9969L99.9405 60.9399L100.47 60.833L103.04 51.1322L107.363 50.2592L103.09 65.1701L104.521 72.257L100.64 73.0409ZM120.876 68.9543L116.719 48.3698L120.601 47.5859L124.045 64.6416L133.455 62.7413L134.168 66.2701L120.876 68.9543ZM136.814 65.7356L132.657 45.1512L136.539 44.3673L140.696 64.9518L136.814 65.7356ZM144.568 64.1698L140.411 43.5854L147.615 42.1304L154.796 59.3498L155.325 59.2429L155.261 40.5864L162.466 39.1315L166.623 59.7159L162.859 60.4761L159.278 42.744L158.748 42.8509L158.8 61.2956L152.39 62.5902L145.28 45.5708L144.751 45.6777L148.332 63.4097L144.568 64.1698ZM170.499 58.933L166.342 38.3486L170.224 37.5647L174.381 58.1492L170.499 58.933ZM183.017 56.4052L179.573 39.3495L173.574 40.5609L172.861 37.0322L188.74 33.8254L189.453 37.3541L183.454 38.5656L186.898 55.6213L183.017 56.4052ZM192.234 54.5438L193.488 32.8667L200.251 31.5008L209.819 50.9926L205.82 51.8002L203.788 47.4973L196.436 48.9819L196.233 53.7362L192.234 54.5438ZM196.623 45.2103L202.152 44.0938L197.627 34.571L197.098 34.6779L196.623 45.2103ZM211.695 50.6138L211.006 47.2027L213.711 46.6563L210.932 32.8941L208.227 33.4405L207.538 30.0293L216.007 28.319C218.771 27.7608 221.011 28.043 222.727 29.1655C224.459 30.2644 225.604 32.196 226.162 34.9602L226.946 38.8418C227.504 41.606 227.201 43.8403 226.035 45.5448C224.885 47.2257 222.928 48.3453 220.164 48.9035L211.695 50.6138ZM217.569 45.7548L219.51 45.3629C221.078 45.0461 222.142 44.4028 222.701 43.433C223.26 42.4631 223.389 41.2332 223.088 39.7433L222.257 35.6264C221.952 34.1169 221.356 33.0335 220.468 32.3762C219.577 31.6993 218.347 31.5192 216.778 31.8359L214.837 32.2279L217.569 45.7548ZM239.95 45.3363C237.362 45.8589 235.161 45.5688 233.347 44.4661C231.529 43.3438 230.352 41.4594 229.818 38.8128L228.82 33.8725C228.286 31.226 228.64 29.0425 229.885 27.3222C231.125 25.5823 233.039 24.4511 235.626 23.9285C238.214 23.4059 240.417 23.7057 242.235 24.828C244.049 25.9307 245.224 27.8054 245.758 30.452L246.756 35.3922C247.29 38.0388 246.937 40.232 245.697 41.972C244.453 43.6923 242.537 44.8137 239.95 45.3363ZM239.249 41.8663C240.7 41.5734 241.742 40.9242 242.375 39.9189C243.009 38.9136 243.183 37.7052 242.898 36.2937L241.853 31.1182C241.568 29.7067 240.938 28.6606 239.964 27.98C238.99 27.2993 237.778 27.1054 236.327 27.3984C234.896 27.6874 233.854 28.3366 233.201 29.3458C232.567 30.3511 232.393 31.5595 232.678 32.971L233.723 38.1465C234.008 39.5581 234.638 40.6041 235.612 41.2848C236.605 41.9615 237.818 42.1554 239.249 41.8663Z" fill="white"/>
<defs>
<filter id="filter0_d_255_14" x="56.8395" y="65.6377" width="491.696" height="242.407" filterUnits="userSpaceOnUse" color-interpolation-filters="sRGB">
<feFlood flood-opacity="0" result="BackgroundImageFix"/>
<feColorMatrix in="SourceAlpha" type="matrix" values="0 0 0 0 0 0 0 0 0 0 0 0 0 0 0 0 0 0 127 0" result="hardAlpha"/>
<feOffset dy="4"/>
<feGaussianBlur stdDeviation="2"/>
<feComposite in2="hardAlpha" operator="out"/>
<feColorMatrix type="matrix" values="0 0 0 0 0 0 0 0 0 0 0 0 0 0 0 0 0 0 0.65 0"/>
<feBlend mode="normal" in2="BackgroundImageFix" result="effect1_dropShadow_255_14"/>
<feBlend mode="normal" in="SourceGraphic" in2="effect1_dropShadow_255_14" result="shape"/>
</filter>
</defs>
</svg>
