<svg width="267" height="292" viewBox="0 0 267 292" fill="none" xmlns="http://www.w3.org/2000/svg">
<path d="M105.825 18.2086C105.825 8.13697 113.962 0 124.034 0H142.242C152.314 0 160.451 8.13697 160.451 18.2086V98.3833L229.871 58.3244C238.577 53.317 249.73 56.2759 254.737 64.9819L263.842 80.7437C268.849 89.4497 265.89 100.602 257.184 105.61L187.764 145.669L257.184 185.728C265.89 190.735 268.906 201.888 263.842 210.594L254.737 226.356C249.73 235.062 238.577 238.077 229.871 233.013L160.451 192.954V273.129C160.451 283.201 152.314 291.338 142.242 291.338H124.034C113.962 291.338 105.825 283.201 105.825 273.129V192.954L36.4049 233.013C27.6989 238.02 16.5461 235.062 11.5388 226.356L2.43447 210.594C-2.57289 201.888 0.386003 190.735 9.09199 185.728L78.5123 145.669L9.09199 105.61C0.386003 100.602 -2.57289 89.4497 2.43447 80.7437L11.5388 64.9819C16.5461 56.2759 27.6989 53.317 36.4049 58.3244L105.825 98.3833V18.2086Z" fill="white"/>
</svg>
