<svg width="276" height="324" viewBox="0 0 276 324" fill="none" xmlns="http://www.w3.org/2000/svg">
<path d="M210.501 126.639L185.047 135.165L169.624 90.6166C160.032 62.9106 130.076 47.79 102.847 56.9103C75.618 66.0305 61.2688 95.991 70.8606 123.697L86.2831 168.245L60.8287 176.771L45.4062 132.223C30.8702 90.2353 52.6157 44.8316 93.8806 31.0102C135.145 17.1887 180.543 40.1033 195.078 82.0908L210.501 126.639Z" fill="#D3D3D3"/>
<path d="M195.107 81.9438L210.502 126.406L185.093 134.916L178.518 115.925C182.121 106.573 189.139 78.6747 158.028 53.596C125.819 27.6373 88.992 38.7613 60.6231 53.2683C69.3237 43.295 80.6764 35.4541 94.0912 30.9615C135.28 17.1671 180.598 40.0381 195.107 81.9438Z" fill="#BCBCBC"/>
<path d="M102.416 57.2549C75.2845 66.344 60.985 96.2052 70.5422 123.817L85.91 168.215L66.9331 174.572L63.7261 165.307C83.3635 158.729 27.687 82.2895 102.416 57.2549Z" fill="#BCBCBC"/>
<path d="M262.707 265.299L104.232 318.377C97.956 320.479 91.0763 317.007 88.8654 310.621L44.6954 183.039C42.4845 176.654 45.78 169.773 52.0562 167.671L210.532 114.592C216.808 112.49 223.688 115.963 225.899 122.349L270.069 249.93C272.279 256.316 268.984 263.196 262.707 265.299Z" fill="#F67449"/>
<path d="M225.752 121.924L270.217 250.356C272.345 256.504 269.168 263.136 263.126 265.16L103.814 318.519C97.7714 320.543 91.1399 317.196 89.0115 311.048L82.9441 293.523C87.5412 297.875 96.5257 303.82 108.643 299.762L199.941 269.183C220.252 262.38 230.915 240.115 223.761 219.45L208.827 176.315C199.384 149.039 170.296 132.308 142.94 137.231L210.949 114.453C216.992 112.429 223.622 115.771 225.752 121.924Z" fill="#E2501F"/>
<path d="M183.798 234.043C186.403 238.958 184.093 244.967 178.937 246.694L159.043 253.36C153.887 255.088 148.33 251.715 147.346 246.257L143.921 227.237C138.23 224.526 133.561 219.583 131.325 213.122C126.985 200.583 133.455 187.07 145.774 182.942C158.093 178.815 171.599 185.634 175.938 198.174C178.174 204.635 177.541 211.354 174.714 216.92L183.798 234.043Z" fill="#C8481D"/>
<path d="M71.0678 177.29L54.3281 182.93L81.9094 263.067L98.6491 257.427L71.0678 177.29Z" fill="#FFE3DA"/>
<path d="M101.344 265.517L84.3721 271.202L89.0007 284.572L105.973 278.887L101.344 265.517Z" fill="#FFE3DA"/>
<path d="M140.915 214.456C143.146 220.908 147.805 225.847 153.491 228.555L156.911 247.556C157.313 249.79 158.481 251.675 160.074 252.997L158.98 253.364C153.837 255.088 148.288 251.722 147.307 246.267L143.887 227.266C138.201 224.558 133.544 219.624 131.31 213.167C126.978 200.639 133.436 187.141 145.735 183.017C150.851 181.302 156.171 181.479 160.954 183.173C159.078 183.313 157.195 183.684 155.339 184.306C143.04 188.431 136.582 201.929 140.915 214.456Z" fill="#8D3619"/>
<path d="M56.7859 120.923C54.3302 106.824 53.6193 83.3899 69.4043 64.0529L63.8277 58.4896C63.8277 58.4896 40.4335 82.7658 48.8798 123.572L56.7859 120.923Z" fill="white"/>
<path d="M49.7846 129.211C50.3846 131.42 51.0783 133.673 51.8731 135.969L59.5356 133.402C59.5356 133.402 58.5821 130.873 57.5494 126.61L49.7846 129.211Z" fill="white"/>
<path d="M81.7338 155.143L70.0633 121.443C60.8842 94.9369 75.5579 65.9556 102.772 56.8429C129.987 47.7303 159.598 61.8825 168.777 88.3892L180.448 122.09" stroke="#161721" stroke-width="7" stroke-miterlimit="10" stroke-linecap="round" stroke-linejoin="round"/>
<path d="M56.7379 164.962L44.816 130.528C30.6054 89.484 52.6285 44.8417 93.907 31.0168C135.186 17.192 180.333 39.338 194.543 80.382L206.465 114.816" stroke="#161721" stroke-width="7" stroke-miterlimit="10" stroke-linecap="round" stroke-linejoin="round"/>
<path d="M262.708 265.316L104.249 318.378C97.973 320.479 91.0932 317.006 88.8816 310.619L44.6963 183.021C42.4847 176.635 45.779 169.754 52.0546 167.653L210.515 114.591C216.79 112.489 223.67 115.963 225.882 122.35L270.067 249.947C272.278 256.334 268.984 263.215 262.708 265.316Z" stroke="#161721" stroke-width="7" stroke-miterlimit="10" stroke-linecap="round" stroke-linejoin="round"/>
<path d="M183.797 234.048C186.403 238.963 184.093 244.971 178.938 246.698L159.048 253.362C153.892 255.089 148.335 251.715 147.351 246.257L143.924 227.236C138.233 224.524 133.563 219.58 131.327 213.119C126.986 200.578 133.453 187.066 145.77 182.94C158.087 178.813 171.592 185.635 175.933 198.175C178.17 204.637 177.537 211.357 174.712 216.922L183.797 234.048Z" stroke="#161721" stroke-width="7" stroke-miterlimit="10" stroke-linecap="round" stroke-linejoin="round"/>
</svg>
