<svg width="314" height="208" viewBox="0 0 314 208" fill="none" xmlns="http://www.w3.org/2000/svg">
<path d="M147.689 197.079C149.636 194.289 149.077 191.501 149.077 191.501L154.06 148.273L182.185 164.709L248.985 155.185L259.837 148.764C259.837 148.764 260.387 139.003 259.271 135.1C258.156 131.197 252.863 125.065 252.863 125.065L214.157 103.338C214.157 103.338 208.865 99.4374 205.526 99.9974C202.185 100.557 201.629 101.673 201.629 101.673L190.769 95.2658L193.273 92.4759L229.463 97.7514L233.645 108.345C233.645 108.345 282.638 111.103 290.431 109.983C290.431 109.983 312.124 79.5728 312.4 74.5532C312.675 69.5335 310.446 67.3036 310.446 67.3036C310.446 67.3036 311.556 61.1685 309.048 57.5445C306.541 53.9213 300.972 51.1357 300.972 51.1357L240.563 43.9236L236.394 54.5228L215.515 50.9113L224.399 14.0953C224.399 14.0953 224.395 7.1235 217.992 6.29111C211.59 5.45872 197.67 3.51482 185.703 7.42695C173.736 11.3387 163.438 13.5756 161.492 16.087C159.544 18.598 158.156 23.8973 158.156 23.8973C158.156 23.8973 156.488 27.524 153.7 21.6698C150.913 15.8156 145.06 3.82797 130.029 3.27958C114.997 2.73119 92.4543 10.2752 87.4471 15.5764C82.4405 20.878 82.1625 21.7151 82.1625 21.7151C82.1625 21.7151 75.1994 15.0262 70.4682 17.539C65.7378 20.0517 47.0968 33.7286 47.0968 33.7286L5.64025 63.593L1.22642 127.456L5.12939 135.82C5.12939 135.82 7.3624 146.137 15.1578 148.363C22.9532 150.589 37.4253 146.397 37.4253 146.397L90.5669 107.322L90.8497 114.014C90.8497 114.014 86.6768 118.479 85.5659 121.547C84.4542 124.616 79.1868 158.083 78.3589 169.517C77.531 180.95 79.4829 186.527 79.4829 186.527C79.4829 186.527 123.752 201.279 126.258 202.392C128.764 203.506 134.333 205.734 134.333 205.734C134.333 205.734 145.741 199.868 147.689 197.079ZM185.025 55.3775C177.771 57.9109 174.619 61.7053 174.619 61.7053L169.886 62.2352C169.886 62.2352 170.622 60.5489 171.04 58.2312C171.459 55.9134 169.355 53.5969 169.355 53.5969L185.444 51.9004L185.025 55.3775ZM94.4521 69.3087L94.164 60.3779L94.2905 36.7034C94.2905 36.7034 111.972 26.4851 117.066 24.7809C122.159 23.0764 127.251 19.9541 130.933 24.2047C134.615 28.4553 136.315 32.5658 135.469 37.2443L133.914 39.2304C133.914 39.2304 132.64 39.0893 124.573 36.2587C116.505 33.429 107.172 44.4923 105.052 46.762C102.93 49.0312 96.0104 70.868 96.0104 70.868L94.4521 69.3087ZM201.821 71.6767C207.236 68.1891 223.35 71.5936 226.922 71.8759C227.774 71.9431 228.911 72.0816 229.929 72.4194C231.223 71.6356 233.267 72.8455 232.388 74.4667C232.353 74.5319 232.332 74.5914 232.297 74.6556C232.367 75.0497 232.376 75.4808 232.238 75.997C232.053 76.6921 231.614 77.0874 231.101 77.3835C230.91 77.9234 230.714 78.4504 230.57 79.0657C230.411 79.741 229.845 80.4817 229.073 80.4804C225.091 80.4705 204.743 81.4746 200.729 76.521C200.231 76.2609 199.769 75.9167 199.409 75.3534C198.96 74.6487 199.029 73.9679 199.457 73.2748C200.043 72.3263 200.865 71.8752 201.821 71.6767ZM111.319 112.82C110.895 112.82 109.331 101.197 109.611 95.6673C109.89 90.1388 110.594 85.4595 110.594 85.4595L130.398 73.6807C130.398 73.6807 132.81 84.4529 131.962 86.5803C131.115 88.7069 127.154 90.2693 127.154 90.2693C127.154 90.2693 121.213 94.5251 119.517 97.6456C117.821 100.765 116.691 104.026 117.118 108.421C117.545 112.815 119.811 115.932 119.811 115.932C119.811 115.932 111.744 112.819 111.319 112.82ZM151.105 122.756C152.523 119.725 153.373 116.488 153.475 113.138C153.515 111.834 155.337 111.333 156.219 112.092C159.466 114.884 163.304 115.955 167.501 115.061C168.791 114.786 169.41 115.909 169.246 116.943C169.91 117.927 169.637 119.518 168.137 119.56C165.563 119.63 163.115 120.381 160.622 120.959C160.386 121.014 160.18 121.006 159.989 120.974C157.727 121.971 155.537 123.07 153.659 124.826C152.374 126.027 150.427 124.202 151.105 122.756Z" fill="#F67449"/>
<path d="M34.2078 148.005L62.7677 127.482L91.3276 106.959L94.2168 74.9413L94.0668 38.9786C94.0668 38.9786 88.7153 17.8709 74.4298 17.8799C74.4298 17.8799 67.563 18.2797 52.6367 29.5712C37.7107 40.8627 5.64019 63.592 5.64019 63.592C5.64019 63.592 -1.71437 131.107 4.25555 136.757C4.25555 136.757 16.3563 155.668 34.2078 148.005ZM4.96739 137.43C5.39967 137.839 5.81597 138.234 6.08129 138.484C5.71329 138.136 5.32029 137.765 4.96739 137.43Z" fill="#49BEAD"/>
<path d="M149.611 13.2634C127.117 -13.5954 87.0707 17.7004 87.0707 17.7004L84.1663 20.2198C84.1663 20.2198 68.2681 30.0287 79.2662 39.8345C79.2662 39.8345 81.713 43.9267 91.3188 38.7093C100.925 33.4905 126.81 15.7208 133.821 27.4443C140.832 39.166 125.041 50.74 125.041 50.74C125.041 50.74 110.393 66.5486 109.754 86.4192C109.754 86.4192 180.94 50.6753 149.611 13.2634Z" fill="#49BEAD"/>
<path d="M131.653 104.412C131.653 104.412 150.574 98.3497 157.476 104.093C157.476 104.093 178.549 95.2656 172.412 86.0716C172.412 86.0716 137.53 76.1293 123.742 92.6177C109.956 109.107 121.736 118.997 121.736 118.997L128.335 122.098L131.653 104.412Z" fill="#F39CB1"/>
<path d="M259.837 148.763C259.837 148.763 263.958 133.204 254.497 126.709C242.513 118.481 215.67 103.681 215.67 103.681C215.67 103.681 206.704 97.7769 202.222 100.242L196.95 98.7687L190.92 95.2236L178.176 110.979L180.94 112.391L149.941 126.323L147.529 130.928L154.602 136.07L154.06 148.273L182.185 164.709C182.185 164.709 258.313 157.091 259.837 148.763ZM200.765 101.044C200.239 101.334 199.991 101.47 200.765 101.044V101.044Z" fill="#F39CB1"/>
<path d="M169.976 62.4566L173.208 63.3315C176.152 58.7215 185.025 55.3766 185.025 55.3766L202.644 51.8243L215.27 52.5799C215.27 52.5799 221.672 34.3819 224.573 14.8517C227.474 -4.68062 177.943 10.1692 167.613 13.7509C157.282 17.3347 154.637 26.5528 154.637 26.5528C162.324 36.5576 149.817 53.6854 149.817 53.6854L150.155 57.8748L154.542 82.908L163.46 84.426L169.976 62.4566Z" fill="#F39CB1"/>
<path d="M154.74 102.368C154.74 102.368 153.315 101.456 152.077 100.665C152.742 101.091 153.597 101.637 154.74 102.368Z" fill="#0FA48E"/>
<path d="M152.077 100.665C151.776 100.471 151.531 100.315 151.314 100.176C151.552 100.328 151.804 100.49 152.077 100.665Z" fill="#0FA48E"/>
<path d="M151.314 100.176C149.743 99.1708 150.247 99.4925 151.314 100.176V100.176Z" fill="#0FA48E"/>
<path d="M192.175 92.5639C192.219 92.4647 193.382 92.8024 193.382 92.8024L200.107 71.4414L199.948 71.2841C199.948 71.2841 184.443 62.153 177.697 78.054C170.952 93.9549 164.755 108.777 154.74 102.368L153.584 113.463C153.584 113.463 177.935 124.793 192.175 92.5639Z" fill="#49BEAD"/>
<path d="M2.16294 113.952C3.36941 105.874 3.74119 97.5976 4.4706 89.4627C5.17423 81.6143 6.10213 73.6906 6.28558 65.806C6.54484 65.9094 6.84373 65.89 7.14946 65.6757C17.7732 58.2339 28.0405 50.2192 38.439 42.4662C43.5367 38.6655 48.6382 34.8691 53.7325 31.0641C56.3947 29.0748 59.0332 27.0537 61.68 25.0433C64.1184 23.1923 66.8053 21.4205 68.8878 19.1659C69.0891 18.9476 68.9139 18.5213 68.5965 18.6675C65.6553 20.0222 63.0221 22.2178 60.3882 24.083C57.807 25.911 55.2189 27.7291 52.6541 29.5795C47.4041 33.3684 42.155 37.1565 36.9055 40.9445C26.5496 48.4174 15.997 55.6993 5.86504 63.4737C5.45928 63.7851 5.3814 64.3168 5.50623 64.8005C5.49632 64.8293 5.48254 64.8535 5.47651 64.8862C4.05653 72.9435 3.45355 81.2035 2.62451 89.3386C1.79589 97.4642 0.587313 105.663 0.239637 113.822C0.179338 115.229 1.95986 115.313 2.16294 113.952Z" fill="#1D1D1D"/>
<path d="M69.3718 63.8254C69.7745 56.4489 69.7397 49.0322 69.8722 41.6463C69.9999 34.5234 70.4928 27.2537 70.0514 20.1416C70.017 19.5851 69.2764 19.7251 69.2202 20.2124C68.3942 27.3727 68.5135 34.75 68.2692 41.9508C68.0236 49.195 67.604 56.4599 67.6183 63.7084C67.6209 64.954 69.302 65.1034 69.3718 63.8254Z" fill="#1D1D1D"/>
<path d="M69.3972 89.1046C69.5984 86.2852 69.2974 83.3859 69.1629 80.5662C69.0379 77.9469 68.9445 75.3249 68.6709 72.7162C68.6236 72.261 68.0031 72.3505 67.9743 72.7756C67.7826 75.6075 67.7936 78.4478 67.7613 81.2838C67.7312 83.9184 67.5757 86.6136 67.8606 89.2361C67.9694 90.2409 69.3306 90.0424 69.3972 89.1046Z" fill="#1D1D1D"/>
<path d="M67.4159 93.574C67.9182 93.1931 67.631 92.1397 66.9588 92.5132C56.7307 98.1924 47.021 105.017 37.1985 111.366C28.0442 117.284 18.7657 123.055 9.71415 129.133C9.43985 129.058 9.12681 129.118 8.81772 129.401C8.33015 129.848 7.84217 130.294 7.3546 130.741C6.48854 131.535 7.34267 133.501 8.53131 132.757C18.5031 126.508 28.2254 119.819 38.0479 113.338C47.8591 106.863 58.0443 100.676 67.4159 93.574Z" fill="#1D1D1D"/>
<path d="M4.28751 131.855C3.47887 130.773 2.66727 129.827 2.36859 128.468C2.06688 127.089 2.35814 125.859 2.74689 124.535C2.88093 124.077 2.31408 123.379 1.90389 123.891C-0.148364 126.447 0.283275 131.489 3.10095 133.372C4.05312 134.009 4.88416 132.653 4.28751 131.855Z" fill="#1D1D1D"/>
<path d="M28.722 147.954C23.7972 148.781 19.5113 148.854 14.9493 146.479C12.8398 145.381 10.8616 143.841 9.31373 142.033C7.81759 140.286 6.97678 138.177 5.63542 136.34C5.41452 136.037 5.01359 136.277 4.98912 136.593C4.59169 141.739 9.65218 146.626 13.7191 148.948C18.2009 151.506 24.6323 152.855 29.4422 150.392C30.6106 149.794 30.0841 147.725 28.722 147.954Z" fill="#1D1D1D"/>
<path d="M86.6794 111.63C87.5696 110.792 86.7366 108.938 85.4858 109.586C80.9975 111.91 76.9309 115.494 72.8317 118.449C68.636 121.472 64.4588 124.525 60.304 127.606C52.1726 133.633 44.0308 139.669 36.018 145.852C35.7335 146.071 36.0265 146.678 36.3693 146.454C44.9502 140.831 53.4293 135.029 61.8959 129.234C66.0275 126.406 70.1383 123.545 74.2315 120.664C78.3574 117.759 83.0022 115.093 86.6794 111.63Z" fill="#1D1D1D"/>
<path d="M93.1717 75.5072C93.2906 75.429 93.4142 75.3546 93.5353 75.2777C93.6183 73.1051 93.7023 70.9321 93.778 68.7586C93.9766 63.0774 94.1613 57.3957 94.3157 51.7124C94.4646 46.2429 95.1387 40.3996 94.4618 34.962C94.421 34.634 93.9333 34.5831 93.8595 34.9217C92.7006 40.2743 92.8333 46.1335 92.4868 51.5899C92.1265 57.2598 91.797 62.9318 91.4808 68.6038C91.3249 71.4072 91.1768 74.2098 91.0325 77.0136C91.7189 76.4667 92.4226 75.9508 93.1717 75.5072Z" fill="#1D1D1D"/>
<path d="M112.919 82.7765C112.841 82.905 112.73 83.021 112.572 83.1113C112.122 83.3696 111.676 83.6365 111.235 83.9078C111.262 85.0848 111.203 86.2539 111.091 87.4187C111.294 87.2831 111.497 87.1475 111.7 87.0124C118.139 82.7428 124.674 78.5846 130.929 74.0462C141.668 66.2553 151.799 56.6289 155.508 43.2743C158.617 32.0789 156.778 19.3658 147.808 10.9566C139.161 2.84963 126.218 0.59279 115.226 2.71815C103.213 5.04118 93.1769 12.202 84.1654 20.2747C83.4919 20.7565 82.8202 21.2405 82.1515 21.7287C79.383 18.9195 74.7491 18.006 70.9845 18.082C70.6309 18.0895 70.5828 18.6633 70.9421 18.7019C72.9959 18.9211 74.9894 19.4838 76.8769 20.3218C78.315 20.9603 79.5397 21.8769 80.8455 22.6918C79.8133 23.4671 78.7954 24.2634 77.8081 25.1015C75.8361 26.7746 74.0553 28.9966 74.7261 31.7387C74.9857 32.7999 76.3802 32.4155 76.1935 31.3852C75.8059 29.2405 77.2203 27.6286 78.8121 26.2614C78.8405 26.2429 78.8694 26.2247 78.8979 26.2057C79.4429 25.8008 79.9908 25.3972 80.5354 24.9867C81.2899 24.4178 82.0233 23.8118 82.7653 23.2184C82.8131 23.1791 82.8619 23.1415 82.911 23.1035C83.6125 22.5459 84.3252 22.0059 85.0732 21.521C92.7424 15.3064 100.913 9.65788 110.364 6.64353C120.786 3.31961 133.389 3.90156 142.919 10.4221C152.85 17.218 156.065 29.2853 153.523 40.4504C150.575 53.4007 141.18 62.9074 130.995 70.4613C125.138 74.8061 119.046 78.8163 112.919 82.7765Z" fill="#1D1D1D"/>
<path d="M91.3918 98.2513C89.0682 99.4023 86.5982 100.009 83.7572 99.2604C79.292 98.0837 75.6829 93.7443 75.7925 89.0185C75.8001 88.683 75.3537 88.6489 75.3254 88.987C74.8917 94.159 77.1253 99.0105 82.2881 100.822C85.1511 101.827 87.9141 101.483 90.4741 100.418C90.6108 100.496 90.7652 100.537 90.9347 100.531C91.0957 99.7718 91.2464 99.0115 91.3918 98.2513Z" fill="#1D1D1D"/>
<path d="M125.261 48.8778C125.222 48.9665 125.172 49.0562 125.106 49.1459C123.484 51.3481 121.915 53.5842 120.406 55.8568C121.842 54.8098 123.28 53.764 124.714 52.714C129.048 49.5367 133.616 46.0701 135.867 40.677C137.856 35.9134 138.283 29.2523 134.886 23.4367C134.503 22.7811 134.047 22.5588 133.677 22.6201C130.499 18.5249 125.465 15.7426 120.34 15.7274C119.994 15.7263 119.964 16.2646 120.3 16.3213C124.764 17.0738 128.462 19.1216 131.191 22.201C129.822 21.4975 128.326 21.0298 126.91 20.8066C122.601 20.1265 118.288 21.6171 114.437 23.4273C109.795 25.6087 105.298 28.177 100.954 30.897C96.4395 33.7228 91.8603 36.6873 87.8346 40.1918C87.2996 40.6577 87.8326 41.8341 88.5376 41.3954C96.3561 36.5269 103.883 31.3942 112.101 27.1791C115.722 25.3215 119.531 23.4339 123.65 23.1166C128.131 22.7715 131.533 24.592 134.108 28.1444C134.204 28.2777 134.306 28.3732 134.411 28.4384C135.687 34.5895 133.845 39.988 130.458 43.9129C128.89 45.7288 127.125 47.3559 125.261 48.8778Z" fill="#1D1D1D"/>
<path d="M94.6731 72.8249C94.7325 72.6026 94.8433 72.4311 94.9817 72.2965C95.1178 71.7374 95.2711 71.1813 95.4335 70.626C89.3382 75.1589 83.3198 79.7951 77.5322 84.7043C77.1683 85.0128 77.7173 86.0517 78.183 85.7612C83.649 82.3466 88.966 78.6869 94.2197 74.9364C94.3432 74.2287 94.4879 73.5241 94.6731 72.8249Z" fill="#1D1D1D"/>
<path d="M87.342 39.2696C85.2517 40.4 82.8641 40.7294 80.629 39.7887C78.0795 38.7152 76.898 36.571 75.9018 34.1455C75.7512 33.7795 75.32 33.9709 75.2783 34.2925C74.3713 41.2364 83.0613 44.7733 88.3351 41.5725C89.5613 40.828 88.7588 38.5037 87.342 39.2696Z" fill="#1D1D1D"/>
<path d="M98.92 33.8436C99.5507 33.3636 99.2096 32.075 98.346 32.5124C95.9041 33.7488 93.6632 35.3571 91.3434 36.8025C89.2331 38.1176 87.0452 39.7159 84.5521 40.183C81.9486 40.6706 79.4567 39.6851 77.7738 37.6595C75.9321 35.4422 75.7449 32.8104 75.7741 30.068C75.7778 29.6717 75.3146 29.5507 75.1582 29.9305C73.1454 34.8212 76.1277 40.7694 81.2717 41.9721C84.0105 42.6125 86.5763 41.5764 88.919 40.2154C92.2883 38.2583 95.8226 36.2016 98.92 33.8436Z" fill="#1D1D1D"/>
<path d="M90.851 106.926C91.0101 106.933 91.1697 106.941 91.3284 106.943C92.2509 106.959 92.3638 105.426 91.4382 105.338C82.4547 104.486 75.3441 100.269 69.9464 93.0826C69.6992 92.7532 69.2525 93.1617 69.4187 93.4853C73.1703 100.791 81.3784 106.062 89.5917 106.844C88.9881 107.397 88.4109 107.984 87.7758 108.5C86.4932 109.542 85.0798 110.321 83.6983 111.216C83.1516 111.57 83.3069 112.811 84.096 112.566C86.7208 111.75 89.6418 109.522 90.851 106.926Z" fill="#1D1D1D"/>
<path d="M11.083 101.338C11.3416 97.4245 11.3497 93.4769 11.3961 89.5565C11.4426 85.6498 11.577 81.6693 11.2775 77.7714C11.2741 77.7326 11.2615 77.7037 11.2538 77.6697C11.4656 77.924 11.8112 78.0423 12.2433 77.8369C20.5804 73.8716 28.9559 69.9907 37.2611 65.9582C37.5763 65.8052 37.3802 65.1472 37.0236 65.2956C28.5229 68.8209 20.0895 72.4994 11.6181 76.0936C11.0557 76.3315 10.927 76.9297 11.0915 77.3818C10.8464 77.1832 10.4432 77.3092 10.386 77.7629C9.89399 81.6462 9.82947 85.6309 9.6821 89.5399C9.53473 93.458 9.34638 97.4011 9.41079 101.322C9.43107 102.534 11.0036 102.537 11.083 101.338Z" fill="#1D1D1D"/>
<path d="M10.7177 102.167C16.3159 98.2285 21.4821 93.5398 26.7511 89.1752C29.3893 86.9897 32.0145 84.7891 34.6437 82.5932C37.3456 80.3374 40.434 78.1985 42.8543 75.6351C45.91 79.4987 52.1899 78.8215 55.7713 75.5007C60.1503 71.4408 60.7715 64.9171 58.9267 59.6357C57.2607 54.8679 52.8515 50.4312 47.3287 51.879C41.0448 53.5266 38.4518 60.3 36.8659 65.8473C36.8607 65.8658 36.8603 65.8839 36.8556 65.9028C37.3355 65.6027 37.8223 65.3215 38.313 65.0519C40.1188 66.5107 42.3145 67.7277 44.2785 68.9059C44.3057 68.9218 44.3341 68.9217 44.3617 68.9303C44.0573 68.9919 43.7472 69.1105 43.4303 69.2889C39.4121 70.58 35.502 72.4265 31.6207 74.0292C27.3043 75.8118 22.8546 77.4525 18.631 79.4654C17.3331 79.0399 16.0297 78.6277 14.7254 78.222C13.8675 77.9555 12.475 77.2041 11.5332 77.486C10.8786 77.6818 10.5551 78.6868 11.3828 78.8215C11.5519 78.8488 11.6285 78.5713 11.4461 78.5337C11.5891 78.1643 11.8047 78.1015 12.0912 78.3444C12.4475 78.4963 12.8059 78.6421 13.1678 78.7806C13.7091 78.9929 14.2548 79.1962 14.7987 79.402C15.591 79.7026 16.3877 79.9937 17.1831 80.2874C16.8844 80.7385 17.1434 81.4272 17.8161 81.1883C17.9239 81.1502 18.0308 81.1087 18.1378 81.0693C18.1231 81.0861 18.1076 81.103 18.0934 81.1198C17.961 81.1484 17.8316 81.2525 17.8084 81.3856C17.0828 85.5643 17.5668 90.4189 17.821 94.6477C15.2545 96.8925 12.7341 99.1855 10.3703 101.604C10.1371 101.843 10.3805 102.404 10.7177 102.167ZM39.027 64.6747C39.0852 64.6457 39.1413 64.612 39.1991 64.5835C40.4759 60.6563 42.0697 56.5856 45.9401 54.5401C50.1528 52.3145 54.1033 54.6139 56.2131 58.1857C54.7706 57.3293 52.8863 57.127 51.2157 57.7668C49.415 58.4572 47.966 59.8621 46.9165 61.5656C46.6307 61.9024 46.4186 62.2706 46.3144 62.6623C45.9515 63.4106 45.659 64.1954 45.441 64.9887C45.3346 65.2616 45.2644 65.5386 45.2412 65.816C45.0996 66.5003 45.0149 67.1822 44.9871 67.8456C44.9453 67.9589 44.904 68.0723 44.8622 68.186C43.0124 67.0034 41.0444 65.6512 39.027 64.6747ZM19.2181 92.8333C19.3812 92.9196 19.5628 92.9706 19.7599 92.969C19.5788 93.1252 19.3968 93.2801 19.2157 93.4363C19.2157 93.2378 19.2169 93.0336 19.2181 92.8333Z" fill="#1D1D1D"/>
<path d="M102.249 108.984C99.5284 107.61 97.0601 109.489 95.033 111.34C94.1401 112.155 93.26 112.983 92.3864 113.818C92.389 113.795 92.3946 113.774 92.3959 113.749C93.3471 95.8836 94.8108 78.0201 99.9 60.5387C102.19 52.6732 105.937 43.9679 113.569 39.6129C119.882 36.0099 128.418 35.5626 133.537 40.7287C134.07 41.2667 134.807 40.4447 134.385 39.8992C127.011 30.3759 112.053 35.7003 105.386 44.1368C100.868 49.8547 98.5015 56.8635 96.7658 63.7128C94.857 71.2442 93.3885 78.8758 92.2976 86.5237C91.0186 95.4911 90.0502 104.662 90.199 113.657C90.2114 114.425 90.7529 114.849 91.2951 114.872C89.0374 117.055 86.8035 119.263 84.494 121.389C84.0348 121.812 84.5803 122.646 85.1021 122.182C87.5991 119.958 90.2049 117.85 92.7296 115.657C95.0676 113.626 98.2963 109.555 101.66 110.752C102.73 111.133 103.149 109.438 102.249 108.984Z" fill="#1D1D1D"/>
<path d="M111.349 111.099C111.157 105.689 110.355 100.375 110.57 94.9694C110.8 89.2097 111.651 83.5659 113.074 78.12C115.864 67.4388 120.861 58.2064 126.94 49.4691C127.392 48.8198 126.474 47.7227 125.85 48.3361C118.215 55.8422 113.089 66.1403 110.187 76.8282C107.398 87.1025 105.556 100.138 108.386 111.204C108.873 113.109 111.42 113.1 111.349 111.099Z" fill="#1D1D1D"/>
<path d="M155.34 133.116C138.165 125.002 120.499 117.703 102.938 110.565C102.171 110.253 101.936 111.531 102.61 111.861C119.747 120.248 137.062 128.614 154.602 136.032C156.303 136.751 156.881 133.843 155.34 133.116Z" fill="#1D1D1D"/>
<path d="M99.9646 171.828C100.78 167.12 100.339 162.024 100.492 157.26C100.646 152.403 100.807 147.546 100.995 142.69C101.359 133.32 101.688 123.965 101.791 114.589C101.796 114.173 101.172 114.192 101.14 114.595C100.392 124.268 99.8884 133.942 99.4088 143.631C99.1783 148.282 98.9153 152.93 98.6527 157.579C98.388 162.27 97.522 167.159 97.9183 171.845C98.0318 173.18 99.7501 173.063 99.9646 171.828Z" fill="#1D1D1D"/>
<path d="M147.577 190.851C131.954 186.065 117.002 179.143 101.434 174.159C100.971 174.011 100.708 174.869 101.14 175.056C116.163 181.538 131.995 186.16 146.929 192.827C148.184 193.387 148.88 191.25 147.577 190.851Z" fill="#1D1D1D"/>
<path d="M80.5316 182.742C81.9836 172.638 82.7169 162.374 83.8351 152.225C84.9571 142.042 85.9293 131.85 86.8173 121.645C86.8654 121.091 86.1239 120.909 86.0394 121.488C84.5593 131.593 83.1656 141.705 81.9187 151.842C80.6744 161.962 79.0298 172.107 78.1189 182.259C77.9658 183.977 80.274 184.535 80.5316 182.742Z" fill="#1D1D1D"/>
<path d="M98.1677 174.669C92.5798 177.554 86.6578 179.889 81.242 183.093C80.8428 183.329 81.1057 184.102 81.5869 183.911C87.3877 181.604 92.8064 178.34 98.4579 175.692C99.0188 175.43 98.7579 174.365 98.1677 174.669Z" fill="#1D1D1D"/>
<path d="M151.408 195.457C151.979 194.934 151.506 193.776 150.743 194.306C147.894 196.283 145.001 198.122 141.895 199.677C139.726 200.764 137.398 201.507 135.169 202.438C131.554 201.235 127.6 200.697 123.925 199.748C119.39 198.577 114.873 197.309 110.39 195.955C101.334 193.222 92.2499 190.365 83.5161 186.717C83.0642 186.528 82.7406 187.268 83.168 187.463C91.4651 191.243 99.7638 194.965 108.418 197.878C112.702 199.32 117.022 200.633 121.391 201.798C124.907 202.736 128.703 204.008 132.419 204.638C132.388 205.271 132.709 205.86 133.488 205.726C139.919 204.619 146.7 199.773 151.408 195.457Z" fill="#1D1D1D"/>
<path d="M133.997 88.2789C133.982 87.155 133.958 86.0311 133.919 84.9072C133.782 80.9268 133.793 76.5854 132.744 72.7321C132.64 72.3507 132.13 72.3647 132.103 72.7877C131.845 76.9092 132.445 81.1312 132.513 85.2617C132.532 86.4102 132.535 87.5587 132.53 88.7077C133.016 88.5315 133.502 88.3839 133.997 88.2789Z" fill="#1D1D1D"/>
<path d="M130.939 122.196C132.136 116.005 132.982 109.774 133.484 103.504C132.881 103.818 132.272 104.122 131.656 104.413C131.03 110.114 130.08 115.782 128.842 121.383C128.509 122.89 130.63 123.793 130.939 122.196Z" fill="#1D1D1D"/>
<path d="M152.571 84.3783C153.4 84.4151 154.22 84.4895 155.027 84.6065C154.665 74.3268 153.224 64.0174 150.016 54.2779C149.839 53.7414 149.149 54.1204 149.225 54.5936C150.803 64.4936 152.128 74.3914 152.408 84.3893C152.462 84.3849 152.514 84.3758 152.571 84.3783Z" fill="#1D1D1D"/>
<path d="M149.436 129.745C151.627 123.856 152.654 117.317 153.581 111.119C154.032 108.104 154.382 105.076 154.638 102.042C153.698 101.971 152.76 101.859 151.815 101.754C151.56 104.504 151.238 107.248 150.832 109.978C149.883 116.34 148.11 122.448 146.828 128.73C146.455 130.561 148.703 131.713 149.436 129.745Z" fill="#1D1D1D"/>
<path d="M151.008 194.091C152.387 185.182 152.289 175.825 152.86 166.827C153.435 157.764 154.392 148.625 154.418 139.542C154.421 138.721 153.401 138.656 153.284 139.466C151.976 148.457 151.58 157.639 150.818 166.689C150.062 175.673 148.59 184.918 148.646 193.932C148.656 195.645 150.748 195.777 151.008 194.091Z" fill="#1D1D1D"/>
<path d="M148.72 197.946C149.351 197.785 149.931 197.266 150.136 196.388C150.199 196.314 150.265 196.241 150.325 196.167C150.859 195.512 150.864 194.614 150.563 193.934C152.359 183.203 153.15 172.156 154.411 161.37C155.042 155.983 155.831 150.586 156.2 145.174C156.483 141.014 156.287 136.751 154.011 133.133C153.527 132.364 152.625 133.201 152.724 133.866C154.178 143.64 151.907 153.719 150.678 163.425C149.358 173.846 147.522 184.402 146.796 194.889C144.795 196.807 142.777 198.622 140.377 200.128C138.458 201.332 136.397 202.222 134.366 203.181C134.317 203.157 134.275 203.128 134.221 203.107C124.422 199.407 114.409 196.2 104.505 192.788C99.6387 191.111 94.7787 189.415 89.9041 187.762C85.7525 186.354 81.0796 185.443 78.4353 181.769C79.0166 181.568 79.4903 181.032 79.5331 180.125C80.0641 168.843 80.8236 157.626 82.3655 146.428C83.1427 140.782 83.9669 135.124 85.0646 129.529C86.1799 123.852 87.9577 119.406 92.0844 115.263C92.5211 114.825 92.2645 113.755 91.5228 113.951C86.9279 115.17 84.6249 120.027 83.2697 124.204C81.4242 129.892 80.5955 136.059 79.6614 141.952C77.6788 154.465 76.3652 167.223 76.1194 179.894C76.1076 180.505 76.3074 180.981 76.6159 181.311C75.7297 184.855 78.7683 187.616 81.7818 189.008C87.0772 191.452 92.9247 193.021 98.4299 194.934C109.943 198.933 121.406 203.212 133.031 206.872C134.051 207.194 134.817 206.612 135.16 205.809C140.123 204.748 145.189 201.532 148.72 197.946Z" fill="#1D1D1D"/>
<path d="M155.923 84.7585C155.726 80.3567 155.317 75.963 154.665 71.6098C153.783 65.7182 152.899 58.8912 149.82 53.6906C149.536 53.2125 148.803 53.5985 148.822 54.0809C149.058 60.0224 150.942 65.9411 151.742 71.8349C152.308 76.0046 152.675 80.1949 152.835 84.3954C153.881 84.4504 154.914 84.5611 155.923 84.7585Z" fill="#1D1D1D"/>
<path d="M150.032 128.993C152.624 123.526 153.531 116.743 154.481 110.798C154.942 107.91 155.299 105.006 155.561 102.094C154.47 102.061 153.39 101.936 152.304 101.809C152.064 104.276 151.773 106.738 151.391 109.186C150.889 112.413 150.252 115.615 149.49 118.791C148.762 121.823 147.639 124.812 147.145 127.885C146.887 129.487 149.261 130.623 150.032 128.993Z" fill="#1D1D1D"/>
<path d="M130.94 121.005C132.55 115.428 133.288 109.369 133.644 103.419C132.353 104.099 131.026 104.714 129.695 105.323C129.185 109.495 128.527 113.634 127.95 117.82C125.143 116.671 122.315 115.561 119.478 114.491C116.49 113.364 113.278 111.754 110.069 111.511C108.985 111.429 108.689 112.987 109.425 113.58C111.965 115.628 115.396 116.71 118.373 117.987C121.669 119.402 124.99 120.784 128.334 122.083C128.528 122.158 128.716 122.192 128.895 122.191C129.696 122.411 130.627 122.087 130.94 121.005Z" fill="#1D1D1D"/>
<path d="M132.36 88.768C132.852 88.5837 133.343 88.4287 133.841 88.3137C133.797 87.2024 133.744 86.0907 133.671 84.9803C133.423 81.1878 133.53 76.3321 131.665 72.941C131.341 72.3508 130.407 72.281 130.233 73.0559C129.433 76.6019 130.294 80.6445 130.438 84.2496C130.505 85.9183 130.54 87.5897 130.555 89.2602C131.146 89.0572 131.733 88.8852 132.36 88.768Z" fill="#1D1D1D"/>
<path d="M92.7332 114.253C92.8796 97.7748 94.7131 81.2692 99.3647 65.4223C101.764 57.2469 104.664 48.5785 111.084 42.6328C117.075 37.0828 126.372 34.9884 133.038 40.5876C133.849 41.2692 134.643 40.9091 135.09 40.2102C135.337 40.1466 135.591 39.9811 135.843 39.6834C138.633 36.3661 138.185 30.8434 136.2 27.2296C133.812 22.8784 129.11 20.5014 124.217 20.8041C118.705 21.1443 113.187 23.9275 108.369 26.4282C103.059 29.1835 96.7516 32.9038 93.1545 37.8152C92.7005 38.4348 93.3621 39.326 94.0647 39.0049C98.3514 37.0457 102.184 33.8442 106.341 31.5724C110.432 29.3368 114.67 27.2373 119.105 25.7809C122.929 24.5245 127.28 23.879 130.703 26.5117C132.366 27.7903 133.586 29.5808 134.012 31.6512C134.386 33.466 133.943 34.9545 133.545 36.598C127.435 32.3988 119.278 32.9021 113.011 36.7849C105.079 41.7009 100.868 50.337 98.0482 58.9091C92.1939 76.7045 89.5379 95.714 91.1018 114.393C91.1884 115.441 92.7241 115.272 92.7332 114.253Z" fill="#1D1D1D"/>
<path d="M150.072 55.8733C161.254 43.5409 161.968 24.622 150.993 11.8903C140.062 -0.791102 121.58 -2.28515 106.645 3.38785C97.0316 7.03959 87.2778 13.458 80.4776 21.2434C79.9219 21.8799 80.4292 23.4388 81.3902 22.8074C85.7524 19.9432 89.7353 16.5399 94.1548 13.7403C98.7472 10.831 103.603 8.26855 108.743 6.47453C117.29 3.49055 126.875 2.73153 135.543 5.66328C144.976 8.85414 152.339 16.7978 154.644 26.5284C156.843 35.8116 154.061 45.7223 147.674 52.7426C146.081 54.4944 148.281 57.8497 150.072 55.8733Z" fill="#1D1D1D"/>
<path d="M95.8885 74.2782C96.2585 67.7508 95.7469 61.0556 95.5512 54.5204C95.3805 48.8009 95.8252 42.1277 94.1592 36.6373C93.9735 36.025 93.1001 36.1822 92.9543 36.7338C92.1968 39.5863 92.3354 42.6588 92.257 45.5914C92.1692 48.8768 92.1528 52.1667 92.1756 55.4536C92.2187 61.789 91.9415 68.2563 92.5092 74.5665C92.7076 76.768 95.7708 76.3469 95.8885 74.2782Z" fill="#1D1D1D"/>
<path d="M91.0161 109.872C91.8814 108.907 91.4771 106.167 89.7085 106.821C87.0813 107.792 84.8301 109.773 82.5309 111.364C80.2998 112.907 78.0696 114.449 75.8389 115.993C70.8986 119.411 65.9582 122.829 61.0304 126.265C52.3377 132.327 43.1682 138.122 34.9973 144.931C34.8243 144.922 34.638 144.946 34.4336 145.02C31.8387 145.967 29.5683 147.307 26.7946 147.776C23.8506 148.274 20.7493 148.062 17.9276 147.068C12.5427 145.171 9.3917 141.155 7.06937 136.371C7.80955 135.321 7.72303 133.539 6.29903 132.979C2.9808 131.674 3.93103 127.224 4.07661 124.4C4.21491 121.724 4.35582 119.048 4.48377 116.371C4.76879 110.444 5.04558 104.515 5.32585 98.5878C5.59799 92.8516 5.88265 87.1132 6.0625 81.3727C6.21591 76.4818 6.57028 71.4892 6.19317 66.5951C6.26864 66.5614 6.34368 66.5324 6.42001 66.4844C11.9724 63.0556 17.1337 58.7396 22.3819 54.857C27.8391 50.819 33.2921 46.7762 38.7477 42.736C44.0523 38.8072 49.3608 34.8828 54.6111 30.8812C57.0348 29.0343 59.4331 27.1539 61.837 25.2812C63.9339 23.6481 66.2383 22.0474 68.1798 20.1659C70.2819 19.5597 72.4232 19.1668 74.6236 19.5982C75.9099 19.8503 77.1739 20.4122 78.2593 21.139C79.3358 21.8594 80.0858 22.8621 81.2721 23.4C82.6845 24.0415 83.4804 22.1335 83.0949 21.0622C82.0469 18.1483 78.0256 16.6321 75.1895 16.311C73.2071 16.0862 71.1722 16.3949 69.3985 17.2459C69.3567 17.252 69.3191 17.2499 69.2721 17.2672C66.5642 18.284 64.1698 20.1468 61.7865 21.7665C58.9198 23.7148 56.0709 25.6976 53.2391 27.6962C47.7093 31.6008 42.2447 35.5987 36.7731 39.5842C31.4525 43.46 26.1302 47.3332 20.8117 51.2112C15.3993 55.1574 9.61408 58.8908 4.54297 63.267C3.84014 63.8738 3.82632 64.9327 4.21222 65.7225C3.052 71.5013 2.8766 77.5744 2.51176 83.4358C2.08392 90.3129 1.68928 97.1917 1.30542 104.071C0.931847 110.761 0.557844 117.449 0.212306 124.14C-0.0159115 128.564 -0.48546 134.642 4.22538 136.761C5.46257 142.842 10.3247 148.139 15.9306 150.519C21.8381 153.027 30.942 152.998 35.7995 148.21C36.0608 147.952 36.2133 147.57 36.2675 147.157C45.5635 141.963 54.2405 135.402 63.0105 129.425C67.809 126.154 72.5946 122.865 77.3814 119.577C79.6155 118.042 81.8496 116.506 84.0837 114.971C86.3959 113.383 89.1394 111.967 91.0161 109.872Z" fill="#1D1D1D"/>
<path d="M174.354 89.4692C174.695 88.406 175.197 87.4605 175.889 86.5572C170.364 84.4647 164.697 82.9065 158.962 82.1793C144.477 80.3419 127.73 84.4253 118.968 96.9199C118.502 97.5837 119.4 98.6981 120.032 97.988C130.198 86.5916 145.853 83.0766 160.558 85.5183C165.383 86.3199 169.949 87.7114 174.354 89.4692Z" fill="#1D1D1D"/>
<path d="M204.279 101.884C199.955 98.984 195.388 96.1256 190.646 93.5095C190.628 93.5392 190.62 93.569 190.599 93.5983C190.174 94.2149 189.76 94.8288 189.339 95.4368C189.399 95.7314 189.353 96.0468 189.152 96.3395C189.08 96.4439 189.002 96.5413 188.929 96.6439C193.641 99.2648 198.295 102.039 203.033 104.65C204.491 105.454 205.525 102.719 204.279 101.884Z" fill="#1D1D1D"/>
<path d="M160.379 104.649C161.541 104.158 162.725 103.755 163.932 103.408C151.774 99.6234 139.374 99.2821 128.169 106.043C127.682 106.337 128.036 107.307 128.606 107.015C137.96 102.205 149.434 102.279 159.925 104.977C160.039 104.849 160.18 104.733 160.379 104.649Z" fill="#1D1D1D"/>
<path d="M208.674 117.085C210.393 113.343 210.7 107.509 207.596 104.042C207.293 103.703 206.83 103.992 206.929 104.414C207.902 108.557 208.922 112.325 206.993 116.218C205.363 119.506 202.377 121.377 198.951 122.042C192.671 117.69 185.735 113.23 178.484 109.522C178.392 109.625 178.285 109.718 178.149 109.789C177.258 110.247 176.404 110.715 175.516 111.12C182.606 114.746 189.326 119.187 196.132 123.502C196.136 123.53 196.142 123.557 196.147 123.584C197.259 123.978 198.378 124.318 199.521 124.457C199.595 124.374 199.659 124.28 199.714 124.178C203.603 123.336 206.972 120.793 208.674 117.085Z" fill="#1D1D1D"/>
<path d="M123.003 116.179C118.587 112.379 115.788 107.159 118.195 101.314C118.356 100.923 117.797 100.551 117.565 100.958C114.051 107.113 114.95 115.439 121.735 118.994C123.328 119.828 124.08 117.106 123.003 116.179Z" fill="#1D1D1D"/>
<path d="M180.943 112.389C181.377 112.032 181.055 111.166 180.473 111.292C176.031 112.246 171.578 115.063 167.462 116.959C162.988 119.019 157.849 120.775 153.8 123.582C152.815 124.264 153.035 126.595 154.551 126.125C159.192 124.684 163.645 121.758 167.951 119.514C172.186 117.306 177.249 115.424 180.943 112.389Z" fill="#1D1D1D"/>
<path d="M206.004 116.54C203.933 120.458 200.318 121.926 196.193 122.722C195.856 122.787 195.622 123.012 195.482 123.298C195.657 123.379 195.829 123.466 196.003 123.549C197.375 124.039 198.753 124.48 200.18 124.541L200.181 124.541C203.963 123.3 207.204 120.261 208.774 116.654C210.475 112.746 211.021 104.425 205.565 103.196C204.818 103.028 204.404 103.866 204.804 104.463C207.4 108.34 208.279 112.234 206.004 116.54Z" fill="#1D1D1D"/>
<path d="M210.478 100.431C208.19 98.8761 204.546 98.5356 202.221 100.247C201.768 100.581 201.845 101.617 202.572 101.435C203.801 101.127 204.963 100.772 206.251 100.837C207.506 100.901 208.714 101.303 209.848 101.827C210.618 102.184 211.105 100.857 210.478 100.431Z" fill="#1D1D1D"/>
<path d="M254.607 125.605C241.53 117.885 228.452 109.922 214.98 102.907C214.436 102.624 214.052 103.628 214.521 103.929C227.26 112.11 240.621 119.49 253.774 126.986C254.656 127.489 255.412 126.079 254.607 125.605Z" fill="#1D1D1D"/>
<path d="M213.993 125.884C217.954 119.839 217.354 111.378 212.967 105.746C212.567 105.233 212.02 105.944 212.305 106.403C215.949 112.281 215.978 118.921 212.867 125.021C212.462 125.816 213.427 126.748 213.993 125.884Z" fill="#1D1D1D"/>
<path d="M261.059 149.82C263.412 143.176 261.079 133.018 256.398 127.859C256.03 127.453 255.48 127.942 255.688 128.4C257.22 131.765 258.75 134.926 259.383 138.617C259.937 141.851 259.532 144.761 259.251 147.879C244.485 141.603 230.311 133.973 215.369 128.083C214.725 127.829 214.49 128.865 215.031 129.152C229.204 136.684 244.19 142.534 258.543 149.683C252.849 152.206 247.324 153.941 241.108 154.865C234.613 155.83 228.079 156.564 221.566 157.392C215.051 158.222 208.54 159.081 202.029 159.94C198.582 160.394 195.139 160.862 191.695 161.341C188.349 161.806 184.841 162.028 181.602 163.019C177.783 160.941 173.954 158.878 170.101 156.866C165.791 154.617 161.458 151.993 156.888 150.317C156.22 150.072 155.859 151.096 156.364 151.478C160.418 154.55 165.159 156.908 169.566 159.436C173.79 161.861 178.044 164.238 182.308 166.592C183.159 167.062 183.781 166.339 183.887 165.496C186.292 165.33 188.697 164.864 191.068 164.531C194.7 164.021 198.333 163.507 201.962 162.971C209.029 161.93 216.094 160.886 223.157 159.812C229.778 158.806 236.452 157.964 243.026 156.671C248.725 155.55 254.914 154.012 259.581 150.372C260.061 150.7 260.79 150.582 261.059 149.82Z" fill="#1D1D1D"/>
<path d="M193.321 134.248C180.86 137.997 168.419 141.853 155.89 145.371C155.51 145.242 155.067 145.298 154.63 145.672C154.492 145.79 154.354 145.908 154.215 146.027C153.262 146.843 153.92 149.279 155.377 148.734C168.001 144.009 180.764 139.638 193.479 135.164C193.963 134.992 193.862 134.086 193.321 134.248Z" fill="#1D1D1D"/>
<path d="M150.646 132.099C150.645 130.617 151.055 129.197 151.903 127.972C152.747 126.752 154.061 126.105 155.004 125.013C155.23 124.751 155.244 124.235 154.857 124.099C153.038 123.464 151.032 125.001 149.942 126.326C148.504 128.073 147.974 130.08 148.152 132.312C148.28 133.912 150.647 133.659 150.646 132.099Z" fill="#1D1D1D"/>
<path d="M210.461 128.432C206.789 129.718 203.029 131.07 199.494 132.699C198.728 133.052 199.087 134.646 199.976 134.334C203.659 133.04 207.308 131.388 210.851 129.752C211.47 129.467 211.18 128.179 210.461 128.432Z" fill="#1D1D1D"/>
<path d="M165.843 102.658C170.43 99.0987 172.91 93.1393 175.286 88.013C177.815 82.5556 179.948 76.959 181.705 71.2451C181.691 71.2533 181.68 71.2632 181.665 71.271C181.458 71.379 181.248 71.4844 181.039 71.5894C181.16 72.0939 181.04 72.6573 180.576 72.9583C180.153 73.2328 179.732 73.4673 179.307 73.6816C178.049 77.0249 176.667 80.3205 175.149 83.5503C173.14 87.8223 171.019 92.1971 168.325 96.0841C166.808 98.2718 164.999 100.344 162.55 101.499C160.066 102.671 158.035 102.26 155.45 102.006C154.293 101.893 153.899 103.659 154.744 104.271C158.026 106.648 162.956 104.897 165.843 102.658Z" fill="#1D1D1D"/>
<path d="M184.54 106.631C193.433 96.3135 197.686 82.6583 200.371 69.506C200.083 69.5046 199.796 69.4976 199.508 69.4914C196.81 77.2628 194.441 85.2528 190.816 92.63C190.881 92.9208 190.831 93.2479 190.602 93.5809C190.225 94.1273 189.857 94.6699 189.486 95.2094C189.44 95.2948 189.394 95.3802 189.347 95.4655C189.394 95.7465 189.346 96.0452 189.155 96.3238C188.735 96.934 188.283 97.5077 187.813 98.0637C187.177 99.0867 186.514 100.096 185.801 101.081C179.285 110.086 164.408 120.69 154.542 109.835C153.151 108.303 151.113 110.624 152.367 111.994C162.007 122.523 176.724 115.698 184.54 106.631Z" fill="#1D1D1D"/>
<path d="M186.709 51.3108C189.068 46.937 193.468 44.3808 197.477 45.7268C200.235 46.6529 201.691 49.0225 202.644 51.817C203.159 51.8234 203.673 51.8422 204.184 51.8726C203.203 48.0151 201.096 44.748 197.459 43.9099C192.931 42.8669 188.372 45.9225 186.263 51.0146C186.121 51.3559 186.515 51.6699 186.709 51.3108Z" fill="#1D1D1D"/>
<path d="M185.393 55.759C185.728 54.2381 185.943 52.6789 186.197 51.1529C186.222 51.0007 186 50.9466 185.956 51.0989C185.469 52.7683 184.94 54.4523 184.579 56.1604C184.848 56.0239 185.119 55.8895 185.393 55.759Z" fill="#1D1D1D"/>
<path d="M199.442 71.987C199.735 71.1618 200.017 70.3328 200.301 69.5047C200.034 69.5033 199.767 69.4971 199.5 69.4914C199.248 70.2328 198.992 70.9725 198.746 71.7152C198.584 72.2048 199.26 72.5011 199.442 71.987Z" fill="#1D1D1D"/>
<path d="M151.984 68.4449C153.531 63.476 155.056 58.5011 156.6 53.5421C156.635 53.5498 156.675 53.542 156.716 53.507C160.851 50.0163 166.774 50.7337 169.839 55.1916C170.182 55.6903 170.75 55.0075 170.468 54.567C167.334 49.6765 160.706 48.9491 156.696 53.1037C156.648 52.8741 156.322 52.7805 156.222 53.0706C154.523 58.0263 152.799 62.9834 151.096 67.9486C151.426 67.9926 151.748 68.1754 151.984 68.4449Z" fill="#1D1D1D"/>
<path d="M163.457 84.4274C164.596 80.9885 165.685 77.5295 166.75 74.0666C166.73 73.8563 166.772 73.6243 166.899 73.378C166.942 73.2956 166.991 73.2175 167.035 73.1356C167.929 70.2173 168.809 67.2982 169.685 64.3869C169.78 64.0721 169.361 63.8864 169.24 64.2133C166.781 70.8605 164.304 77.5466 162.03 84.2837C162.491 84.0685 163.057 84.1446 163.457 84.4274Z" fill="#1D1D1D"/>
<path d="M170.435 61.1065C170.563 60.5562 170.752 59.9868 170.805 59.4241C170.838 59.0796 170.338 58.9353 170.251 59.2997C170.119 59.8539 170.111 60.4541 170.055 61.0211C170.032 61.2565 170.377 61.3553 170.435 61.1065Z" fill="#1D1D1D"/>
<path d="M175.245 61.46C173.385 61.4672 171.529 61.5131 169.692 61.6287C169.395 61.6476 169.346 62.1188 169.656 62.1572C171.052 62.3282 172.462 62.4553 173.878 62.56C174.302 62.1701 174.758 61.8039 175.245 61.46Z" fill="#1D1D1D"/>
<path d="M211.415 52.1993C211.678 47.1414 208.762 42.0414 203.442 40.2435C203.591 39.9485 203.485 39.5096 203.084 39.4438C196.046 38.2843 188.471 38.4966 181.355 38.6095C174.44 38.7187 167.467 39.0755 160.609 39.9998C160.343 40.0353 160.357 40.5509 160.635 40.5373C167.696 40.1817 174.731 39.7948 181.805 39.7883C188.877 39.7809 195.956 40.5586 203.011 40.5155C203.044 40.5151 203.069 40.5021 203.101 40.4969C208.174 42.7664 210.806 47.4389 210.403 52.1875C210.74 52.1897 211.077 52.1911 211.415 52.1993Z" fill="#1D1D1D"/>
<path d="M215.687 52.566C215.8 52.5305 215.925 52.5166 216.058 52.516C219.701 39.8856 222.91 27.0082 225.891 14.2091C226.066 13.4562 225.038 12.977 224.825 13.7938C221.483 26.6041 218.315 39.5914 215.645 52.5613C215.659 52.5621 215.673 52.5638 215.687 52.566Z" fill="#1D1D1D"/>
<path d="M204.901 38.0653L204.814 38.0645C209.626 28.2659 214.166 18.2494 218.45 8.21384C218.538 8.00813 218.23 7.80328 218.116 8.02455C212.941 17.9766 207.958 28.1315 203.343 38.3562C203.127 38.8328 203.336 39.4511 203.938 39.3802C204.279 39.3406 204.62 39.301 204.961 39.2605C205.555 39.1909 205.517 38.0685 204.901 38.0653Z" fill="#1D1D1D"/>
<path d="M225.498 14.4818C224.869 11.9031 223.612 8.98284 222.298 6.68515C222.138 6.40338 221.737 6.55686 221.807 6.88185C222.36 9.47396 223.331 12.5179 224.573 14.8514C224.861 15.3926 225.645 15.0813 225.498 14.4818Z" fill="#1D1D1D"/>
<path d="M217.395 6.20797C198.498 4.68667 177.406 8.64282 160.456 17.2949C160.471 17.2342 160.489 17.173 160.504 17.1127C160.566 16.85 160.259 16.5946 160.081 16.8738C158.459 19.4204 157.112 22.5527 156.134 25.4043C155.922 26.0219 156.796 26.653 157.138 25.972C158.401 23.458 159.579 20.6066 160.313 17.8483C169.211 14.4295 178.111 11.3823 187.509 9.61413C197.418 7.74935 207.254 7.3932 217.302 7.56251C218.079 7.575 218.176 6.27082 217.395 6.20797Z" fill="#1D1D1D"/>
<path d="M164.089 83.0109C165.108 80.382 166.212 77.6499 167.243 74.874C166.801 74.5611 166.569 74.0165 166.898 73.3786C167.537 72.1372 168.247 70.9566 168.996 69.807C169.591 67.9226 170.111 66.0339 170.506 64.1587C170.711 64.1598 170.899 64.0648 171.041 63.9223C171.548 63.9295 172.059 63.9346 172.568 63.9405C173.015 63.4016 173.5 62.8937 174.03 62.4207C172.674 62.4312 171.318 62.4469 169.979 62.4588C169.323 62.4647 168.637 63.5849 169.493 63.8628C169.561 63.8848 169.629 63.9071 169.698 63.9299C166.724 69.7621 164.741 76.5122 162.748 82.6809C162.477 83.5213 163.795 83.7678 164.089 83.0109Z" fill="#1D1D1D"/>
<path d="M153.272 61.1523C153.604 61.0579 153.861 60.8718 154.097 60.6206C154.282 60.423 154.133 60.1036 153.866 60.132C153.574 60.1633 153.287 60.2598 153.055 60.4416C152.794 60.6475 152.831 61.2774 153.272 61.1523Z" fill="#1D1D1D"/>
<path d="M192.76 95.6783C195.283 89.8641 196.778 83.4178 198.665 77.3673C199.482 74.7476 200.296 72.127 201.086 69.4987C200.386 69.5064 199.686 69.5041 198.988 69.4838C198.267 71.6688 197.561 73.8599 196.859 76.0523C194.848 82.3384 192.226 88.7566 190.914 95.2234C190.672 96.4173 192.311 96.7129 192.76 95.6783Z" fill="#1D1D1D"/>
<path d="M214.798 52.3557C214.986 52.3684 215.147 52.4148 215.282 52.4849C215.419 52.4994 215.556 52.5212 215.693 52.5379C215.769 52.5141 215.853 52.5015 215.939 52.4923C218.353 46.6338 219.436 39.5509 220.563 35.1492C221.493 31.5224 222.421 27.8948 223.337 24.265C224.194 20.8667 225.464 17.3175 225.512 13.7814C225.556 10.5089 223.434 6.64765 220.329 6.22194C220.407 6.10465 220.41 5.94479 220.253 5.87516C217.609 4.70828 214.131 4.94738 211.273 4.85919C208.373 4.76847 205.472 4.81605 202.575 4.96747C195.844 5.31959 189.155 6.30849 182.602 7.88364C176.629 9.31942 170.602 11.1409 165.001 13.6888C160.781 15.6086 156.621 18.9046 156.93 24.0079C157.013 25.3805 158.906 24.8834 158.911 23.686C158.942 17.2712 166.249 15.1191 171.203 13.2933C176.624 11.2954 182.195 9.72778 187.86 8.59739C193.081 7.55539 198.379 6.8761 203.691 6.55742C206.64 6.38096 209.599 6.31521 212.552 6.35547C214.298 6.37939 216.123 6.61694 217.901 6.58223C217.697 6.66863 217.493 6.7645 217.284 6.8815C216.938 7.07577 216.866 7.82556 217.418 7.69914C220.78 6.93107 223.219 10.0005 223.47 13.0498C223.697 15.8106 222.657 18.6869 221.958 21.3306C220.618 26.4038 219.289 31.48 217.966 36.558C216.682 41.4881 215.682 46.6225 213.94 51.4152C213.835 51.7058 213.722 51.9967 213.602 52.2864C214 52.3083 214.399 52.3286 214.798 52.3557Z" fill="#1D1D1D"/>
<path d="M166.838 85.1851C165.472 76.8815 167.995 69.0277 173.207 63.3432C178.44 57.6341 185.599 55.2326 192.45 54.0552C207.408 51.4838 222.992 52.4112 237.872 55.2417C238.177 55.3 238.32 54.6858 237.985 54.6163C229.104 52.7741 220.121 51.7295 211.106 51.583C203.031 51.4516 194.653 51.6199 186.756 53.8307C180.132 55.6853 173.736 59.2827 169.424 65.7735C165.754 71.298 163.467 78.996 165.302 85.9776C165.63 87.23 167.018 86.276 166.838 85.1851Z" fill="#1D1D1D"/>
<path d="M179.343 79.9556C178.21 73.4738 184.603 70.731 189.952 70.4351C195.504 70.1287 201.204 70.6638 206.755 70.8547C217.761 71.2322 227.2 72.1223 238.213 72.2436C238.524 72.2472 238.691 71.7278 238.331 71.7006C224.326 70.6295 211.842 69.7823 197.817 69.0183C192.77 68.7435 186.935 67.9329 182.344 70.6056C178.964 72.5728 176.311 76.7202 177.699 80.6645C178.093 81.7845 179.513 80.9255 179.343 79.9556Z" fill="#1D1D1D"/>
<path d="M230.742 95.9976C224.721 95.0578 218.678 94.2614 212.642 93.4193C206.628 92.5802 200.567 91.4428 194.512 90.9804C193.458 90.8996 192.959 92.5719 194.121 92.7809C200.105 93.8546 206.267 94.27 212.306 94.9671C218.376 95.6666 224.441 96.411 230.521 97.0142C231.116 97.0726 231.398 96.1004 230.742 95.9976Z" fill="#1D1D1D"/>
<path d="M232.37 80.6832C226.609 79.9224 220.845 79.1792 215.08 78.4507C209.397 77.7324 203.461 76.4356 197.738 76.4506C196.818 76.4532 196.36 77.8023 197.393 78.0394C202.963 79.3202 209.073 79.3431 214.768 79.8854C220.576 80.4387 226.383 80.9774 232.194 81.4989C232.67 81.5411 232.9 80.7538 232.37 80.6832Z" fill="#1D1D1D"/>
<path d="M240.564 71.4446C243.634 66.5086 243.258 60.2525 239.472 55.8168C239.275 55.5855 238.887 55.8838 239.059 56.1268C242.154 60.4786 242.457 66.2919 239.496 70.8092C238.938 71.6612 240.031 72.3022 240.564 71.4446Z" fill="#1D1D1D"/>
<path d="M232.447 97.3144C237.387 93.6298 238.184 87.1871 234.7 82.2633C234.511 81.9971 234.122 82.3247 234.271 82.5854C236.959 87.3103 235.771 92.6944 231.664 96.1131C230.916 96.7359 231.6 97.9455 232.447 97.3144Z" fill="#1D1D1D"/>
<path d="M248.245 65.0069C246.484 59.1723 244.419 53.1302 241.934 47.5654C241.776 47.2133 241.283 47.4647 241.376 47.8065C242.975 53.6938 245.19 59.684 247.518 65.321C247.71 65.7869 248.378 65.4469 248.245 65.0069Z" fill="#1D1D1D"/>
<path d="M234.201 108.778C234.588 108.776 235.029 108.545 235.178 108.09C239.631 94.4793 243.96 80.566 247.427 66.6704C247.504 66.3608 247.044 66.2715 246.941 66.5501C242.041 79.7987 237.798 93.5144 233.838 107.084C233.086 103.77 232.054 100.263 230.793 97.2254C230.528 96.5867 229.671 97.0535 229.81 97.6501C230.677 101.385 232.154 105.471 233.728 108.966C233.862 109.263 234.24 109.058 234.201 108.778Z" fill="#1D1D1D"/>
<path d="M237.296 55.3068C238.485 52.6402 239.034 49.5026 239.675 46.6636C239.742 46.3631 239.313 46.2829 239.207 46.5481C238.123 49.2435 236.756 52.174 236.222 55.0422C236.093 55.7377 237.028 55.9085 237.296 55.3068Z" fill="#1D1D1D"/>
<path d="M308.314 68.3719C309.12 68.4137 309.292 67.0725 308.388 67.0398C293.341 66.4938 267.76 65.5882 252.703 65.4778C252.335 65.4751 252.147 66.1538 252.572 66.1886C267.608 67.4079 293.25 67.5925 308.314 68.3719Z" fill="#1D1D1D"/>
<path d="M312.403 65.8859C311.488 60.3817 309.084 55.0808 305.67 50.6925C305.631 50.6409 305.58 50.622 305.528 50.619C305.494 50.4217 305.368 50.2581 305.09 50.2265C289.716 48.4464 263.864 46.5084 248.467 44.9347C248.139 44.9014 247.918 45.4393 248.293 45.4954C263.553 47.7822 289.391 49.4657 304.68 51.5447C304.953 51.582 305.185 51.4426 305.342 51.2464C308.132 56.0114 309.99 60.891 311.191 66.2868C311.37 67.0875 312.523 66.6044 312.403 65.8859Z" fill="#1D1D1D"/>
<path d="M312.982 73.1934C312.997 72.3686 312.944 71.5633 312.874 70.742C312.833 70.2673 312.089 70.4926 312.084 70.9001C312.074 71.7275 312.086 72.5342 312.163 73.3576C312.209 73.8517 312.974 73.6147 312.982 73.1934Z" fill="#1D1D1D"/>
<path d="M290.881 108.188C294.977 103.175 298.21 97.1896 301.716 91.7444C305.393 86.0319 309.573 80.3676 312.608 74.2827C312.724 74.0511 312.444 73.8169 312.262 74.033C308.091 79.0003 304.712 84.7681 301.099 90.1478C297.325 95.7652 292.869 101.372 289.768 107.385C289.385 108.127 290.309 108.887 290.881 108.188Z" fill="#1D1D1D"/>
<path d="M255.427 110.299C263.252 110.628 281.617 110.63 289.437 110.102C289.841 110.075 289.926 109.445 289.474 109.436C281.52 109.283 263.066 109.343 255.125 108.795C247.867 108.295 240.527 106.771 233.271 106.657C232.36 106.642 231.996 108.106 232.962 108.346C240.094 110.123 248.099 109.992 255.427 110.299Z" fill="#1D1D1D"/>
<path d="M231.646 80.4717C232.867 77.9167 233.599 74.6785 234.056 71.8932C234.135 71.4146 233.542 71.3372 233.34 71.7167C232.001 74.2273 230.569 77.2648 229.976 80.0593C229.742 81.1575 231.214 81.3752 231.646 80.4717Z" fill="#1D1D1D"/>
<path d="M236.797 54.3256C237.011 54.2694 237.113 53.9925 236.897 53.8683C234.1 52.2638 230.073 52.3238 226.914 51.9104C223.185 51.4217 219.45 50.955 215.71 50.5515C214.52 50.4226 213.953 52.4142 215.269 52.5835C219.001 53.0648 222.744 53.4837 226.486 53.8812C229.741 54.2256 233.595 55.1593 236.797 54.3256Z" fill="#1D1D1D"/>
<path d="M230.403 80.3962C230.472 80.3988 230.541 80.4022 230.61 80.4038C231.02 80.4155 231.27 79.9376 231.096 79.6591C231.658 78.602 232.013 77.3848 232.423 76.2697C232.785 75.2852 233.309 74.2402 233.31 73.1797C233.31 73.1603 233.304 73.1461 233.302 73.1289C233.404 73.1271 233.506 73.1274 233.609 73.1247C234.306 73.1081 234.719 71.9969 233.88 71.8766C225.102 70.6221 216.091 70.4278 207.248 69.8651C204.563 69.6944 201.196 69.1715 198.97 71.1019C197.381 72.4787 196.628 74.8278 197.934 76.599C198.593 77.4914 200.055 76.5635 199.703 75.5693C197.997 70.7604 206.074 72.0022 208.485 72.1284C211.142 72.2668 213.799 72.4083 216.457 72.545C221.767 72.818 227.135 73.2004 232.458 73.14C231.707 73.975 231.285 75.1487 230.8 76.1467C230.312 77.1508 229.754 78.157 229.406 79.2217C224.913 78.4203 220.366 77.8916 215.836 77.3439C210.854 76.7415 205.775 75.8519 200.76 75.6825C199.639 75.6447 199.081 77.3798 200.34 77.6155C205.27 78.5376 210.433 78.7595 215.424 79.246C220.117 79.7035 224.821 80.1799 229.535 80.3639C229.765 80.5058 230.102 80.5133 230.403 80.3962Z" fill="#1D1D1D"/>
<path d="M237.493 53.0436C238.17 51.4953 238.638 49.8386 239.157 48.2306C239.651 46.698 240.239 45.1373 240.372 43.5257C240.398 43.211 239.945 43.1601 239.792 43.3788C238.846 44.7351 238.269 46.3333 237.642 47.8569C236.995 49.4271 236.288 50.9987 235.803 52.627C235.481 53.7102 237.089 53.9661 237.493 53.0436Z" fill="#1D1D1D"/>
<path d="M289.232 109.686C289.387 110.462 290.541 110.853 291.16 110.045C297.091 102.31 301.999 93.5479 307.306 85.3693C310.015 81.1952 317.075 72.7439 311.526 68.1684C312.845 63.2587 311.579 57.9355 308.12 54.1851C303.583 49.2634 296.43 49.2126 290.24 48.5158C273.884 46.6736 257.487 44.5002 241.047 43.5726C240.595 43.5471 240.375 44.2623 240.879 44.348C254.811 46.7202 268.934 48.1067 282.973 49.6881C286.396 50.0737 289.819 50.458 293.242 50.8449C296.59 51.2233 300.138 51.4631 303.182 53.041C308.502 55.7986 310.967 62.302 309.389 67.9575C309.146 68.8265 309.813 69.2055 310.472 69.0981C313.355 72.7314 310.383 77.0513 308.241 80.2953C306.054 83.6056 303.855 86.9074 301.662 90.2135C297.671 96.2314 293.218 102.158 289.662 108.45C280.599 108.512 271.565 109.024 262.493 108.731C253.059 108.426 243.671 107.632 234.329 106.265C234.145 106.238 233.974 106.258 233.819 106.31C233.214 104.964 232.267 103.69 231.772 102.32C231.288 100.982 231.004 99.6455 230.867 98.2791C231.315 98.0417 231.42 97.3004 230.795 97.1596L230.791 97.1583C230.771 96.7123 230.761 96.2632 230.768 95.8081C230.789 94.2102 228.546 94.8138 228.47 96.1809C228.462 96.3326 228.46 96.4968 228.457 96.6605C223.179 95.5884 217.817 94.8572 212.505 94.0104C206.452 93.045 200.234 91.6694 194.115 91.3238C192.821 91.2508 192.256 93.1807 193.641 93.5091C199.603 94.9245 205.962 95.3687 212.037 96.1656C217.512 96.8833 223 97.7278 228.507 98.1998C228.775 101.639 230.073 106.202 232.921 107.754C232.956 108.197 233.225 108.587 233.808 108.673C251.809 111.298 271.15 112.744 289.232 109.686Z" fill="#1D1D1D"/>
<path d="M197.921 157.438C198.108 156.411 198.196 155.36 198.314 154.321C198.4 153.566 198.535 152.776 198.51 152.009C201.17 151.314 203.827 150.607 206.483 149.896C207.581 149.751 208.686 149.633 209.802 149.549C209.979 149.535 210.04 149.204 209.834 149.201C209.337 149.192 208.841 149.193 208.345 149.202C208.613 148.867 208.72 148.372 208.211 148.232C207.857 148.135 207.503 148.042 207.15 147.945C207.14 147.939 207.136 147.932 207.125 147.927C205.746 147.295 204.367 146.662 202.987 146.03C202.935 146.006 202.883 145.994 202.832 145.986C202.895 145.841 202.914 145.675 202.858 145.506C202.761 145.215 202.666 144.923 202.57 144.631C202.321 142.855 201.933 141.056 201.479 139.344C202.365 139.225 203.258 139.12 204.159 139.027C204.353 139.007 204.42 138.666 204.194 138.646C196.688 137.964 186.596 141.037 181.362 146.701C179.741 148.455 179.222 151.202 181.717 152.414C184.885 153.953 189.923 152.136 192.738 150.638C192.82 150.594 192.889 150.537 192.945 150.472C193.098 150.909 193.817 150.764 193.861 150.186C194.017 148.145 194.055 146.098 194.188 144.057C195.118 146.745 196.209 149.388 197.244 152.035C197.311 152.207 197.435 152.281 197.572 152.301C197.625 152.395 197.702 152.446 197.788 152.458C197.641 153.042 197.545 153.643 197.436 154.231C197.246 155.262 197.024 156.294 196.902 157.334C196.818 158.053 197.802 158.097 197.921 157.438ZM192.988 149.585C192.866 149.44 192.665 149.38 192.394 149.508C189.736 150.763 186.626 151.925 183.62 151.62L182.241 151.326C182.122 150.136 182.003 148.944 181.883 147.752C182.048 147.327 182.675 146.865 183.238 146.477C183.251 146.479 183.263 146.482 183.278 146.483C186.959 146.672 190.953 145.847 193.769 143.316C193.765 143.33 193.757 143.342 193.756 143.357C193.55 145.438 193.221 147.506 192.988 149.585Z" fill="#1D1D1D"/>
<path d="M197.56 158.653C201.454 157.988 205.331 157.208 209.209 156.454C212.715 155.772 216.399 155.322 219.785 154.155C219.833 154.175 219.88 154.197 219.928 154.217C220.516 154.465 221.032 153.487 220.418 153.202C215.042 150.709 209.327 147.444 203.57 145.909C205.796 144.727 206.969 142.406 207.048 139.869C207.057 139.594 206.674 139.702 206.654 139.933C206.445 142.407 204.548 144.502 202.357 145.44C201.811 145.674 202.007 146.532 202.625 146.32C202.647 146.313 202.669 146.302 202.691 146.294C202.698 146.299 202.7 146.305 202.706 146.309C205.16 147.973 208.062 149.019 210.768 150.211C213.376 151.359 215.981 152.516 218.6 153.641C215.442 153.864 212.263 154.633 209.165 155.164C205.205 155.844 201.235 156.498 197.291 157.273C196.168 154.856 194.977 152.368 193.484 150.181C193.326 149.949 192.989 150.195 193.056 150.43C193.877 153.304 195.202 156.121 196.469 158.823C196.714 159.345 197.309 159.095 197.56 158.653Z" fill="#1D1D1D"/>
<path d="M131.336 176.815C125.829 174.963 120.282 173.061 114.677 171.523C116.524 166.529 117.735 161.226 119.189 156.104C120.664 150.906 122.312 145.689 123.438 140.4C123.6 140.349 123.741 140.135 123.624 139.989C123.596 139.954 123.576 139.918 123.55 139.883C123.568 139.791 123.59 139.699 123.609 139.606C123.662 139.343 123.374 139.234 123.199 139.353C121.732 136.782 123.231 133.726 126.118 132.882C128.482 132.192 130.876 133.021 132.816 134.419C134.356 135.527 135.885 137.152 136.488 138.991C137.539 142.203 135.971 145.447 132.427 145.781C131.937 145.828 131.708 146.527 131.992 146.841C131.281 151.338 131.401 156.05 131.229 160.588C131.04 165.616 130.919 170.645 130.801 175.674C130.784 176.408 131.839 176.143 131.866 175.501C132.065 170.661 132.267 165.82 132.397 160.977C132.521 156.38 132.973 151.59 132.551 146.998C135.585 147.062 137.991 144.361 138.194 141.382C138.439 137.761 135.793 134.475 132.84 132.712C129.834 130.917 125.628 130.541 123.064 133.349C121.289 135.29 121.262 138.071 122.905 140.002C121.1 144.859 119.752 149.918 118.277 154.881C116.659 160.319 114.705 165.795 113.542 171.347C113.443 171.817 113.863 172.058 114.224 171.978C119.612 174.25 125.192 176.178 130.703 178.124C131.48 178.398 132.157 177.091 131.336 176.815Z" fill="#1D1D1D"/>
<path d="M292.816 96.2203C295.496 92.1954 297.858 87.7686 299.965 83.414C300.014 83.4101 300.063 83.4079 300.112 83.4044C300.408 83.3818 300.511 82.8373 300.166 82.8229C289.424 82.3585 278.577 82.9145 267.829 83.0614C267.1 83.0714 266.758 84.3277 267.559 84.3103C278.1 84.083 288.742 84.2267 299.263 83.4615C296.592 87.3441 293.973 91.4526 291.852 95.6473C291.533 96.2773 292.421 96.8137 292.816 96.2203Z" fill="#1D1D1D"/>
<path d="M266.715 90.9935C266.648 90.1231 265.414 90.25 265.293 91.0377C264.558 95.836 259.19 95.7366 256.034 93.2484C253.727 91.4292 252.211 88.3884 252.685 85.4281C253.897 77.8462 264.52 76.988 266.607 84.4938C266.698 84.8205 267.214 84.6309 267.166 84.3291C266.522 80.2668 262.875 77.2376 258.661 77.8003C254.566 78.347 251.38 82.2272 251.136 86.2639C250.872 90.6402 253.953 94.8731 258.076 96.2125C261.776 97.4142 267.072 95.5992 266.715 90.9935Z" fill="#1D1D1D"/>
<path d="M267.14 93.5143C267.14 93.19 266.667 93.3025 266.667 93.5914C266.667 93.9156 267.14 93.8031 267.14 93.5143Z" fill="#1D1D1D"/>
<path d="M290.758 94.6322C286.766 94.028 282.743 93.5907 278.735 93.1085C274.754 92.6288 270.65 91.8791 266.635 91.9437C266.396 91.9478 266.136 92.3655 266.455 92.4614C270.121 93.5613 274.071 93.9134 277.849 94.4841C282.025 95.1153 286.202 95.799 290.396 96.3031C291.373 96.4213 291.835 94.7951 290.758 94.6322Z" fill="#1D1D1D"/>
<path d="M193.817 29.1405C194.995 26.2999 193.272 22.6859 190.128 22.8482C190.221 22.6891 190.277 22.5058 190.293 22.3273C191.574 20.8666 192.596 19.0944 193.668 17.4856C194.705 15.9294 195.795 14.3701 196.645 12.7028C196.679 12.6377 196.683 12.5795 196.675 12.5282C196.678 12.429 196.628 12.3355 196.495 12.3127C189.354 11.1382 181.415 11.8378 174.706 14.6463C174.598 14.6921 174.527 14.7646 174.475 14.8452C174.313 14.7518 174.056 14.8895 174.074 15.1106C174.304 17.87 174.78 20.7684 175.493 23.4796C172.779 23.4669 170.422 25.8303 171.137 28.87C172.198 33.3855 179.181 33.9907 182.857 34.0319C186.849 34.0759 192.067 33.3624 193.817 29.1405ZM190.839 31.0978C190.754 31.1578 190.659 31.2036 190.572 31.2593C190.478 29.3017 190.269 27.2437 189.898 25.2656C189.943 25.0121 189.909 24.7543 189.779 24.5604C190.04 24.3559 190.193 24.0023 190.205 23.6677C193.873 24.2733 193.666 29.1014 190.839 31.0978ZM174.784 15.53C174.841 15.5326 174.901 15.5282 174.968 15.5079C181.989 13.36 188.573 12.3493 195.903 12.7797C194.627 14.2197 193.507 15.8212 192.386 17.3792C191.62 18.4442 190.779 19.4946 190.049 20.6022C190.044 20.6018 190.04 20.5983 190.04 20.5983C186.147 20.1982 182.117 20.3521 178.249 21.0952C177.866 20.7739 177.198 20.8903 176.892 21.3876C176.774 21.4149 176.653 21.437 176.535 21.4655C176.079 19.4513 175.486 17.435 174.784 15.53ZM173.619 30.2511C171.433 28.2377 172.333 26.5877 176.304 25.2982C176.33 25.603 176.369 25.9074 176.416 26.2104C176.42 26.2621 176.428 26.313 176.44 26.3625C176.516 26.8152 176.614 27.2617 176.726 27.6971C176.624 29.0293 176.532 30.361 176.473 31.6971C176.008 31.5491 175.547 31.3878 175.108 31.1739C174.567 30.9449 174.072 30.6375 173.619 30.2511Z" fill="#1D1D1D"/>
<path d="M291.844 95.3992C291.976 93.1322 291.768 90.4671 291.313 88.2411C291.306 88.2084 291.29 88.1903 291.28 88.1627C292.041 86.8177 292.777 85.3394 293.177 83.8973C293.264 83.5838 292.922 83.4854 292.709 83.6196C292.506 83.3284 292.054 83.2119 291.685 83.463C291.642 83.4919 291.585 83.5174 291.534 83.5438C291.138 83.4126 290.602 83.5264 290.314 83.9102C290.186 83.7801 289.995 83.6893 289.73 83.6632C288.049 83.4981 286.369 83.333 284.687 83.1674C284.249 83.1246 283.895 83.3607 283.678 83.6885C281.555 83.6969 279.431 83.7059 277.307 83.7144C277.009 83.7154 276.744 83.8333 276.535 84.0124C275.438 83.8912 274.341 83.7722 273.244 83.6519C273.164 83.6429 273.087 83.6451 273.013 83.6533C270.839 83.4377 268.665 83.2199 266.492 83.0026C266.477 82.9815 266.471 82.9561 266.454 82.9358C264.707 80.9017 262.619 79.664 259.975 79.1991C259.582 79.13 259.241 79.2963 259.007 79.568C258.987 79.5667 258.967 79.5624 258.946 79.5611C258.163 79.5083 257.174 80.5888 257.801 81.3336C257.905 81.4573 258.019 81.5632 258.126 81.6795C258.088 81.6757 258.052 81.6692 258.015 81.6654C257.301 81.5982 256.647 82.3587 256.735 83.0246C256.56 83.1665 256.412 83.3477 256.313 83.5426C256.017 83.6329 255.775 83.8331 255.62 84.0793C255.486 84.0139 255.353 83.9468 255.219 83.8818C254.896 83.7247 254.525 83.8146 254.225 84.0218C254.299 82.9225 254.763 81.8299 255.69 80.9365C256.269 80.3791 255.462 79.4254 254.826 79.9681C251.715 82.6175 252.165 87.5015 255.741 89.5497C259.36 91.6238 264.221 90.1822 266.377 86.7085C266.147 87.4043 266.032 88.1475 265.908 88.8628C265.746 89.8082 265.469 90.7908 265.537 91.7528C265.592 92.5394 266.527 92.2883 266.714 91.7157C267.011 90.8103 266.994 89.7736 267.074 88.8265C267.131 88.1687 267.213 87.485 267.179 86.8173C271.214 87.4867 275.338 87.8048 279.4 88.2794C282.524 88.6447 285.714 89.1561 288.88 89.2322C289.078 89.3062 289.301 89.3129 289.512 89.2438C289.572 89.2437 289.632 89.2471 289.692 89.2471C289.847 89.3487 290.052 89.3908 290.256 89.351C290.325 91.4019 290.637 93.6914 291.158 95.601C291.279 96.0401 291.825 95.7328 291.844 95.3992Z" fill="#1D1D1D"/>
<path d="M207.125 140.128C206.955 139.275 206.108 138.648 205.287 138.521C205.076 138.489 204.974 138.796 205.156 138.9C205.792 139.258 206.109 139.799 206.362 140.457C206.559 140.965 207.216 140.584 207.125 140.128Z" fill="#1D1D1D"/>
<path d="M123.454 173.921C124.298 169.544 125.133 165.166 125.964 160.787C126.677 157.028 127.661 153.156 127.924 149.326C129.434 148.613 131.052 147.732 132.384 146.75C132.678 146.534 132.5 146.05 132.124 146.189C131.761 146.325 131.394 146.481 131.027 146.647C132.089 144.698 132.114 142.135 131.233 140.028C129.697 136.355 125.657 134.361 121.886 135.459C121.849 135.642 121.811 135.824 121.783 136.008C122.114 135.994 122.444 135.995 122.772 136.006C122.543 136.052 122.328 136.231 122.29 136.485C122.239 136.839 122.205 137.196 122.164 137.551C122.131 137.825 122.226 138.102 122.523 138.171C122.533 138.174 122.542 138.171 122.552 138.173C122.698 138.555 122.853 138.87 123.045 139.145C123.013 139.31 123.024 139.481 123.102 139.631C123.215 139.849 123.334 140.048 123.456 140.241C123.263 140.343 123.098 140.512 123.023 140.75C122.433 142.622 121.842 144.495 121.251 146.368C121.12 146.783 121.373 147.056 121.698 147.138C121.696 147.144 121.695 147.151 121.693 147.157C121.372 147.182 121.038 147.419 120.932 147.811C119.044 154.775 117.156 161.74 115.269 168.704C115.174 169.055 115.289 169.282 115.488 169.394C115.017 169.886 114.657 170.454 114.346 171.177C114.123 171.696 114.568 172.424 115.176 172.097C115.26 172.053 115.344 172.007 115.427 171.962C117.554 172.694 119.68 173.426 121.807 174.158C121.876 174.182 121.947 174.191 122.018 174.193C122.243 174.786 123.304 174.702 123.454 173.921Z" fill="#1D1D1D"/>
<path d="M256.372 84.8788C257.064 84.0313 257.857 83.598 258.928 83.4386C259.985 83.2818 260.573 81.8081 259.787 81.1126C261.053 81.0884 262.408 81.5882 263.465 82.4973C263.637 82.645 263.827 82.6698 264.006 82.6257C264.036 82.7887 264.039 82.9649 263.983 83.1667C263.832 83.7168 264.639 83.8515 264.839 83.3781C265.446 81.9458 264.77 80.1972 263.28 79.9604C260.007 77.275 254.854 79.6288 253.671 83.8098C253.402 84.7634 254.02 85.1879 254.718 85.1408C255.184 85.4616 255.898 85.4593 256.372 84.8788Z" fill="#1D1D1D"/>
<path d="M156.881 135.238C162.604 133.086 168.192 130.45 173.811 128.037C179.423 125.627 185.29 123.485 190.655 120.557C190.933 120.406 190.976 119.783 190.549 119.907C184.895 121.549 179.443 124.077 173.977 126.255C168.096 128.598 162.077 130.752 156.31 133.36C155.166 133.878 155.569 135.731 156.881 135.238Z" fill="#1D1D1D"/>
<path d="M79.6684 82.0727C81.2281 69.469 82.9986 56.5806 83.4975 43.8863C83.5183 43.3525 82.7332 43.4683 82.6515 43.9128C80.3544 56.3701 79.2246 69.2959 77.966 81.8973C77.8463 83.0959 79.5318 83.1809 79.6684 82.0727Z" fill="#1D1D1D"/>
<path d="M186.221 52.2296C186.645 52.1371 186.884 51.3197 186.305 51.3103C180.715 51.2153 174.69 51.9116 169.177 52.7941C168.344 52.9274 168.295 54.2148 169.222 54.1762C174.783 53.9445 180.779 53.415 186.221 52.2296Z" fill="#1D1D1D"/>
<path d="M235.842 83.2735C236.439 81.8601 236.765 80.3426 237.168 78.8648C237.611 77.2446 238.163 75.6178 238.372 73.9483C238.428 73.4972 237.869 73.3877 237.678 73.7772C237.006 75.1466 236.594 76.6387 236.117 78.0847C235.588 79.6908 234.925 81.3059 234.618 82.9709C234.472 83.7596 235.547 83.97 235.842 83.2735Z" fill="#1D1D1D"/>
</svg>
