<svg width="1448" height="984" viewBox="0 0 1448 984" fill="none" xmlns="http://www.w3.org/2000/svg">
<rect x="435.921" y="738" width="288.826" height="244.4" fill="#F67449" stroke="black" stroke-width="2"/>
<rect x="726.747" y="616" width="285.634" height="244.466" fill="#49BEAD" stroke="black" stroke-width="2"/>
<rect x="144.736" y="247" width="580.191" height="244" fill="white" stroke="black" stroke-width="2"/>
<rect x="580.655" y="1" width="288.299" height="244.4" fill="#F67449" stroke="black" stroke-width="2"/>
<rect x="1" y="493" width="288.299" height="244.4" fill="#F67449" stroke="black" stroke-width="2"/>
<rect x="1" y="738" width="287.828" height="122" fill="#49BEAD" stroke="black" stroke-width="2"/>
<rect x="869.305" y="124" width="433.92" height="121" fill="white" stroke="black" stroke-width="2"/>
<rect x="290.828" y="616" width="433.919" height="121" fill="white" stroke="black" stroke-width="2"/>
<rect x="1013.22" y="616" width="432.742" height="121" fill="white" stroke="black" stroke-width="2"/>
<rect x="1" y="861" width="577.656" height="121" fill="white" stroke="black" stroke-width="2"/>
<rect x="1158.19" y="493" width="287.828" height="121" fill="#F39CB1" stroke="black" stroke-width="2"/>
<rect x="725.749" y="862" width="286.632" height="120.4" fill="#F39CB1" stroke="black" stroke-width="2"/>
<rect x="1" y="124" width="287.828" height="121.2" fill="#F39CB1" stroke="black" stroke-width="2"/>
<rect x="726.927" y="247" width="429.207" height="121" fill="#F39CB1" stroke="black" stroke-width="2"/>
<rect x="290.828" y="738" width="144.092" height="122" fill="#F39CB1" stroke="black" stroke-width="2"/>
<rect x="436.92" y="124" width="142.914" height="121" fill="#F39CB1" stroke="black" stroke-width="2"/>
<rect x="290.828" y="493" width="144.092" height="121" fill="#F39CB1" stroke="black" stroke-width="2"/>
<rect x="1015.4" y="1" width="142.914" height="121" fill="#F39CB1" stroke="black" stroke-width="2"/>
<rect x="1304.05" y="124" width="142.914" height="121" fill="#F39CB1" stroke="black" stroke-width="2"/>
<rect x="1013.22" y="739" width="142.914" height="121" fill="#F39CB1" stroke="black" stroke-width="2"/>
<rect x="1157.95" y="247" width="288.299" height="244.4" fill="#49BEAD" stroke="black" stroke-width="2"/>
<rect x="1014.38" y="862" width="431.401" height="120.4" fill="white" stroke="black" stroke-width="2"/>
<rect x="1" y="1" width="432.742" height="121.2" fill="white" stroke="black" stroke-width="2"/>
<rect x="1160.31" y="1" width="142.914" height="121" fill="#F67449" stroke="black" stroke-width="2"/>
<rect x="436.92" y="493" width="142.914" height="121" fill="#F67449" stroke="black" stroke-width="2"/>
<rect x="1302.87" y="739" width="142.914" height="121" fill="#F67449" stroke="black" stroke-width="2"/>
<rect x="1" y="247" width="142.914" height="244" fill="#F67449" stroke="black" stroke-width="2"/>
<rect x="870.483" y="1" width="142.914" height="121" fill="#49BEAD" stroke="black" stroke-width="2"/>
<rect x="290.828" y="124" width="144.092" height="121" fill="#49BEAD" stroke="black" stroke-width="2"/>
<rect x="580.655" y="493" width="144.092" height="121" fill="#49BEAD" stroke="black" stroke-width="2"/>
<rect x="434.563" y="1" width="144.092" height="121" fill="#49BEAD" stroke="black" stroke-width="2"/>
<rect x="1304.05" y="1" width="142.914" height="121" fill="#49BEAD" stroke="black" stroke-width="2"/>
<rect x="1157.95" y="739" width="142.914" height="121" fill="#49BEAD" stroke="black" stroke-width="2"/>
<path d="M85.7647 102V20.3594H110.814C114.988 20.3594 118.143 21.318 120.276 23.2354C122.41 25.1217 123.833 27.7812 124.544 31.2139C125.286 34.6156 125.657 38.6203 125.657 43.228C125.657 47.6812 125.085 51.2375 123.941 53.897C122.828 56.5565 120.709 58.3965 117.586 59.417C120.153 59.9427 121.946 61.2261 122.967 63.2671C124.018 65.2772 124.544 67.8903 124.544 71.1064V102H108.448V70.0396C108.448 67.6584 107.953 66.1895 106.963 65.6328C106.005 65.0452 104.443 64.7515 102.278 64.7515V102H85.7647ZM102.371 50.6035H106.314C108.572 50.6035 109.7 48.145 109.7 43.228C109.7 40.0428 109.453 37.9554 108.958 36.9658C108.463 35.9762 107.536 35.4814 106.175 35.4814H102.371V50.6035ZM150.984 102.742C137.13 102.742 130.203 95.5522 130.203 81.1724V53.2476C130.203 46.6916 132.043 41.4653 135.723 37.5688C139.403 33.6414 144.49 31.6777 150.984 31.6777C157.51 31.6777 162.612 33.6414 166.292 37.5688C169.972 41.4653 171.812 46.6916 171.812 53.2476V81.1724C171.812 95.5522 164.87 102.742 150.984 102.742ZM150.984 89.9395C152.376 89.9395 153.366 89.4447 153.953 88.4551C154.572 87.4346 154.881 86.1512 154.881 84.605V50.6035C154.881 46.5524 153.582 44.5269 150.984 44.5269C148.387 44.5269 147.088 46.5524 147.088 50.6035V84.605C147.088 86.1512 147.382 87.4346 147.969 88.4551C148.588 89.4447 149.593 89.9395 150.984 89.9395ZM197.046 102.742C183.316 102.742 176.451 95.7842 176.451 81.8682V76.3481H193.15V84.5122C193.15 86.0894 193.459 87.3263 194.078 88.2231C194.696 89.12 195.686 89.5684 197.046 89.5684C199.459 89.5684 200.665 87.7593 200.665 84.1411C200.665 81.1105 200.031 78.853 198.763 77.3687C197.495 75.8534 195.949 74.3999 194.124 73.0083L185.264 66.1895C182.481 64.0247 180.363 61.7363 178.909 59.3242C177.456 56.9121 176.729 53.5568 176.729 49.2583C176.729 45.269 177.672 41.9756 179.559 39.3779C181.476 36.7803 183.996 34.8475 187.12 33.5796C190.274 32.3117 193.676 31.6777 197.325 31.6777C210.808 31.6777 217.549 38.4038 217.549 51.856V53.1548H200.386V50.5107C200.386 49.1191 200.139 47.7739 199.644 46.4751C199.18 45.1763 198.253 44.5269 196.861 44.5269C194.511 44.5269 193.336 45.7638 193.336 48.2378C193.336 50.7427 194.325 52.7064 196.304 54.1289L206.602 61.6436C209.818 63.9629 212.509 66.7152 214.673 69.9004C216.869 73.0856 217.967 77.3223 217.967 82.6104C217.967 89.1663 216.096 94.1606 212.354 97.5933C208.643 101.026 203.541 102.742 197.046 102.742ZM235.733 102.742C231.867 102.742 228.914 101.845 226.873 100.052C224.863 98.2581 223.487 95.7996 222.745 92.6763C222.003 89.5529 221.631 86.012 221.631 82.0537C221.631 77.8171 222.049 74.3535 222.884 71.6631C223.719 68.9417 225.141 66.7152 227.151 64.9834C229.192 63.2516 231.991 61.7827 235.547 60.5767L245.845 57.0513V49.9077C245.845 46.1659 244.624 44.2949 242.181 44.2949C239.954 44.2949 238.841 45.8102 238.841 48.8408V53.0156H222.698C222.667 52.7682 222.652 52.459 222.652 52.0879C222.652 51.6859 222.652 51.2375 222.652 50.7427C222.652 43.8156 224.275 38.9141 227.523 36.0381C230.801 33.1312 235.98 31.6777 243.062 31.6777C246.773 31.6777 250.097 32.3426 253.035 33.6724C255.973 34.9712 258.292 36.904 259.993 39.4707C261.725 42.0374 262.591 45.2072 262.591 48.98V102H246.077V93.7432C245.273 96.6501 243.943 98.8766 242.088 100.423C240.232 101.969 238.114 102.742 235.733 102.742ZM242.273 89.8467C243.634 89.8467 244.562 89.2746 245.057 88.1304C245.551 86.9862 245.799 85.7492 245.799 84.4194V65.0298C243.51 65.9575 241.732 67.1326 240.464 68.5552C239.197 69.9468 238.563 72.0033 238.563 74.7246V83.6772C238.563 87.7902 239.8 89.8467 242.273 89.8467ZM268.992 102V20.3594H285.877V102H268.992ZM292.093 102V32.4199H308.699V102H292.093ZM289.402 29.9614V19.6172L311.436 9.50488V25.6011L289.402 29.9614ZM327.579 102.742C323.713 102.742 320.76 101.845 318.719 100.052C316.709 98.2581 315.333 95.7996 314.59 92.6763C313.848 89.5529 313.477 86.012 313.477 82.0537C313.477 77.8171 313.895 74.3535 314.73 71.6631C315.565 68.9417 316.987 66.7152 318.997 64.9834C321.038 63.2516 323.837 61.7827 327.393 60.5767L337.691 57.0513V49.9077C337.691 46.1659 336.469 44.2949 334.026 44.2949C331.8 44.2949 330.687 45.8102 330.687 48.8408V53.0156H314.544C314.513 52.7682 314.498 52.459 314.498 52.0879C314.498 51.6859 314.498 51.2375 314.498 50.7427C314.498 43.8156 316.121 38.9141 319.368 36.0381C322.646 33.1312 327.826 31.6777 334.908 31.6777C338.619 31.6777 341.943 32.3426 344.881 33.6724C347.819 34.9712 350.138 36.904 351.839 39.4707C353.571 42.0374 354.437 45.2072 354.437 48.98V102H337.923V93.7432C337.119 96.6501 335.789 98.8766 333.934 100.423C332.078 101.969 329.96 102.742 327.579 102.742ZM334.119 89.8467C335.48 89.8467 336.408 89.2746 336.902 88.1304C337.397 86.9862 337.645 85.7492 337.645 84.4194V65.0298C335.356 65.9575 333.578 67.1326 332.31 68.5552C331.042 69.9468 330.408 72.0033 330.408 74.7246V83.6772C330.408 87.7902 331.645 89.8467 334.119 89.8467Z" fill="black"/>
<path d="M384.409 724.674L371.421 716.139C369.936 716.541 368.406 716.742 366.828 716.742C360.458 716.742 355.587 714.856 352.217 711.083C348.877 707.31 347.207 701.806 347.207 694.569V655.094C347.207 648.074 348.923 642.74 352.356 639.091C355.819 635.442 360.814 633.617 367.339 633.617C373.864 633.617 378.843 635.442 382.275 639.091C385.739 642.74 387.471 648.074 387.471 655.094V694.569C387.471 701.311 385.955 706.614 382.925 710.48L389.929 714.933L384.409 724.674ZM367.339 701.713C368.514 701.713 369.349 701.28 369.844 700.414C370.369 699.548 370.694 698.481 370.818 697.213C370.972 695.945 371.05 694.724 371.05 693.549V655.373C371.05 653.641 370.802 652.095 370.307 650.734C369.844 649.342 368.823 648.646 367.246 648.646C365.638 648.646 364.586 649.327 364.092 650.688C363.597 652.017 363.349 653.563 363.349 655.326V693.874C363.349 694.956 363.411 696.116 363.535 697.353C363.69 698.559 364.045 699.595 364.602 700.46C365.159 701.295 366.071 701.713 367.339 701.713ZM408.391 716.742C404.68 716.742 401.835 715.969 399.856 714.423C397.908 712.877 396.578 710.727 395.867 707.975C395.155 705.192 394.8 701.945 394.8 698.234V646.42H411.499V696.286C411.499 699.069 411.715 701.017 412.148 702.13C412.581 703.213 413.602 703.754 415.21 703.754C416.942 703.754 418.024 702.981 418.457 701.435C418.921 699.888 419.153 697.894 419.153 695.451V646.42H435.713V716H419.106V708.578C418.055 711.238 416.787 713.263 415.303 714.655C413.849 716.046 411.545 716.742 408.391 716.742ZM461.875 716.742C456.927 716.742 452.984 715.814 450.046 713.959C447.108 712.104 445.006 709.429 443.738 705.934C442.47 702.44 441.836 698.234 441.836 693.317V665.346C441.836 658.882 443.691 653.996 447.402 650.688C451.113 647.348 456.216 645.678 462.71 645.678C476.069 645.678 482.749 652.234 482.749 665.346V670.402C482.749 676.525 482.687 680.638 482.563 682.741H458.442V696.193C458.442 697.43 458.52 698.651 458.674 699.857C458.829 701.033 459.169 702.007 459.695 702.78C460.251 703.553 461.133 703.939 462.339 703.939C464.071 703.939 465.153 703.197 465.586 701.713C466.019 700.198 466.235 698.234 466.235 695.822V689.142H482.749V693.085C482.749 698.28 482.099 702.641 480.801 706.166C479.533 709.66 477.368 712.305 474.307 714.098C471.276 715.861 467.132 716.742 461.875 716.742ZM458.349 674.484H466.235V665.114C466.235 662.609 465.926 660.815 465.307 659.733C464.689 658.62 463.761 658.063 462.524 658.063C461.195 658.063 460.159 658.589 459.416 659.64C458.705 660.692 458.349 662.516 458.349 665.114V674.484ZM497.639 716L486.46 646.42H503.113L507.102 692.899L511.601 646.42H528.208L516.843 716H497.639ZM552.051 716.742C547.103 716.742 543.16 715.814 540.222 713.959C537.284 712.104 535.181 709.429 533.913 705.934C532.646 702.44 532.012 698.234 532.012 693.317V665.346C532.012 658.882 533.867 653.996 537.578 650.688C541.289 647.348 546.391 645.678 552.886 645.678C566.245 645.678 572.925 652.234 572.925 665.346V670.402C572.925 676.525 572.863 680.638 572.739 682.741H548.618V696.193C548.618 697.43 548.695 698.651 548.85 699.857C549.005 701.033 549.345 702.007 549.87 702.78C550.427 703.553 551.308 703.939 552.515 703.939C554.246 703.939 555.329 703.197 555.762 701.713C556.195 700.198 556.411 698.234 556.411 695.822V689.142H572.925V693.085C572.925 698.28 572.275 702.641 570.976 706.166C569.709 709.66 567.544 712.305 564.482 714.098C561.452 715.861 557.308 716.742 552.051 716.742ZM548.525 674.484H556.411V665.114C556.411 662.609 556.102 660.815 555.483 659.733C554.865 658.62 553.937 658.063 552.7 658.063C551.37 658.063 550.334 658.589 549.592 659.64C548.881 660.692 548.525 662.516 548.525 665.114V674.484ZM592.639 716.742C589.423 716.742 586.872 716.155 584.985 714.979C583.099 713.804 581.692 712.181 580.764 710.109C579.836 708.037 579.218 705.609 578.909 702.826C578.63 700.043 578.491 697.059 578.491 693.874V663.629C578.491 658.279 579.434 653.95 581.321 650.641C583.238 647.332 586.47 645.678 591.016 645.678C594.386 645.678 596.968 646.404 598.762 647.858C600.587 649.28 601.994 651.275 602.983 653.842V634.359H619.868V716H602.983V708.625C602.056 711.129 600.819 713.109 599.272 714.562C597.757 716.015 595.546 716.742 592.639 716.742ZM598.994 703.754C600.571 703.754 601.623 703.12 602.148 701.852C602.705 700.584 602.983 698.311 602.983 695.033V665.763C602.983 664.124 602.736 662.516 602.241 660.939C601.777 659.331 600.726 658.527 599.087 658.527C597.293 658.527 596.164 659.285 595.701 660.8C595.237 662.315 595.005 663.97 595.005 665.763V695.033C595.005 700.847 596.335 703.754 598.994 703.754ZM646.494 716.742C632.64 716.742 625.713 709.552 625.713 695.172V667.248C625.713 660.692 627.553 655.465 631.233 651.569C634.913 647.641 640 645.678 646.494 645.678C653.019 645.678 658.122 647.641 661.802 651.569C665.482 655.465 667.322 660.692 667.322 667.248V695.172C667.322 709.552 660.379 716.742 646.494 716.742ZM646.494 703.939C647.886 703.939 648.875 703.445 649.463 702.455C650.081 701.435 650.391 700.151 650.391 698.605V664.604C650.391 660.552 649.092 658.527 646.494 658.527C643.896 658.527 642.598 660.552 642.598 664.604V698.605C642.598 700.151 642.891 701.435 643.479 702.455C644.097 703.445 645.102 703.939 646.494 703.939Z" fill="black"/>
<path d="M85.1694 958L92.2251 884.953H117.003L123.934 958H110.113L109.076 946.213H100.277L99.3638 958H85.1694ZM101.314 934.55H107.955L104.759 897.404H104.095L101.314 934.55ZM128.167 958V895.744H143.275V902.675C143.994 900.268 145.267 898.386 147.093 897.031C148.919 895.675 151.216 894.997 153.983 894.997V907.407C152.765 907.407 151.313 907.545 149.625 907.822C147.937 908.071 146.457 908.43 145.184 908.901C143.911 909.344 143.275 909.842 143.275 910.395V958H128.167ZM169.879 958.664C167.001 958.664 164.719 958.138 163.031 957.087C161.343 956.035 160.084 954.583 159.254 952.729C158.424 950.875 157.87 948.703 157.594 946.213C157.345 943.723 157.22 941.053 157.22 938.203V911.142C157.22 906.355 158.064 902.482 159.752 899.521C161.467 896.56 164.359 895.08 168.426 895.08C171.442 895.08 173.753 895.73 175.357 897.031C176.99 898.303 178.249 900.088 179.134 902.385V884.953H194.242V958H179.134V951.401C178.304 953.642 177.197 955.413 175.814 956.713C174.458 958.014 172.48 958.664 169.879 958.664ZM175.565 947.043C176.976 947.043 177.917 946.476 178.387 945.341C178.885 944.207 179.134 942.173 179.134 939.24V913.051C179.134 911.585 178.913 910.146 178.47 908.735C178.055 907.296 177.114 906.577 175.648 906.577C174.043 906.577 173.033 907.254 172.618 908.61C172.203 909.966 171.996 911.446 171.996 913.051V939.24C171.996 944.442 173.185 947.043 175.565 947.043ZM217.401 958.664C212.974 958.664 209.446 957.834 206.817 956.174C204.189 954.514 202.307 952.12 201.173 948.994C200.038 945.867 199.471 942.104 199.471 937.705V912.678C199.471 906.895 201.131 902.523 204.452 899.562C207.772 896.574 212.337 895.08 218.148 895.08C230.101 895.08 236.078 900.946 236.078 912.678V917.202C236.078 922.68 236.022 926.36 235.912 928.242H214.33V940.278C214.33 941.385 214.399 942.477 214.537 943.557C214.675 944.608 214.98 945.48 215.45 946.171C215.948 946.863 216.737 947.209 217.816 947.209C219.365 947.209 220.334 946.545 220.721 945.217C221.109 943.861 221.302 942.104 221.302 939.946V933.969H236.078V937.497C236.078 942.145 235.497 946.047 234.334 949.201C233.2 952.328 231.263 954.693 228.524 956.298C225.812 957.875 222.105 958.664 217.401 958.664ZM214.247 920.854H221.302V912.47C221.302 910.229 221.026 908.624 220.472 907.656C219.919 906.66 219.089 906.162 217.982 906.162C216.792 906.162 215.865 906.632 215.201 907.573C214.565 908.513 214.247 910.146 214.247 912.47V920.854ZM261.644 958V884.953H281.441C286.754 884.953 290.614 886.254 293.021 888.854C295.456 891.428 296.673 895.689 296.673 901.638V904.833C296.673 908.264 296.051 911.045 294.806 913.176C293.588 915.306 291.721 916.704 289.203 917.368C292.495 918.198 294.695 920.148 295.802 923.22C296.936 926.263 297.503 929.985 297.503 934.384C297.503 939.116 297.061 943.252 296.175 946.794C295.29 950.336 293.685 953.089 291.361 955.053C289.037 957.018 285.73 958 281.441 958H261.644ZM275.921 912.47H278.91C280.265 912.47 281.137 911.944 281.524 910.893C281.912 909.842 282.105 908.583 282.105 907.116V899.77C282.105 897.418 281.068 896.242 278.993 896.242H275.921V912.47ZM277.374 945.134C281.165 945.134 283.06 943.335 283.06 939.738V930.607C283.06 928.532 282.742 926.9 282.105 925.71C281.497 924.492 280.335 923.884 278.619 923.884H275.921V945.051C276.53 945.106 277.014 945.134 277.374 945.134ZM320.165 958.664C307.769 958.664 301.571 952.231 301.571 939.365V914.379C301.571 908.513 303.217 903.837 306.51 900.351C309.802 896.837 314.354 895.08 320.165 895.08C326.003 895.08 330.568 896.837 333.861 900.351C337.153 903.837 338.8 908.513 338.8 914.379V939.365C338.8 952.231 332.588 958.664 320.165 958.664ZM320.165 947.209C321.41 947.209 322.295 946.766 322.821 945.881C323.374 944.968 323.651 943.819 323.651 942.436V912.014C323.651 908.389 322.489 906.577 320.165 906.577C317.84 906.577 316.678 908.389 316.678 912.014V942.436C316.678 943.819 316.941 944.968 317.467 945.881C318.02 946.766 318.919 947.209 320.165 947.209ZM361.087 968.791C358.21 968.791 355.733 968.639 353.658 968.334C351.611 968.058 349.771 967.546 348.138 966.799C346.506 966.052 344.873 965 343.241 963.644L348.263 955.053C351.887 957.211 355.512 958.29 359.137 958.29C361.516 958.29 363.287 957.53 364.449 956.008C365.611 954.486 366.192 952.508 366.192 950.073V943.972C365.003 948.233 361.834 950.363 356.688 950.363C353.727 950.363 351.334 949.658 349.508 948.247C347.682 946.835 346.354 944.926 345.523 942.519C344.693 940.112 344.278 937.428 344.278 934.467V912.097C344.278 908.749 344.638 905.802 345.357 903.256C346.077 900.683 347.336 898.677 349.134 897.238C350.933 895.799 353.451 895.08 356.688 895.08C359.427 895.08 361.558 895.772 363.08 897.155C364.629 898.539 365.667 900.406 366.192 902.758V895.744H381.341V949.118C381.341 956.174 379.709 961.21 376.444 964.226C373.207 967.269 368.088 968.791 361.087 968.791ZM362.706 939.157C365.03 939.157 366.192 937.054 366.192 932.849V911.682C366.192 910.547 365.86 909.385 365.196 908.195C364.56 907.005 363.674 906.411 362.54 906.411C361.101 906.411 360.202 906.95 359.842 908.029C359.483 909.081 359.303 910.298 359.303 911.682V932.849C359.303 934.343 359.483 935.768 359.842 937.123C360.23 938.479 361.184 939.157 362.706 939.157ZM405.248 958.664C392.852 958.664 386.654 952.231 386.654 939.365V914.379C386.654 908.513 388.3 903.837 391.593 900.351C394.885 896.837 399.437 895.08 405.248 895.08C411.086 895.08 415.651 896.837 418.944 900.351C422.236 903.837 423.883 908.513 423.883 914.379V939.365C423.883 952.231 417.671 958.664 405.248 958.664ZM405.248 947.209C406.493 947.209 407.378 946.766 407.904 945.881C408.457 944.968 408.734 943.819 408.734 942.436V912.014C408.734 908.389 407.572 906.577 405.248 906.577C402.923 906.577 401.761 908.389 401.761 912.014V942.436C401.761 943.819 402.024 944.968 402.55 945.881C403.103 946.766 404.002 947.209 405.248 947.209ZM442.186 958.664C438.174 958.664 435.462 957.82 434.051 956.132C432.668 954.417 431.976 951.802 431.976 948.288V909.482H427.784V898.151H431.976V884.953H446.419V898.151H450.611V909.482H446.419V944.802C446.419 945.825 446.585 946.545 446.917 946.96C447.25 947.375 447.886 947.582 448.827 947.582C449.491 947.582 450.086 947.527 450.611 947.416V957.543C450.279 957.654 449.242 957.862 447.499 958.166C445.755 958.498 443.985 958.664 442.186 958.664ZM466.715 958.664C463.256 958.664 460.614 957.862 458.788 956.257C456.989 954.652 455.758 952.452 455.094 949.658C454.43 946.863 454.098 943.695 454.098 940.153C454.098 936.363 454.471 933.264 455.218 930.856C455.965 928.421 457.238 926.429 459.037 924.88C460.863 923.33 463.367 922.016 466.549 920.937L475.763 917.783V911.391C475.763 908.043 474.67 906.369 472.484 906.369C470.492 906.369 469.496 907.725 469.496 910.436V914.172H455.052C455.025 913.95 455.011 913.674 455.011 913.342C455.011 912.982 455.011 912.581 455.011 912.138C455.011 905.94 456.463 901.555 459.369 898.981C462.302 896.38 466.936 895.08 473.272 895.08C476.593 895.08 479.567 895.675 482.196 896.865C484.824 898.027 486.9 899.756 488.421 902.053C489.971 904.349 490.746 907.185 490.746 910.561V958H475.97V950.612C475.251 953.213 474.061 955.205 472.401 956.589C470.741 957.972 468.845 958.664 466.715 958.664ZM472.567 947.126C473.784 947.126 474.614 946.614 475.057 945.59C475.5 944.567 475.721 943.46 475.721 942.27V924.921C473.674 925.751 472.083 926.803 470.948 928.076C469.814 929.321 469.247 931.161 469.247 933.596V941.606C469.247 945.286 470.353 947.126 472.567 947.126ZM463.395 892.88V883.625L483.109 874.577V888.979L463.395 892.88Z" fill="black"/>
<path d="M1121.43 717.066V635.426H1146.47C1150.65 635.426 1153.8 636.384 1155.94 638.302C1158.07 640.188 1159.49 642.848 1160.2 646.28C1160.95 649.682 1161.32 653.687 1161.32 658.294C1161.32 662.748 1160.75 666.304 1159.6 668.963C1158.49 671.623 1156.37 673.463 1153.25 674.483C1155.81 675.009 1157.61 676.292 1158.63 678.333C1159.68 680.344 1160.2 682.957 1160.2 686.173V717.066H1144.11V685.106C1144.11 682.725 1143.61 681.256 1142.62 680.699C1141.67 680.112 1140.1 679.818 1137.94 679.818V717.066H1121.43ZM1138.03 665.67H1141.97C1144.23 665.67 1145.36 663.211 1145.36 658.294C1145.36 655.109 1145.11 653.022 1144.62 652.032C1144.12 651.043 1143.2 650.548 1141.84 650.548H1138.03V665.67ZM1185.9 717.809C1180.96 717.809 1177.01 716.881 1174.07 715.025C1171.14 713.17 1169.03 710.495 1167.77 707C1166.5 703.506 1165.86 699.3 1165.86 694.383V666.412C1165.86 659.949 1167.72 655.063 1171.43 651.754C1175.14 648.414 1180.24 646.744 1186.74 646.744C1200.1 646.744 1206.78 653.3 1206.78 666.412V671.468C1206.78 677.591 1206.72 681.704 1206.59 683.807H1182.47V697.259C1182.47 698.496 1182.55 699.718 1182.7 700.924C1182.86 702.099 1183.2 703.073 1183.72 703.846C1184.28 704.619 1185.16 705.006 1186.37 705.006C1188.1 705.006 1189.18 704.264 1189.61 702.779C1190.05 701.264 1190.26 699.3 1190.26 696.888V690.208H1206.78V694.151C1206.78 699.347 1206.13 703.707 1204.83 707.232C1203.56 710.727 1201.4 713.371 1198.33 715.165C1195.3 716.927 1191.16 717.809 1185.9 717.809ZM1182.38 675.55H1190.26V666.18C1190.26 663.675 1189.95 661.882 1189.34 660.799C1188.72 659.686 1187.79 659.129 1186.55 659.129C1185.22 659.129 1184.19 659.655 1183.44 660.707C1182.73 661.758 1182.38 663.583 1182.38 666.18V675.55ZM1212.81 717.066V635.426H1229.69V717.066H1212.81ZM1255.44 717.809C1241.71 717.809 1234.84 710.851 1234.84 696.935V691.415H1251.54V699.579C1251.54 701.156 1251.85 702.393 1252.47 703.29C1253.09 704.186 1254.08 704.635 1255.44 704.635C1257.85 704.635 1259.05 702.826 1259.05 699.208C1259.05 696.177 1258.42 693.919 1257.15 692.435C1255.89 690.92 1254.34 689.466 1252.51 688.075L1243.65 681.256C1240.87 679.091 1238.75 676.803 1237.3 674.391C1235.85 671.979 1235.12 668.623 1235.12 664.325C1235.12 660.335 1236.06 657.042 1237.95 654.444C1239.87 651.847 1242.39 649.914 1245.51 648.646C1248.66 647.378 1252.07 646.744 1255.72 646.744C1269.2 646.744 1275.94 653.47 1275.94 666.922V668.221H1258.78V665.577C1258.78 664.186 1258.53 662.84 1258.03 661.542C1257.57 660.243 1256.64 659.593 1255.25 659.593C1252.9 659.593 1251.73 660.83 1251.73 663.304C1251.73 665.809 1252.72 667.773 1254.69 669.195L1264.99 676.71C1268.21 679.029 1270.9 681.782 1273.06 684.967C1275.26 688.152 1276.36 692.389 1276.36 697.677C1276.36 704.233 1274.49 709.227 1270.74 712.66C1267.03 716.092 1261.93 717.809 1255.44 717.809ZM1304 717.066V635.426H1326.13C1332.07 635.426 1336.38 636.879 1339.07 639.786C1341.79 642.662 1343.15 647.424 1343.15 654.073V657.645C1343.15 661.48 1342.46 664.588 1341.07 666.969C1339.71 669.35 1337.62 670.912 1334.8 671.654C1338.48 672.582 1340.94 674.762 1342.18 678.194C1343.45 681.596 1344.08 685.755 1344.08 690.672C1344.08 695.96 1343.59 700.584 1342.6 704.542C1341.61 708.5 1339.81 711.577 1337.22 713.773C1334.62 715.969 1330.92 717.066 1326.13 717.066H1304ZM1319.96 666.18H1323.3C1324.82 666.18 1325.79 665.593 1326.22 664.417C1326.66 663.242 1326.87 661.835 1326.87 660.196V651.986C1326.87 649.357 1325.71 648.043 1323.39 648.043H1319.96V666.18ZM1321.58 702.687C1325.82 702.687 1327.94 700.676 1327.94 696.656V686.451C1327.94 684.132 1327.58 682.307 1326.87 680.978C1326.19 679.617 1324.89 678.937 1322.98 678.937H1319.96V702.594C1320.64 702.656 1321.18 702.687 1321.58 702.687Z" fill="black"/>
<path d="M224.198 418.898C215.176 418.898 208.662 416.652 204.657 412.16C200.689 407.668 198.705 400.518 198.705 390.71V381.052H218.246V393.405C218.246 395.689 218.583 397.486 219.257 398.796C219.968 400.069 221.184 400.705 222.906 400.705C224.703 400.705 225.939 400.181 226.612 399.133C227.324 398.085 227.679 396.363 227.679 393.967C227.679 390.935 227.38 388.408 226.781 386.386C226.182 384.327 225.134 382.381 223.636 380.546C222.176 378.675 220.136 376.503 217.516 374.033L208.644 365.61C202.018 359.358 198.705 352.208 198.705 344.16C198.705 335.737 200.651 329.317 204.545 324.899C208.475 320.482 214.147 318.273 221.559 318.273C230.618 318.273 237.038 320.688 240.819 325.517C244.637 330.346 246.547 337.683 246.547 347.529H226.444V340.734C226.444 339.387 226.051 338.339 225.265 337.59C224.516 336.841 223.487 336.467 222.176 336.467C220.604 336.467 219.444 336.916 218.695 337.814C217.984 338.675 217.628 339.799 217.628 341.184C217.628 342.569 218.002 344.066 218.751 345.676C219.5 347.285 220.979 349.139 223.187 351.235L234.586 362.185C236.87 364.356 238.966 366.658 240.875 369.091C242.784 371.487 244.319 374.295 245.48 377.514C246.64 380.696 247.22 384.589 247.22 389.194C247.22 398.478 245.498 405.759 242.054 411.037C238.648 416.278 232.696 418.898 224.198 418.898ZM270.804 418.898C265.376 418.898 261.708 417.757 259.799 415.473C257.927 413.152 256.991 409.615 256.991 404.86V352.358H251.32V337.028H256.991V319.172H276.532V337.028H282.203V352.358H276.532V400.144C276.532 401.529 276.757 402.502 277.206 403.063C277.655 403.625 278.516 403.906 279.789 403.906C280.687 403.906 281.492 403.831 282.203 403.681V417.382C281.754 417.532 280.35 417.813 277.992 418.225C275.633 418.674 273.238 418.898 270.804 418.898ZM312.245 418.898C306.255 418.898 301.482 417.775 297.926 415.529C294.37 413.283 291.824 410.045 290.289 405.815C288.754 401.585 287.987 396.494 287.987 390.542V356.682C287.987 348.858 290.233 342.943 294.725 338.938C299.217 334.895 305.394 332.873 313.256 332.873C329.427 332.873 337.513 340.809 337.513 356.682V362.802C337.513 370.214 337.438 375.193 337.289 377.739H308.09V394.023C308.09 395.52 308.183 396.999 308.37 398.459C308.557 399.882 308.969 401.061 309.606 401.997C310.279 402.932 311.346 403.4 312.806 403.4C314.903 403.4 316.213 402.502 316.737 400.705C317.261 398.871 317.523 396.494 317.523 393.574V385.488H337.513V390.261C337.513 396.55 336.727 401.828 335.155 406.096C333.62 410.326 331 413.527 327.294 415.698C323.625 417.832 318.609 418.898 312.245 418.898ZM307.977 367.744H317.523V356.401C317.523 353.369 317.149 351.197 316.4 349.887C315.651 348.54 314.528 347.866 313.031 347.866C311.421 347.866 310.167 348.502 309.269 349.775C308.408 351.048 307.977 353.256 307.977 356.401V367.744ZM355.538 418L342.006 333.771H362.164L366.993 390.036L372.44 333.771H392.543L378.785 418H355.538ZM421.405 418.898C415.415 418.898 410.642 417.775 407.086 415.529C403.53 413.283 400.984 410.045 399.449 405.815C397.915 401.585 397.147 396.494 397.147 390.542V356.682C397.147 348.858 399.393 342.943 403.885 338.938C408.378 334.895 414.554 332.873 422.416 332.873C438.588 332.873 446.674 340.809 446.674 356.682V362.802C446.674 370.214 446.599 375.193 446.449 377.739H417.25V394.023C417.25 395.52 417.343 396.999 417.53 398.459C417.718 399.882 418.129 401.061 418.766 401.997C419.44 402.932 420.507 403.4 421.966 403.4C424.063 403.4 425.373 402.502 425.897 400.705C426.421 398.871 426.683 396.494 426.683 393.574V385.488H446.674V390.261C446.674 396.55 445.887 401.828 444.315 406.096C442.78 410.326 440.16 413.527 436.454 415.698C432.785 417.832 427.769 418.898 421.405 418.898ZM417.137 367.744H426.683V356.401C426.683 353.369 426.309 351.197 425.56 349.887C424.812 348.54 423.688 347.866 422.191 347.866C420.581 347.866 419.327 348.502 418.429 349.775C417.568 351.048 417.137 353.256 417.137 356.401V367.744ZM478.568 418L488.114 319.172H521.637L531.014 418H512.316L510.912 402.053H499.008L497.772 418H478.568ZM500.411 386.274H509.396L505.072 336.018H504.174L500.411 386.274ZM561.224 418.898C544.453 418.898 536.068 410.195 536.068 392.788V358.984C536.068 351.048 538.295 344.721 542.75 340.004C547.205 335.25 553.363 332.873 561.224 332.873C569.123 332.873 575.3 335.25 579.755 340.004C584.209 344.721 586.437 351.048 586.437 358.984V392.788C586.437 410.195 578.033 418.898 561.224 418.898ZM561.224 403.4C562.909 403.4 564.107 402.801 564.818 401.604C565.567 400.368 565.941 398.815 565.941 396.943V355.783C565.941 350.879 564.369 348.427 561.224 348.427C558.08 348.427 556.508 350.879 556.508 355.783V396.943C556.508 398.815 556.863 400.368 557.574 401.604C558.323 402.801 559.54 403.4 561.224 403.4ZM593.905 418V319.172H613.783V362.802L623.441 333.771H644.274L631.639 370.383L647.699 418H626.305L613.783 378.3V418H593.905ZM650.282 328.605V311.872H670.384V328.605H650.282ZM650.282 418V333.771H670.384V418H650.282Z" fill="black"/>
<path d="M945.149 225V143.359H970.012L976.877 193.132L983.696 143.359H1008.79V225H993.855V166.182L984.485 225H969.827L959.9 166.182V225H945.149ZM1028.41 225.742C1024.55 225.742 1021.59 224.845 1019.55 223.052C1017.54 221.258 1016.17 218.8 1015.42 215.676C1014.68 212.553 1014.31 209.012 1014.31 205.054C1014.31 200.817 1014.73 197.354 1015.56 194.663C1016.4 191.942 1017.82 189.715 1019.83 187.983C1021.87 186.252 1024.67 184.783 1028.23 183.577L1038.53 180.051V172.908C1038.53 169.166 1037.3 167.295 1034.86 167.295C1032.63 167.295 1031.52 168.81 1031.52 171.841V176.016H1015.38C1015.35 175.768 1015.33 175.459 1015.33 175.088C1015.33 174.686 1015.33 174.237 1015.33 173.743C1015.33 166.816 1016.96 161.914 1020.2 159.038C1023.48 156.131 1028.66 154.678 1035.74 154.678C1039.45 154.678 1042.78 155.343 1045.72 156.672C1048.65 157.971 1050.97 159.904 1052.67 162.471C1054.41 165.037 1055.27 168.207 1055.27 171.98V225H1038.76V216.743C1037.95 219.65 1036.62 221.877 1034.77 223.423C1032.91 224.969 1030.79 225.742 1028.41 225.742ZM1034.95 212.847C1036.31 212.847 1037.24 212.275 1037.74 211.13C1038.23 209.986 1038.48 208.749 1038.48 207.419V188.03C1036.19 188.958 1034.41 190.133 1033.14 191.555C1031.88 192.947 1031.24 195.003 1031.24 197.725V206.677C1031.24 210.79 1032.48 212.847 1034.95 212.847ZM1061.67 225V143.359H1078.56V225H1061.67ZM1098.64 225.742C1094.93 225.742 1092.09 224.969 1090.11 223.423C1088.16 221.877 1086.83 219.727 1086.12 216.975C1085.41 214.192 1085.05 210.945 1085.05 207.234V155.42H1101.75V205.286C1101.75 208.069 1101.97 210.017 1102.4 211.13C1102.83 212.213 1103.85 212.754 1105.46 212.754C1107.19 212.754 1108.28 211.981 1108.71 210.435C1109.17 208.888 1109.4 206.894 1109.4 204.451V155.42H1125.96V225H1109.36V217.578C1108.31 220.238 1107.04 222.263 1105.55 223.655C1104.1 225.046 1101.8 225.742 1098.64 225.742ZM1132.64 225V155.42H1148.88V163.491C1149.62 160.646 1150.89 158.466 1152.68 156.951C1154.48 155.435 1157.11 154.678 1160.57 154.678C1163.35 154.678 1165.72 155.327 1167.67 156.626C1169.65 157.894 1171.04 159.579 1171.84 161.682C1173.11 159.394 1174.59 157.662 1176.29 156.487C1178.03 155.281 1180.48 154.678 1183.67 154.678C1187.53 154.678 1190.5 155.513 1192.58 157.183C1194.68 158.822 1196.13 161.11 1196.94 164.048C1197.77 166.955 1198.19 170.326 1198.19 174.16V225H1181.63V173.882C1181.63 169.398 1180.48 167.156 1178.2 167.156C1176.99 167.156 1176.06 167.573 1175.41 168.408C1174.76 169.212 1174.31 170.217 1174.07 171.423C1173.82 172.629 1173.7 173.835 1173.7 175.042V225H1157.14V173.882C1157.14 172.428 1156.95 170.975 1156.58 169.521C1156.24 168.068 1155.34 167.341 1153.89 167.341C1152.65 167.341 1151.69 167.79 1151.01 168.687C1150.33 169.583 1149.87 170.697 1149.62 172.026C1149.37 173.325 1149.25 174.609 1149.25 175.876V225H1132.64ZM1217.39 225.742C1213.53 225.742 1210.57 224.845 1208.53 223.052C1206.52 221.258 1205.15 218.8 1204.4 215.676C1203.66 212.553 1203.29 209.012 1203.29 205.054C1203.29 200.817 1203.71 197.354 1204.54 194.663C1205.38 191.942 1206.8 189.715 1208.81 187.983C1210.85 186.252 1213.65 184.783 1217.21 183.577L1227.5 180.051V172.908C1227.5 169.166 1226.28 167.295 1223.84 167.295C1221.61 167.295 1220.5 168.81 1220.5 171.841V176.016H1204.36C1204.33 175.768 1204.31 175.459 1204.31 175.088C1204.31 174.686 1204.31 174.237 1204.31 173.743C1204.31 166.816 1205.93 161.914 1209.18 159.038C1212.46 156.131 1217.64 154.678 1224.72 154.678C1228.43 154.678 1231.76 155.343 1234.69 156.672C1237.63 157.971 1239.95 159.904 1241.65 162.471C1243.38 165.037 1244.25 168.207 1244.25 171.98V225H1227.74V216.743C1226.93 219.65 1225.6 221.877 1223.75 223.423C1221.89 224.969 1219.77 225.742 1217.39 225.742ZM1223.93 212.847C1225.29 212.847 1226.22 212.275 1226.72 211.13C1227.21 209.986 1227.46 208.749 1227.46 207.419V188.03C1225.17 188.958 1223.39 190.133 1222.12 191.555C1220.86 192.947 1220.22 195.003 1220.22 197.725V206.677C1220.22 210.79 1221.46 212.847 1223.93 212.847Z" fill="black"/>
<path d="M1080.47 943.466V929.896L1073.89 902.216H1082.07L1084.36 916.185L1086.66 902.216H1094.82L1088.25 929.896V943.466H1080.47ZM1108.01 943.466V908.31H1116.22V912.388C1116.59 910.951 1117.23 909.849 1118.14 909.084C1119.04 908.318 1120.37 907.935 1122.12 907.935C1123.53 907.935 1124.72 908.263 1125.71 908.92C1126.71 909.56 1127.41 910.412 1127.82 911.474C1128.46 910.318 1129.21 909.443 1130.07 908.849C1130.94 908.24 1132.18 907.935 1133.79 907.935C1135.75 907.935 1137.25 908.357 1138.29 909.201C1139.36 910.029 1140.09 911.185 1140.5 912.67C1140.92 914.138 1141.13 915.841 1141.13 917.779V943.466H1132.76V917.638C1132.76 915.373 1132.18 914.24 1131.03 914.24C1130.42 914.24 1129.95 914.451 1129.62 914.873C1129.29 915.279 1129.07 915.787 1128.94 916.396C1128.82 917.006 1128.75 917.615 1128.75 918.224V943.466H1120.39V917.638C1120.39 916.904 1120.29 916.17 1120.11 915.435C1119.93 914.701 1119.48 914.334 1118.75 914.334C1118.12 914.334 1117.64 914.56 1117.29 915.013C1116.95 915.466 1116.72 916.029 1116.59 916.701C1116.47 917.357 1116.4 918.006 1116.4 918.646V943.466H1108.01ZM1151.21 943.841C1149.33 943.841 1147.89 943.451 1146.89 942.67C1145.91 941.888 1145.24 940.802 1144.88 939.412C1144.52 938.006 1144.34 936.365 1144.34 934.49V908.31H1152.78V933.506C1152.78 934.912 1152.89 935.896 1153.11 936.459C1153.32 937.006 1153.84 937.279 1154.65 937.279C1155.53 937.279 1156.07 936.888 1156.29 936.107C1156.53 935.326 1156.64 934.318 1156.64 933.084V908.31H1165.01V943.466H1156.62V939.716C1156.09 941.06 1155.45 942.084 1154.7 942.787C1153.97 943.49 1152.8 943.841 1151.21 943.841ZM1178.96 943.841C1175.02 943.841 1172.22 942.834 1170.57 940.818C1168.93 938.802 1168.11 935.841 1168.11 931.935V921.107C1168.11 918.17 1168.42 915.724 1169.04 913.771C1169.67 911.818 1170.76 910.357 1172.32 909.388C1173.89 908.42 1176.06 907.935 1178.84 907.935C1180.78 907.935 1182.51 908.279 1184.04 908.966C1185.59 909.654 1186.81 910.662 1187.7 911.99C1188.59 913.318 1189.04 914.943 1189.04 916.865V922.232H1180.48V917.31C1180.48 916.498 1180.36 915.818 1180.13 915.271C1179.89 914.709 1179.39 914.427 1178.61 914.427C1177.23 914.427 1176.54 915.404 1176.54 917.357V934.396C1176.54 935.115 1176.7 935.779 1177.01 936.388C1177.32 936.982 1177.84 937.279 1178.56 937.279C1179.29 937.279 1179.8 936.99 1180.08 936.412C1180.38 935.818 1180.53 935.131 1180.53 934.349V928.443H1189.04V934.584C1189.04 936.521 1188.6 938.185 1187.72 939.576C1186.86 940.951 1185.68 942.006 1184.16 942.74C1182.64 943.474 1180.91 943.841 1178.96 943.841ZM1191.97 943.466V902.216H1200.59V911.802C1201.04 910.49 1201.74 909.521 1202.68 908.896C1203.61 908.256 1204.71 907.935 1205.96 907.935C1208.39 907.935 1210.17 908.701 1211.28 910.232C1212.39 911.763 1212.94 913.818 1212.94 916.396V943.466H1204.46V916.935C1204.46 916.17 1204.29 915.545 1203.97 915.06C1203.65 914.576 1203.15 914.334 1202.47 914.334C1201.89 914.334 1201.43 914.584 1201.08 915.084C1200.75 915.584 1200.59 916.177 1200.59 916.865V943.466H1191.97ZM1226.47 943.841C1219.47 943.841 1215.97 940.209 1215.97 932.943V918.834C1215.97 915.521 1216.89 912.881 1218.75 910.912C1220.61 908.927 1223.18 907.935 1226.47 907.935C1229.76 907.935 1232.34 908.927 1234.2 910.912C1236.06 912.881 1236.99 915.521 1236.99 918.834V932.943C1236.99 940.209 1233.48 943.841 1226.47 943.841ZM1226.47 937.373C1227.17 937.373 1227.67 937.123 1227.97 936.623C1228.28 936.107 1228.43 935.459 1228.43 934.677V917.498C1228.43 915.451 1227.78 914.427 1226.47 914.427C1225.15 914.427 1224.5 915.451 1224.5 917.498V934.677C1224.5 935.459 1224.64 936.107 1224.94 936.623C1225.25 937.123 1225.76 937.373 1226.47 937.373ZM1249.74 943.841C1242.8 943.841 1239.33 940.326 1239.33 933.295V930.506H1247.77V934.631C1247.77 935.427 1247.93 936.052 1248.24 936.506C1248.55 936.959 1249.05 937.185 1249.74 937.185C1250.96 937.185 1251.57 936.271 1251.57 934.443C1251.57 932.912 1251.25 931.771 1250.61 931.021C1249.97 930.256 1249.18 929.521 1248.26 928.818L1243.79 925.373C1242.38 924.279 1241.31 923.123 1240.57 921.904C1239.84 920.685 1239.47 918.99 1239.47 916.818C1239.47 914.802 1239.95 913.138 1240.9 911.826C1241.87 910.513 1243.14 909.537 1244.72 908.896C1246.32 908.256 1248.04 907.935 1249.88 907.935C1256.69 907.935 1260.1 911.334 1260.1 918.131V918.787H1251.43V917.451C1251.43 916.748 1251.3 916.068 1251.05 915.412C1250.82 914.756 1250.35 914.427 1249.64 914.427C1248.46 914.427 1247.86 915.052 1247.86 916.302C1247.86 917.568 1248.36 918.56 1249.36 919.279L1254.57 923.076C1256.19 924.248 1257.55 925.638 1258.64 927.248C1259.75 928.857 1260.31 930.998 1260.31 933.67C1260.31 936.982 1259.36 939.506 1257.47 941.24C1255.6 942.974 1253.02 943.841 1249.74 943.841ZM1274.14 943.466V908.31H1282.34V912.388C1282.72 910.951 1283.36 909.849 1284.26 909.084C1285.17 908.318 1286.5 907.935 1288.25 907.935C1289.65 907.935 1290.85 908.263 1291.83 908.92C1292.83 909.56 1293.54 910.412 1293.94 911.474C1294.58 910.318 1295.33 909.443 1296.19 908.849C1297.07 908.24 1298.31 907.935 1299.92 907.935C1301.87 907.935 1303.37 908.357 1304.42 909.201C1305.48 910.029 1306.22 911.185 1306.62 912.67C1307.04 914.138 1307.25 915.841 1307.25 917.779V943.466H1298.89V917.638C1298.89 915.373 1298.31 914.24 1297.15 914.24C1296.54 914.24 1296.07 914.451 1295.75 914.873C1295.42 915.279 1295.19 915.787 1295.07 916.396C1294.94 917.006 1294.88 917.615 1294.88 918.224V943.466H1286.51V917.638C1286.51 916.904 1286.42 916.17 1286.23 915.435C1286.06 914.701 1285.61 914.334 1284.87 914.334C1284.25 914.334 1283.76 914.56 1283.42 915.013C1283.07 915.466 1282.84 916.029 1282.72 916.701C1282.59 917.357 1282.53 918.006 1282.53 918.646V943.466H1274.14ZM1316.96 943.841C1315 943.841 1313.51 943.388 1312.48 942.482C1311.47 941.576 1310.77 940.334 1310.39 938.756C1310.02 937.177 1309.83 935.388 1309.83 933.388C1309.83 931.248 1310.04 929.498 1310.47 928.138C1310.89 926.763 1311.61 925.638 1312.62 924.763C1313.65 923.888 1315.07 923.146 1316.86 922.537L1322.07 920.756V917.146C1322.07 915.256 1321.45 914.31 1320.22 914.31C1319.09 914.31 1318.53 915.076 1318.53 916.607V918.716H1310.37C1310.36 918.591 1310.35 918.435 1310.35 918.248C1310.35 918.045 1310.35 917.818 1310.35 917.568C1310.35 914.068 1311.17 911.591 1312.81 910.138C1314.47 908.67 1317.08 907.935 1320.66 907.935C1322.54 907.935 1324.22 908.271 1325.7 908.943C1327.18 909.599 1328.36 910.576 1329.22 911.873C1330.09 913.17 1330.53 914.771 1330.53 916.677V943.466H1322.18V939.295C1321.78 940.763 1321.11 941.888 1320.17 942.67C1319.23 943.451 1318.16 943.841 1316.96 943.841ZM1320.26 937.326C1320.95 937.326 1321.42 937.037 1321.67 936.459C1321.92 935.881 1322.04 935.256 1322.04 934.584V924.787C1320.89 925.256 1319.99 925.849 1319.35 926.568C1318.71 927.271 1318.39 928.31 1318.39 929.685V934.209C1318.39 936.287 1319.01 937.326 1320.26 937.326ZM1315.08 906.693V901.466L1326.22 896.357V904.49L1315.08 906.693ZM1343.39 943.841C1336.46 943.841 1332.99 940.326 1332.99 933.295V930.506H1341.43V934.631C1341.43 935.427 1341.58 936.052 1341.89 936.506C1342.21 936.959 1342.71 937.185 1343.39 937.185C1344.61 937.185 1345.22 936.271 1345.22 934.443C1345.22 932.912 1344.9 931.771 1344.26 931.021C1343.62 930.256 1342.84 929.521 1341.92 928.818L1337.44 925.373C1336.04 924.279 1334.97 923.123 1334.23 921.904C1333.5 920.685 1333.13 918.99 1333.13 916.818C1333.13 914.802 1333.61 913.138 1334.56 911.826C1335.53 910.513 1336.8 909.537 1338.38 908.896C1339.97 908.256 1341.69 907.935 1343.54 907.935C1350.35 907.935 1353.75 911.334 1353.75 918.131V918.787H1345.08V917.451C1345.08 916.748 1344.96 916.068 1344.71 915.412C1344.47 914.756 1344 914.427 1343.3 914.427C1342.11 914.427 1341.52 915.052 1341.52 916.302C1341.52 917.568 1342.02 918.56 1343.02 919.279L1348.22 923.076C1349.85 924.248 1351.21 925.638 1352.3 927.248C1353.41 928.857 1353.97 930.998 1353.97 933.67C1353.97 936.982 1353.02 939.506 1351.13 941.24C1349.25 942.974 1346.68 943.841 1343.39 943.841ZM1356.14 943.443V936.459H1364.54V943.443H1356.14ZM1367.11 943.443V936.459H1375.5V943.443H1367.11ZM1378.08 943.443V936.459H1386.47V943.443H1378.08Z" fill="black"/>
<rect x="726.747" y="370" width="429.387" height="244" fill="#F67449" stroke="black" stroke-width="2"/>
</svg>
