<svg width="302" height="89" viewBox="0 0 302 89" fill="none" xmlns="http://www.w3.org/2000/svg">
<rect x="1" y="1" width="299.5" height="87" fill="white" stroke="black" stroke-width="2"/>
<path d="M39.9346 66V23.0312H53.0205L56.6338 49.2275L60.2227 23.0312H73.4307V66H65.5693V35.043L60.6377 66H52.9229L47.6982 35.043V66H39.9346ZM76.0674 66L80.2178 23.0312H94.793L98.8701 66H90.7402L90.1299 59.0664H84.9541L84.417 66H76.0674ZM85.5645 52.2061H89.4707L87.5908 30.3555H87.2002L85.5645 52.2061ZM101.507 66V23.0312H114.69C116.888 23.0312 118.548 23.5358 119.671 24.5449C120.794 25.5378 121.543 26.9375 121.917 28.7441C122.308 30.5345 122.503 32.6423 122.503 35.0674C122.503 37.4111 122.202 39.2829 121.6 40.6826C121.014 42.0824 119.899 43.0508 118.255 43.5879C119.606 43.8646 120.55 44.54 121.087 45.6143C121.64 46.6722 121.917 48.0475 121.917 49.7402V66H113.445V49.1787C113.445 47.9255 113.185 47.1523 112.664 46.8594C112.16 46.5501 111.338 46.3955 110.198 46.3955V66H101.507ZM110.247 38.9492H112.322C113.51 38.9492 114.104 37.6553 114.104 35.0674C114.104 33.391 113.974 32.2923 113.714 31.7715C113.453 31.2507 112.965 30.9902 112.249 30.9902H110.247V38.9492ZM125.335 66V23.0312H142.522V31.332H134.075V39.7061H142.181V47.7871H134.075V57.626H143.084V66H125.335ZM144.769 66L148.919 23.0312H163.494L167.571 66H159.441L158.831 59.0664H153.655L153.118 66H144.769ZM154.266 52.2061H158.172L156.292 30.3555H155.901L154.266 52.2061ZM181.927 66V23.0312H199.114V31.4053H190.569V38.2412H198.675V46.5176H190.569V66H181.927ZM201.897 66V23.0312H219.085V31.332H210.638V39.7061H218.743V47.7871H210.638V57.626H219.646V66H201.897ZM232.708 66.3906C228.785 66.3906 225.953 65.4141 224.212 63.4609C222.487 61.5078 221.624 58.3991 221.624 54.1348V49.9355H230.12V55.3066C230.12 56.2995 230.267 57.0807 230.56 57.6504C230.869 58.2038 231.398 58.4805 232.146 58.4805C232.928 58.4805 233.465 58.2526 233.758 57.7969C234.067 57.3411 234.222 56.5924 234.222 55.5508C234.222 54.2324 234.091 53.1338 233.831 52.2549C233.571 51.3597 233.115 50.5133 232.464 49.7158C231.829 48.902 230.942 47.958 229.803 46.8838L225.945 43.2217C223.064 40.5036 221.624 37.3949 221.624 33.8955C221.624 30.2334 222.47 27.4421 224.163 25.5215C225.872 23.6009 228.338 22.6406 231.561 22.6406C235.499 22.6406 238.291 23.6904 239.935 25.79C241.595 27.8896 242.425 31.0798 242.425 35.3604H233.685V32.4062C233.685 31.8203 233.514 31.3646 233.172 31.0391C232.846 30.7135 232.399 30.5508 231.829 30.5508C231.146 30.5508 230.641 30.7461 230.315 31.1367C230.006 31.5111 229.852 31.9993 229.852 32.6016C229.852 33.2038 230.014 33.8548 230.34 34.5547C230.665 35.2546 231.308 36.0602 232.269 36.9717L237.225 41.7324C238.217 42.6764 239.129 43.6774 239.959 44.7354C240.789 45.777 241.456 46.9977 241.961 48.3975C242.465 49.7809 242.718 51.4736 242.718 53.4756C242.718 57.512 241.969 60.6777 240.472 62.9727C238.991 65.2513 236.403 66.3906 232.708 66.3906ZM249.285 66V31.2832H244.183V23.0312H262.981V31.2832H257.879V66H249.285Z" fill="black"/>
</svg>
