<svg width="341" height="366" viewBox="0 0 341 366" fill="none" xmlns="http://www.w3.org/2000/svg">
<g filter="url(#filter0_d_108_83)">
<mask id="path-1-inside-1_108_83" fill="white">
<path d="M160.341 3.14278C192.327 11.7771 203.486 35.9576 206.989 56.3511C210.22 35.9147 221.06 11.5888 252.928 2.53241C270.233 -2.38674 290.234 0.535226 301.939 5.54787C301.939 5.54787 297.939 8.27242 291.621 12.9127C286.847 16.4173 281.26 18.6764 275.382 19.3823C275.34 19.387 275.298 19.3918 275.257 19.3965C269.166 20.1133 263.012 19.6239 256.899 19.0665C262.487 22.1758 268.155 24.6658 273.84 26.513C272.749 27.3876 271.639 28.278 270.519 29.1872C267.646 31.5178 264.421 33.3919 260.933 34.6252C260.25 34.8668 259.564 35.0889 258.868 35.2985C253.435 36.9285 247.751 37.4712 242.091 37.9453C246.719 39.5448 251.325 40.7492 255.88 41.5572C254.248 43.0008 252.617 44.4633 250.994 45.9489C249.48 47.3363 247.776 48.5131 245.908 49.3735C245.811 49.4183 245.714 49.4608 245.621 49.5014C241.84 51.1609 237.638 51.7839 233.447 52.3468C236.225 53.3867 238.951 54.2265 241.617 54.8708C238.309 58.1556 235.121 61.4894 232.137 64.8283C250.682 53.9841 276.701 47.202 304.945 65.6261C320.977 76.0815 332.598 94.1792 336.746 107.073C336.746 107.073 331.765 105.767 323.63 103.933C317.483 102.55 311.769 99.6443 307.098 95.4163C307.063 95.3876 307.031 95.3562 306.999 95.3276C302.171 90.9369 298.265 85.6537 294.443 80.3589C295.852 87.0147 297.809 93.3037 300.297 99.1592C298.834 98.891 297.343 98.6233 295.829 98.3592C291.953 97.681 288.197 96.4007 284.771 94.4629C284.1 94.0835 283.442 93.6856 282.79 93.2733C277.687 90.051 273.282 85.8663 268.95 81.6546C270.897 86.4857 273.146 91.0245 275.679 95.2432C273.381 94.9399 271.067 94.6551 268.742 94.3893C266.568 94.1424 264.436 93.5944 262.441 92.6981C262.337 92.6504 262.236 92.6028 262.137 92.5551C258.165 90.6784 254.731 87.742 251.352 84.7699C252.459 87.7244 253.685 90.5017 255.033 93.0898C250.665 92.7721 246.333 92.5538 242.1 92.4656C262.8 99.1255 285.854 114.234 290.588 148.351C293.221 167.308 287.193 187.954 280.186 199.548C280.186 199.548 277.906 194.932 273.949 187.59C270.958 182.046 269.402 175.826 269.524 169.527C269.524 169.481 269.527 169.438 269.527 169.394C269.67 162.871 271.091 156.457 272.58 150.098C268.482 155.527 265.022 161.132 262.237 166.852C261.477 165.573 260.702 164.274 259.907 162.957C257.875 159.587 256.376 155.911 255.591 152.056C255.436 151.301 255.303 150.542 255.188 149.779C254.269 143.815 254.535 137.744 254.871 131.712C252.503 136.352 250.554 141.026 249.033 145.709C247.754 143.776 246.451 141.842 245.126 139.914C243.887 138.112 242.9 136.144 242.267 134.049C242.235 133.941 242.203 133.832 242.173 133.725C240.983 129.497 240.943 124.979 240.971 120.48C239.467 123.253 238.179 126.003 237.106 128.717C231.335 121.013 225.31 113.765 219.25 107.645C221.471 121.712 221.718 136.09 219.89 150.183C202.902 281.197 70.6608 327.87 85.3878 357.028L3.99987 303.29C43.6341 319.678 70.7307 298.091 90.9777 285.475C136.982 256.777 179.644 217.188 197.07 164.585C198.934 158.998 200.513 153.1 201.706 147.33C204.924 131.73 205.833 115.506 203.728 99.6869C194.858 107.027 185.877 117.571 177.468 129.11C176.363 126.41 175.037 123.68 173.498 120.925C173.583 125.424 173.603 129.943 172.47 134.186C172.441 134.294 172.41 134.401 172.379 134.511C171.777 136.613 170.813 138.594 169.6 140.413C168.299 142.356 167.024 144.307 165.768 146.258C164.185 141.597 162.174 136.947 159.747 132.341C160.161 138.367 160.508 144.434 159.67 150.411C159.562 151.174 159.439 151.934 159.295 152.69C158.562 156.558 157.11 160.252 155.123 163.648C154.346 164.975 153.587 166.285 152.846 167.575C149.983 161.891 146.452 156.332 142.283 150.957C143.854 157.295 145.361 163.692 145.589 170.211C145.591 170.255 145.593 170.299 145.595 170.345C145.801 176.642 144.325 182.88 141.411 188.466C137.55 195.858 135.328 200.505 135.328 200.505C128.17 189.003 121.87 168.44 124.251 149.449C128.531 115.291 151.363 99.8794 171.963 92.9377C167.856 93.0883 163.662 93.3568 159.434 93.7207C160.745 91.1132 161.937 88.3211 163.003 85.3535C159.665 88.3692 156.268 91.3499 152.322 93.281C152.225 93.3282 152.122 93.3779 152.02 93.425C150.036 94.3487 147.911 94.9233 145.742 95.2014C143.421 95.4969 141.11 95.8146 138.816 96.1483C141.296 91.8935 143.482 87.3245 145.365 82.4695C141.092 86.739 136.74 90.9792 131.682 94.2718C131.034 94.6908 130.38 95.097 129.714 95.4854C126.316 97.47 122.576 98.7994 118.709 99.5282C117.2 99.8134 115.713 100.1 114.252 100.388C116.663 94.4994 118.538 88.186 119.859 81.5106C116.106 86.857 112.27 92.1907 107.501 96.643C107.468 96.6748 107.437 96.7045 107.403 96.7342C102.789 101.024 97.1114 104.006 90.9839 105.471C82.8742 107.41 77.9112 108.783 77.9112 108.783C81.8884 95.8353 93.2689 77.5839 109.162 66.9175C137.16 48.1233 163.268 54.5609 181.954 65.1595C178.923 61.8596 175.693 58.569 172.341 55.3266C174.999 54.649 177.714 53.7709 180.479 52.6967C176.279 52.1902 172.071 51.6202 168.268 50.0137C168.173 49.9712 168.076 49.9312 167.979 49.8863C166.1 49.0504 164.381 47.8991 162.846 46.5308C161.205 45.0659 159.556 43.6252 157.905 42.2036C162.45 41.3373 167.04 40.0704 171.644 38.4086C165.98 38.0128 160.288 37.5449 154.833 35.9862C154.136 35.7873 153.445 35.5719 152.759 35.3398C149.255 34.1529 146.007 32.3211 143.104 30.0295C141.969 29.1354 140.85 28.257 139.745 27.399C145.408 25.4749 151.042 22.9103 156.589 19.7308C150.484 20.3667 144.335 20.9365 138.236 20.3024C138.195 20.2975 138.154 20.2924 138.113 20.2898C132.223 19.6612 126.606 17.4758 121.79 14.0332C115.41 9.47799 111.374 6.80541 111.374 6.80541C123.012 1.64078 142.973 -1.5464 160.341 3.14278Z"/>
</mask>
<path d="M160.341 3.14278C192.327 11.7771 203.486 35.9576 206.989 56.3511C210.22 35.9147 221.06 11.5888 252.928 2.53241C270.233 -2.38674 290.234 0.535226 301.939 5.54787C301.939 5.54787 297.939 8.27242 291.621 12.9127C286.847 16.4173 281.26 18.6764 275.382 19.3823C275.34 19.387 275.298 19.3918 275.257 19.3965C269.166 20.1133 263.012 19.6239 256.899 19.0665C262.487 22.1758 268.155 24.6658 273.84 26.513C272.749 27.3876 271.639 28.278 270.519 29.1872C267.646 31.5178 264.421 33.3919 260.933 34.6252C260.25 34.8668 259.564 35.0889 258.868 35.2985C253.435 36.9285 247.751 37.4712 242.091 37.9453C246.719 39.5448 251.325 40.7492 255.88 41.5572C254.248 43.0008 252.617 44.4633 250.994 45.9489C249.48 47.3363 247.776 48.5131 245.908 49.3735C245.811 49.4183 245.714 49.4608 245.621 49.5014C241.84 51.1609 237.638 51.7839 233.447 52.3468C236.225 53.3867 238.951 54.2265 241.617 54.8708C238.309 58.1556 235.121 61.4894 232.137 64.8283C250.682 53.9841 276.701 47.202 304.945 65.6261C320.977 76.0815 332.598 94.1792 336.746 107.073C336.746 107.073 331.765 105.767 323.63 103.933C317.483 102.55 311.769 99.6443 307.098 95.4163C307.063 95.3876 307.031 95.3562 306.999 95.3276C302.171 90.9369 298.265 85.6537 294.443 80.3589C295.852 87.0147 297.809 93.3037 300.297 99.1592C298.834 98.891 297.343 98.6233 295.829 98.3592C291.953 97.681 288.197 96.4007 284.771 94.4629C284.1 94.0835 283.442 93.6856 282.79 93.2733C277.687 90.051 273.282 85.8663 268.95 81.6546C270.897 86.4857 273.146 91.0245 275.679 95.2432C273.381 94.9399 271.067 94.6551 268.742 94.3893C266.568 94.1424 264.436 93.5944 262.441 92.6981C262.337 92.6504 262.236 92.6028 262.137 92.5551C258.165 90.6784 254.731 87.742 251.352 84.7699C252.459 87.7244 253.685 90.5017 255.033 93.0898C250.665 92.7721 246.333 92.5538 242.1 92.4656C262.8 99.1255 285.854 114.234 290.588 148.351C293.221 167.308 287.193 187.954 280.186 199.548C280.186 199.548 277.906 194.932 273.949 187.59C270.958 182.046 269.402 175.826 269.524 169.527C269.524 169.481 269.527 169.438 269.527 169.394C269.67 162.871 271.091 156.457 272.58 150.098C268.482 155.527 265.022 161.132 262.237 166.852C261.477 165.573 260.702 164.274 259.907 162.957C257.875 159.587 256.376 155.911 255.591 152.056C255.436 151.301 255.303 150.542 255.188 149.779C254.269 143.815 254.535 137.744 254.871 131.712C252.503 136.352 250.554 141.026 249.033 145.709C247.754 143.776 246.451 141.842 245.126 139.914C243.887 138.112 242.9 136.144 242.267 134.049C242.235 133.941 242.203 133.832 242.173 133.725C240.983 129.497 240.943 124.979 240.971 120.48C239.467 123.253 238.179 126.003 237.106 128.717C231.335 121.013 225.31 113.765 219.25 107.645C221.471 121.712 221.718 136.09 219.89 150.183C202.902 281.197 70.6608 327.87 85.3878 357.028L3.99987 303.29C43.6341 319.678 70.7307 298.091 90.9777 285.475C136.982 256.777 179.644 217.188 197.07 164.585C198.934 158.998 200.513 153.1 201.706 147.33C204.924 131.73 205.833 115.506 203.728 99.6869C194.858 107.027 185.877 117.571 177.468 129.11C176.363 126.41 175.037 123.68 173.498 120.925C173.583 125.424 173.603 129.943 172.47 134.186C172.441 134.294 172.41 134.401 172.379 134.511C171.777 136.613 170.813 138.594 169.6 140.413C168.299 142.356 167.024 144.307 165.768 146.258C164.185 141.597 162.174 136.947 159.747 132.341C160.161 138.367 160.508 144.434 159.67 150.411C159.562 151.174 159.439 151.934 159.295 152.69C158.562 156.558 157.11 160.252 155.123 163.648C154.346 164.975 153.587 166.285 152.846 167.575C149.983 161.891 146.452 156.332 142.283 150.957C143.854 157.295 145.361 163.692 145.589 170.211C145.591 170.255 145.593 170.299 145.595 170.345C145.801 176.642 144.325 182.88 141.411 188.466C137.55 195.858 135.328 200.505 135.328 200.505C128.17 189.003 121.87 168.44 124.251 149.449C128.531 115.291 151.363 99.8794 171.963 92.9377C167.856 93.0883 163.662 93.3568 159.434 93.7207C160.745 91.1132 161.937 88.3211 163.003 85.3535C159.665 88.3692 156.268 91.3499 152.322 93.281C152.225 93.3282 152.122 93.3779 152.02 93.425C150.036 94.3487 147.911 94.9233 145.742 95.2014C143.421 95.4969 141.11 95.8146 138.816 96.1483C141.296 91.8935 143.482 87.3245 145.365 82.4695C141.092 86.739 136.74 90.9792 131.682 94.2718C131.034 94.6908 130.38 95.097 129.714 95.4854C126.316 97.47 122.576 98.7994 118.709 99.5282C117.2 99.8134 115.713 100.1 114.252 100.388C116.663 94.4994 118.538 88.186 119.859 81.5106C116.106 86.857 112.27 92.1907 107.501 96.643C107.468 96.6748 107.437 96.7045 107.403 96.7342C102.789 101.024 97.1114 104.006 90.9839 105.471C82.8742 107.41 77.9112 108.783 77.9112 108.783C81.8884 95.8353 93.2689 77.5839 109.162 66.9175C137.16 48.1233 163.268 54.5609 181.954 65.1595C178.923 61.8596 175.693 58.569 172.341 55.3266C174.999 54.649 177.714 53.7709 180.479 52.6967C176.279 52.1902 172.071 51.6202 168.268 50.0137C168.173 49.9712 168.076 49.9312 167.979 49.8863C166.1 49.0504 164.381 47.8991 162.846 46.5308C161.205 45.0659 159.556 43.6252 157.905 42.2036C162.45 41.3373 167.04 40.0704 171.644 38.4086C165.98 38.0128 160.288 37.5449 154.833 35.9862C154.136 35.7873 153.445 35.5719 152.759 35.3398C149.255 34.1529 146.007 32.3211 143.104 30.0295C141.969 29.1354 140.85 28.257 139.745 27.399C145.408 25.4749 151.042 22.9103 156.589 19.7308C150.484 20.3667 144.335 20.9365 138.236 20.3024C138.195 20.2975 138.154 20.2924 138.113 20.2898C132.223 19.6612 126.606 17.4758 121.79 14.0332C115.41 9.47799 111.374 6.80541 111.374 6.80541C123.012 1.64078 142.973 -1.5464 160.341 3.14278Z" fill="#49BEAD"/>
<path d="M160.341 3.14278C192.327 11.7771 203.486 35.9576 206.989 56.3511C210.22 35.9147 221.06 11.5888 252.928 2.53241C270.233 -2.38674 290.234 0.535226 301.939 5.54787C301.939 5.54787 297.939 8.27242 291.621 12.9127C286.847 16.4173 281.26 18.6764 275.382 19.3823C275.34 19.387 275.298 19.3918 275.257 19.3965C269.166 20.1133 263.012 19.6239 256.899 19.0665C262.487 22.1758 268.155 24.6658 273.84 26.513C272.749 27.3876 271.639 28.278 270.519 29.1872C267.646 31.5178 264.421 33.3919 260.933 34.6252C260.25 34.8668 259.564 35.0889 258.868 35.2985C253.435 36.9285 247.751 37.4712 242.091 37.9453C246.719 39.5448 251.325 40.7492 255.88 41.5572C254.248 43.0008 252.617 44.4633 250.994 45.9489C249.48 47.3363 247.776 48.5131 245.908 49.3735C245.811 49.4183 245.714 49.4608 245.621 49.5014C241.84 51.1609 237.638 51.7839 233.447 52.3468C236.225 53.3867 238.951 54.2265 241.617 54.8708C238.309 58.1556 235.121 61.4894 232.137 64.8283C250.682 53.9841 276.701 47.202 304.945 65.6261C320.977 76.0815 332.598 94.1792 336.746 107.073C336.746 107.073 331.765 105.767 323.63 103.933C317.483 102.55 311.769 99.6443 307.098 95.4163C307.063 95.3876 307.031 95.3562 306.999 95.3276C302.171 90.9369 298.265 85.6537 294.443 80.3589C295.852 87.0147 297.809 93.3037 300.297 99.1592C298.834 98.891 297.343 98.6233 295.829 98.3592C291.953 97.681 288.197 96.4007 284.771 94.4629C284.1 94.0835 283.442 93.6856 282.79 93.2733C277.687 90.051 273.282 85.8663 268.95 81.6546C270.897 86.4857 273.146 91.0245 275.679 95.2432C273.381 94.9399 271.067 94.6551 268.742 94.3893C266.568 94.1424 264.436 93.5944 262.441 92.6981C262.337 92.6504 262.236 92.6028 262.137 92.5551C258.165 90.6784 254.731 87.742 251.352 84.7699C252.459 87.7244 253.685 90.5017 255.033 93.0898C250.665 92.7721 246.333 92.5538 242.1 92.4656C262.8 99.1255 285.854 114.234 290.588 148.351C293.221 167.308 287.193 187.954 280.186 199.548C280.186 199.548 277.906 194.932 273.949 187.59C270.958 182.046 269.402 175.826 269.524 169.527C269.524 169.481 269.527 169.438 269.527 169.394C269.67 162.871 271.091 156.457 272.58 150.098C268.482 155.527 265.022 161.132 262.237 166.852C261.477 165.573 260.702 164.274 259.907 162.957C257.875 159.587 256.376 155.911 255.591 152.056C255.436 151.301 255.303 150.542 255.188 149.779C254.269 143.815 254.535 137.744 254.871 131.712C252.503 136.352 250.554 141.026 249.033 145.709C247.754 143.776 246.451 141.842 245.126 139.914C243.887 138.112 242.9 136.144 242.267 134.049C242.235 133.941 242.203 133.832 242.173 133.725C240.983 129.497 240.943 124.979 240.971 120.48C239.467 123.253 238.179 126.003 237.106 128.717C231.335 121.013 225.31 113.765 219.25 107.645C221.471 121.712 221.718 136.09 219.89 150.183C202.902 281.197 70.6608 327.87 85.3878 357.028L3.99987 303.29C43.6341 319.678 70.7307 298.091 90.9777 285.475C136.982 256.777 179.644 217.188 197.07 164.585C198.934 158.998 200.513 153.1 201.706 147.33C204.924 131.73 205.833 115.506 203.728 99.6869C194.858 107.027 185.877 117.571 177.468 129.11C176.363 126.41 175.037 123.68 173.498 120.925C173.583 125.424 173.603 129.943 172.47 134.186C172.441 134.294 172.41 134.401 172.379 134.511C171.777 136.613 170.813 138.594 169.6 140.413C168.299 142.356 167.024 144.307 165.768 146.258C164.185 141.597 162.174 136.947 159.747 132.341C160.161 138.367 160.508 144.434 159.67 150.411C159.562 151.174 159.439 151.934 159.295 152.69C158.562 156.558 157.11 160.252 155.123 163.648C154.346 164.975 153.587 166.285 152.846 167.575C149.983 161.891 146.452 156.332 142.283 150.957C143.854 157.295 145.361 163.692 145.589 170.211C145.591 170.255 145.593 170.299 145.595 170.345C145.801 176.642 144.325 182.88 141.411 188.466C137.55 195.858 135.328 200.505 135.328 200.505C128.17 189.003 121.87 168.44 124.251 149.449C128.531 115.291 151.363 99.8794 171.963 92.9377C167.856 93.0883 163.662 93.3568 159.434 93.7207C160.745 91.1132 161.937 88.3211 163.003 85.3535C159.665 88.3692 156.268 91.3499 152.322 93.281C152.225 93.3282 152.122 93.3779 152.02 93.425C150.036 94.3487 147.911 94.9233 145.742 95.2014C143.421 95.4969 141.11 95.8146 138.816 96.1483C141.296 91.8935 143.482 87.3245 145.365 82.4695C141.092 86.739 136.74 90.9792 131.682 94.2718C131.034 94.6908 130.38 95.097 129.714 95.4854C126.316 97.47 122.576 98.7994 118.709 99.5282C117.2 99.8134 115.713 100.1 114.252 100.388C116.663 94.4994 118.538 88.186 119.859 81.5106C116.106 86.857 112.27 92.1907 107.501 96.643C107.468 96.6748 107.437 96.7045 107.403 96.7342C102.789 101.024 97.1114 104.006 90.9839 105.471C82.8742 107.41 77.9112 108.783 77.9112 108.783C81.8884 95.8353 93.2689 77.5839 109.162 66.9175C137.16 48.1233 163.268 54.5609 181.954 65.1595C178.923 61.8596 175.693 58.569 172.341 55.3266C174.999 54.649 177.714 53.7709 180.479 52.6967C176.279 52.1902 172.071 51.6202 168.268 50.0137C168.173 49.9712 168.076 49.9312 167.979 49.8863C166.1 49.0504 164.381 47.8991 162.846 46.5308C161.205 45.0659 159.556 43.6252 157.905 42.2036C162.45 41.3373 167.04 40.0704 171.644 38.4086C165.98 38.0128 160.288 37.5449 154.833 35.9862C154.136 35.7873 153.445 35.5719 152.759 35.3398C149.255 34.1529 146.007 32.3211 143.104 30.0295C141.969 29.1354 140.85 28.257 139.745 27.399C145.408 25.4749 151.042 22.9103 156.589 19.7308C150.484 20.3667 144.335 20.9365 138.236 20.3024C138.195 20.2975 138.154 20.2924 138.113 20.2898C132.223 19.6612 126.606 17.4758 121.79 14.0332C115.41 9.47799 111.374 6.80541 111.374 6.80541C123.012 1.64078 142.973 -1.5464 160.341 3.14278Z" stroke="black" stroke-width="2" mask="url(#path-1-inside-1_108_83)"/>
</g>
<defs>
<filter id="filter0_d_108_83" x="0" y="0" width="340.747" height="365.028" filterUnits="userSpaceOnUse" color-interpolation-filters="sRGB">
<feFlood flood-opacity="0" result="BackgroundImageFix"/>
<feColorMatrix in="SourceAlpha" type="matrix" values="0 0 0 0 0 0 0 0 0 0 0 0 0 0 0 0 0 0 127 0" result="hardAlpha"/>
<feOffset dy="4"/>
<feGaussianBlur stdDeviation="2"/>
<feComposite in2="hardAlpha" operator="out"/>
<feColorMatrix type="matrix" values="0 0 0 0 0 0 0 0 0 0 0 0 0 0 0 0 0 0 0.65 0"/>
<feBlend mode="normal" in2="BackgroundImageFix" result="effect1_dropShadow_108_83"/>
<feBlend mode="normal" in="SourceGraphic" in2="effect1_dropShadow_108_83" result="shape"/>
</filter>
</defs>
</svg>
