<svg width="502" height="255" viewBox="0 0 502 255" fill="none" xmlns="http://www.w3.org/2000/svg">
<g filter="url(#filter0_d_108_115)">
<path d="M179.5 0.500015C179.479 0.546679 179.455 0.598773 179.429 0.656265C179.293 0.953564 179.09 1.39488 178.822 1.97169C178.286 3.12533 177.488 4.82125 176.438 6.9922C174.34 11.3343 171.239 17.5771 167.227 25.1826C159.202 40.3933 147.529 61.0593 132.937 82.877C103.802 126.437 62.9628 174.693 16.2178 193.199L4.78514 211.982L148.274 246.349L497.343 246.349L492.295 228.399C483.893 223.749 475.841 218.52 468.123 212.841L467.672 212.508L468.053 212.098C468.265 211.869 468.388 211.592 468.399 211.328C468.41 211.078 468.323 210.798 468.038 210.526L468.037 210.525C464.855 207.493 461.29 204.922 457.738 202.262C454.197 199.609 450.677 196.872 447.652 193.532C444.402 189.944 441.08 186.422 437.75 182.901C435.253 180.262 432.75 177.622 430.272 174.958L427.804 172.285C421.406 165.305 414.664 158.735 408.935 151.057C403.632 143.949 398.673 136.589 393.587 129.354C393.11 128.678 392.268 128.688 391.698 129.118L391.275 129.438L390.98 128.997C369.663 97.0435 354.015 64.8338 343.696 40.6153C338.537 28.5055 334.709 18.3915 332.171 11.3037C330.902 7.75978 329.955 4.97166 329.325 3.06936C329.01 2.11848 328.774 1.38896 328.617 0.896512C328.567 0.740561 328.526 0.607857 328.492 0.500028L179.5 0.500015Z" fill="#F39CB1" stroke="black"/>
<path d="M328.641 84.4041C328.2 85.3173 327.548 86.6573 326.702 88.3631C325.01 91.7745 322.541 96.6519 319.433 102.517C313.216 114.248 304.44 129.935 294.203 145.758C283.968 161.577 272.262 177.548 260.184 189.835C248.593 201.626 236.583 210.102 225.144 211.7L258.721 233.646L259.278 234.012L258.772 234.445C253.699 238.788 248.279 242.79 242.476 246.349L401.679 246.349L428.965 223.337C399.298 207.864 374.228 172.927 356.561 141.845C347.653 126.174 340.611 111.457 335.797 100.658C333.389 95.258 331.538 90.8364 330.289 87.7644C329.664 86.2286 329.19 85.0298 328.872 84.2146C328.85 84.1586 328.83 84.104 328.81 84.0515C328.757 84.1608 328.701 84.2786 328.641 84.4041Z" fill="#F87897" stroke="black"/>
<path d="M328.735 87.5967C328.625 88.359 328.499 89.2063 328.354 90.1348L328.354 90.1397L328.348 90.1778C326.166 104.175 319.957 136.271 305.201 169.128C294.657 192.605 279.739 216.495 258.773 234.445C253.7 238.788 248.28 242.791 242.476 246.35L400.589 246.35C400.115 245.901 399.469 245.28 398.674 244.488C396.857 242.678 394.255 239.977 391.112 236.405C384.826 229.263 376.371 218.64 367.688 204.71C350.846 177.694 333.142 138.232 328.735 87.5967Z" fill="#AF566B" stroke="black"/>
<path d="M179.5 0.500029C179.478 0.546673 179.454 0.59882 179.428 0.656279C179.292 0.953583 179.09 1.39493 178.822 1.97171C178.285 3.12536 177.487 4.82125 176.438 6.99222C174.34 11.3343 171.239 17.5771 167.226 25.1826C159.201 40.3934 147.528 61.0593 132.936 82.877C103.802 126.437 62.963 174.693 16.2182 193.199L4.78465 211.983L147.883 246.255L152.703 231.567L152.747 231.432L152.857 231.34L152.857 231.339C152.857 231.338 152.859 231.338 152.86 231.337C152.862 231.335 152.865 231.332 152.869 231.329C152.877 231.322 152.89 231.311 152.907 231.297C152.941 231.268 152.992 231.227 153.059 231.17C153.194 231.056 153.394 230.886 153.659 230.661C154.187 230.212 154.971 229.543 155.987 228.665C158.018 226.908 160.98 224.314 164.703 220.97C172.115 214.309 182.54 204.67 194.624 192.723C194.625 192.21 194.819 191.688 195.269 191.242C235.98 150.873 274.841 106.651 301.962 55.8555L303.245 53.4317C303.569 52.8133 304.074 52.4562 304.639 52.3487C305.009 52.2784 305.383 52.3192 305.727 52.4375C315.137 35.2949 322.924 17.8352 328.184 0.500042L179.5 0.500029Z" fill="#F87897" stroke="black"/>
<path d="M304.503 170.662C294.002 193.642 279.282 216.886 258.773 234.445L258.772 234.445C253.699 238.787 248.28 242.79 242.476 246.349L329.194 246.349C318.299 221.99 308.624 197.123 304.503 170.662Z" fill="#894656" stroke="black"/>
<path d="M173.865 64.2342C173.43 63.608 172.694 63.5643 172.127 63.8933C171.847 64.0558 171.653 64.2887 171.578 64.531C171.517 64.7286 171.521 64.9719 171.679 65.2537L171.756 65.3767C187.281 87.7169 216.434 89.0701 241.023 83.5662C241.419 83.4778 241.633 83.276 241.744 83.0525C241.862 82.8146 241.886 82.5054 241.8 82.1941C241.626 81.5668 241.083 81.1048 240.339 81.2713C217.33 86.4201 188.818 85.75 173.865 64.2342Z" fill="#171717" stroke="black"/>
<path d="M190.418 92.4309C189.731 92.0934 189.074 92.4135 188.743 92.9778C188.579 93.2571 188.525 93.5576 188.579 93.8089C188.629 94.0431 188.782 94.2856 189.145 94.4642C192.382 96.0542 195.549 97.1319 199.123 97.1888C199.527 97.1953 199.794 97.0482 199.967 96.8499C200.15 96.6405 200.255 96.3402 200.254 96.0179C200.254 95.6958 200.149 95.3888 199.962 95.1683C199.784 94.9577 199.511 94.8016 199.107 94.7952C195.938 94.7452 193.185 93.7913 190.418 92.4309Z" fill="#171717" stroke="black"/>
<path d="M305.683 53.5149C305.402 53.3445 305.092 53.281 304.826 53.3313C304.577 53.3788 304.321 53.534 304.131 53.8968C276.89 105.845 237.357 150.917 195.974 191.953C195.671 192.254 195.595 192.569 195.632 192.858L195.632 192.859C195.685 193.28 196 193.693 196.418 193.886C196.806 194.065 197.26 194.048 197.668 193.644C239.204 152.454 278.885 107.187 306.176 55.1458L306.176 55.1448C306.503 54.5207 306.265 53.9272 305.782 53.5813L305.683 53.5149Z" fill="#171717" stroke="black"/>
<path d="M393.587 129.354C393.111 128.679 392.268 128.689 391.699 129.119L391.698 129.119C391.47 129.291 391.325 129.507 391.277 129.725C391.232 129.931 391.261 130.19 391.474 130.494C396.96 138.295 402.255 146.187 408.013 153.76C413.533 161.019 419.925 167.294 426.14 174.009C433.141 181.572 439.953 189.477 447.284 196.658C450.199 199.513 453.447 201.963 456.732 204.422C460.009 206.875 463.325 209.339 466.329 212.2C466.63 212.488 466.945 212.566 467.23 212.534C467.492 212.505 467.753 212.38 467.965 212.186L468.053 212.099L468.128 212.011C468.295 211.801 468.39 211.561 468.4 211.329C468.41 211.079 468.324 210.798 468.039 210.527L468.038 210.527C464.856 207.494 461.291 204.924 457.739 202.263C454.198 199.61 450.677 196.873 447.652 193.533C444.402 189.946 441.08 186.424 437.75 182.903C434.42 179.383 431.082 175.863 427.804 172.285C421.407 165.305 414.665 158.737 408.935 151.058C403.632 143.95 398.673 136.591 393.586 129.355L393.587 129.354Z" fill="#171717" stroke="black"/>
<path d="M27.2407 196.951C26.8547 196.822 26.5675 196.885 26.3599 197.018C26.1388 197.159 25.9615 197.411 25.8765 197.723C25.7046 198.353 25.9368 199.034 26.6567 199.275C42.4535 204.575 57.9651 210.454 73.9858 214.874L75.5376 215.297C81.6613 216.947 87.8172 218.461 93.981 219.966C100.143 221.471 106.314 222.967 112.458 224.581C117.536 225.915 122.808 227.073 127.979 228.016C129.049 228.211 130.138 228.376 131.239 228.538C132.337 228.7 133.449 228.86 134.553 229.049C136.625 229.402 138.695 229.856 140.669 230.614L141.063 230.771C141.439 230.924 141.706 230.871 141.892 230.758C142.095 230.634 142.268 230.396 142.353 230.082C142.526 229.443 142.297 228.712 141.588 228.423L141.588 228.424C139.305 227.494 136.861 226.995 134.351 226.593C131.859 226.193 129.272 225.885 126.798 225.335C121.49 224.156 116.159 223.024 110.871 221.704C98.6113 218.646 86.3158 215.746 74.105 212.431C58.2103 208.115 42.8017 202.171 27.2407 196.951Z" fill="#171717" stroke="black"/>
<path d="M37.2031 208.507C36.8181 208.377 36.5329 208.439 36.3262 208.571C36.1055 208.712 35.9279 208.964 35.8428 209.276C35.6709 209.906 35.9031 210.588 36.6221 210.831C39.6696 211.863 42.5982 213.155 45.6953 213.256L45.6963 213.256C46.1021 213.27 46.3666 213.127 46.5361 212.936C46.7156 212.733 46.8196 212.438 46.8193 212.116C46.8187 211.467 46.4202 210.889 45.6631 210.865L45.6621 210.865C44.1716 210.815 42.7057 210.441 41.2969 209.977C40.5915 209.744 39.8936 209.486 39.2119 209.233C38.5275 208.978 37.8605 208.729 37.2041 208.507L37.2031 208.507Z" fill="#171717" stroke="black"/>
<path d="M121.538 128.039C121.225 127.952 120.928 127.978 120.711 128.091C120.51 128.195 120.325 128.401 120.258 128.8C118.904 136.795 118.108 143.899 120.159 151.78C122.207 159.648 125.004 167.583 128.327 175.008C132.128 183.508 137.202 191.051 142.182 198.95C145.776 204.655 149.45 210.261 154.334 214.842L154.811 215.282C155.373 215.794 156.073 215.662 156.534 215.202C156.763 214.974 156.896 214.694 156.911 214.429C156.925 214.179 156.837 213.896 156.536 213.622C151.059 208.64 147.142 202.389 143.301 196.229C139.522 190.167 135.336 184.308 132.215 177.757C128.539 170.041 125.19 161.603 123.027 153.294C120.853 144.943 121.127 137.911 122.543 129.536C122.671 128.779 122.173 128.216 121.538 128.039Z" fill="#171717" stroke="black"/>
<path d="M110.192 151.939C109.87 151.939 109.574 152.043 109.369 152.223C109.2 152.372 109.069 152.594 109.047 152.919L109.044 153.065C109.27 160.816 112.343 167.796 116.376 174.398C116.587 174.743 116.861 174.9 117.135 174.948C117.422 174.998 117.741 174.933 118.02 174.771C118.298 174.609 118.503 174.369 118.591 174.107C118.674 173.859 118.666 173.554 118.453 173.207L118.452 173.207C114.815 167.254 111.845 160.911 111.465 153.787L111.437 153.095C111.425 152.69 111.265 152.414 111.05 152.233C110.825 152.044 110.514 151.94 110.192 151.939Z" fill="#171717" stroke="black"/>
</g>
<defs>
<filter id="filter0_d_108_115" x="0" y="4.2033e-05" width="502.003" height="254.849" filterUnits="userSpaceOnUse" color-interpolation-filters="sRGB">
<feFlood flood-opacity="0" result="BackgroundImageFix"/>
<feColorMatrix in="SourceAlpha" type="matrix" values="0 0 0 0 0 0 0 0 0 0 0 0 0 0 0 0 0 0 127 0" result="hardAlpha"/>
<feOffset dy="4"/>
<feGaussianBlur stdDeviation="2"/>
<feComposite in2="hardAlpha" operator="out"/>
<feColorMatrix type="matrix" values="0 0 0 0 0 0 0 0 0 0 0 0 0 0 0 0 0 0 0.65 0"/>
<feBlend mode="normal" in2="BackgroundImageFix" result="effect1_dropShadow_108_115"/>
<feBlend mode="normal" in="SourceGraphic" in2="effect1_dropShadow_108_115" result="shape"/>
</filter>
</defs>
</svg>
