<svg width="372" height="205" viewBox="0 0 372 205" fill="none" xmlns="http://www.w3.org/2000/svg">
<mask id="path-1-inside-1_50_335" fill="white">
<path d="M281.268 95.1694C281.058 95.136 280.117 97.7286 279.087 101.746C278.739 103.108 278.382 104.64 278.047 106.286C277.855 103.1 277.423 101.04 277.232 101.041C277 101.041 276.503 103.308 275.819 106.686C275.691 107.331 275.555 108.017 275.415 108.737C275.41 105.688 275.358 102.841 275.285 100.424C275.146 95.8979 274.914 92.8739 274.694 92.8568C274.481 92.8403 273.746 95.7522 273.022 100.209C272.484 103.523 271.962 107.694 271.652 112.128C271.388 109.88 271.236 108.204 271.078 107.598L270.948 107.669C270.96 107.651 270.972 107.626 270.965 107.588C270.959 107.545 270.921 107.497 270.875 107.469L270.828 107.441L270.757 107.545C270.486 107.938 270.038 108.997 269.641 110.512C269.634 109.646 269.626 108.789 269.617 107.955C269.587 105.314 269.579 102.861 269.618 100.761C269.657 98.6622 269.734 96.9167 269.814 95.697C269.853 95.0867 269.884 94.6075 269.905 94.2807C269.923 93.9533 269.926 93.778 269.913 93.7762C269.899 93.7744 269.861 93.9432 269.802 94.2622C269.746 94.5815 269.655 95.0497 269.574 95.6509C269.395 96.8517 269.202 98.5793 269.054 100.667C268.906 102.755 268.812 105.202 268.767 107.833C268.73 110.46 268.692 113.273 268.653 116.106C268.645 116.555 268.637 117.005 268.628 117.454C268.527 118.826 268.452 120.233 268.386 121.604C268.357 122.032 268.336 122.465 268.319 122.899C268.328 121.825 268.331 120.744 268.327 119.664C268.288 109.055 267.494 98.6204 267.278 98.6218C267.059 98.6231 266.342 108.936 266.38 119.541C266.42 130.769 267.227 142.326 267.42 142.335C267.601 142.345 268.122 134.652 268.282 125.689C268.289 126.251 268.302 126.809 268.326 127.352C268.333 127.496 268.341 127.637 268.349 127.779C268.298 129.571 268.256 131.26 268.236 132.784C268.204 135.083 268.221 137.009 268.259 138.359C268.276 139.034 268.301 139.565 268.321 139.928C268.341 140.291 268.358 140.485 268.37 140.486C268.383 140.488 268.401 140.298 268.422 139.941C268.44 139.584 268.466 139.061 268.498 138.395C268.56 137.063 268.657 135.163 268.797 132.888C268.805 132.745 268.814 132.595 268.823 132.449C268.823 132.45 268.823 132.45 268.823 132.45C269.222 135.028 269.771 136.832 270.032 137.273C270.029 137.358 270.024 137.441 270.023 137.531L270.025 137.737L270.032 137.909L270.046 138.247L270.06 138.583L270.068 138.749L270.069 138.867C270.066 139.033 270.041 139.237 270.017 139.479C269.99 139.713 269.981 140.028 269.998 140.255C270.011 140.489 270.025 140.662 270.019 140.81C270.005 141.026 269.99 141.24 269.976 141.451C269.971 141.573 269.971 141.702 269.977 141.829C269.984 141.929 269.991 142.028 269.997 142.126C270.011 142.323 270.025 142.516 270.038 142.706L270.049 142.849C270.052 142.895 270.052 142.915 270.053 142.953C270.052 143.022 270.047 143.101 270.038 143.188C270.021 143.36 269.989 143.586 269.99 143.81C269.991 144.162 269.993 144.5 269.994 144.822C269.997 144.893 269.988 145.006 269.99 145.099C269.99 145.194 269.996 145.281 270.001 145.361C270.012 145.52 270.022 145.653 270.02 145.767C269.975 146.367 270.022 146.944 270.075 147.355C270.126 147.784 270.164 148.103 270.209 148.373C270.244 148.499 270.33 148.581 270.362 148.623C270.393 148.657 270.406 148.679 270.419 148.679C270.431 148.679 270.451 148.653 270.447 148.593C270.445 148.53 270.403 148.454 270.409 148.343C270.45 148.131 270.503 147.797 270.555 147.376C270.604 146.945 270.659 146.467 270.805 145.916C270.897 145.325 271 144.659 271.113 143.934C271.128 143.828 271.137 143.787 271.156 143.706C271.177 143.623 271.198 143.54 271.219 143.455C271.243 143.362 271.268 143.259 271.289 143.145C271.311 143.031 271.323 142.889 271.327 142.803C271.339 142.605 271.351 142.403 271.363 142.198C271.369 142.096 271.375 141.992 271.381 141.888C271.386 141.778 271.394 141.724 271.406 141.635C271.43 141.471 271.474 141.28 271.513 141.049C271.559 140.805 271.569 140.517 271.577 140.314C271.585 140.091 271.599 139.96 271.635 139.77C271.669 139.583 271.721 139.359 271.757 139.088L271.78 138.878L271.79 138.682L271.801 138.337C271.809 138.112 271.816 137.886 271.823 137.659C271.841 137.286 271.935 136.851 271.97 136.289C271.985 136.029 271.992 135.846 272.022 135.67C272.026 135.642 272.03 135.61 272.035 135.582C272.46 140.069 272.956 143.023 273.134 143.026C273.359 143.028 273.788 139.737 274.218 134.847C274.221 134.813 274.224 134.776 274.227 134.742C274.797 137.752 275.531 139.604 275.673 139.58C275.917 139.545 275.944 136.976 276.239 133.261C276.325 132.016 276.456 130.642 276.61 129.183C276.74 130.718 276.91 132.166 277.114 133.479C277.793 138.025 278.732 140.982 278.902 140.962C279.143 140.935 279.178 137.89 279.373 133.432C279.543 128.969 279.98 123.098 280.422 117.274C280.82 111.775 281.153 106.282 281.326 102.136C281.5 97.9916 281.487 95.204 281.268 95.1692L281.268 95.1694ZM270.821 107.691C270.836 107.702 270.85 107.713 270.865 107.715C270.865 107.715 270.865 107.715 270.866 107.715L270.798 107.752C270.805 107.723 270.813 107.705 270.821 107.691Z"/>
</mask>
<path d="M281.268 95.1694C281.058 95.136 280.117 97.7286 279.087 101.746C278.739 103.108 278.382 104.64 278.047 106.286C277.855 103.1 277.423 101.04 277.232 101.041C277 101.041 276.503 103.308 275.819 106.686C275.691 107.331 275.555 108.017 275.415 108.737C275.41 105.688 275.358 102.841 275.285 100.424C275.146 95.8979 274.914 92.8739 274.694 92.8568C274.481 92.8403 273.746 95.7522 273.022 100.209C272.484 103.523 271.962 107.694 271.652 112.128C271.388 109.88 271.236 108.204 271.078 107.598L270.948 107.669C270.96 107.651 270.972 107.626 270.965 107.588C270.959 107.545 270.921 107.497 270.875 107.469L270.828 107.441L270.757 107.545C270.486 107.938 270.038 108.997 269.641 110.512C269.634 109.646 269.626 108.789 269.617 107.955C269.587 105.314 269.579 102.861 269.618 100.761C269.657 98.6622 269.734 96.9167 269.814 95.697C269.853 95.0867 269.884 94.6075 269.905 94.2807C269.923 93.9533 269.926 93.778 269.913 93.7762C269.899 93.7744 269.861 93.9432 269.802 94.2622C269.746 94.5815 269.655 95.0497 269.574 95.6509C269.395 96.8517 269.202 98.5793 269.054 100.667C268.906 102.755 268.812 105.202 268.767 107.833C268.73 110.46 268.692 113.273 268.653 116.106C268.645 116.555 268.637 117.005 268.628 117.454C268.527 118.826 268.452 120.233 268.386 121.604C268.357 122.032 268.336 122.465 268.319 122.899C268.328 121.825 268.331 120.744 268.327 119.664C268.288 109.055 267.494 98.6204 267.278 98.6218C267.059 98.6231 266.342 108.936 266.38 119.541C266.42 130.769 267.227 142.326 267.42 142.335C267.601 142.345 268.122 134.652 268.282 125.689C268.289 126.251 268.302 126.809 268.326 127.352C268.333 127.496 268.341 127.637 268.349 127.779C268.298 129.571 268.256 131.26 268.236 132.784C268.204 135.083 268.221 137.009 268.259 138.359C268.276 139.034 268.301 139.565 268.321 139.928C268.341 140.291 268.358 140.485 268.37 140.486C268.383 140.488 268.401 140.298 268.422 139.941C268.44 139.584 268.466 139.061 268.498 138.395C268.56 137.063 268.657 135.163 268.797 132.888C268.805 132.745 268.814 132.595 268.823 132.449C268.823 132.45 268.823 132.45 268.823 132.45C269.222 135.028 269.771 136.832 270.032 137.273C270.029 137.358 270.024 137.441 270.023 137.531L270.025 137.737L270.032 137.909L270.046 138.247L270.06 138.583L270.068 138.749L270.069 138.867C270.066 139.033 270.041 139.237 270.017 139.479C269.99 139.713 269.981 140.028 269.998 140.255C270.011 140.489 270.025 140.662 270.019 140.81C270.005 141.026 269.99 141.24 269.976 141.451C269.971 141.573 269.971 141.702 269.977 141.829C269.984 141.929 269.991 142.028 269.997 142.126C270.011 142.323 270.025 142.516 270.038 142.706L270.049 142.849C270.052 142.895 270.052 142.915 270.053 142.953C270.052 143.022 270.047 143.101 270.038 143.188C270.021 143.36 269.989 143.586 269.99 143.81C269.991 144.162 269.993 144.5 269.994 144.822C269.997 144.893 269.988 145.006 269.99 145.099C269.99 145.194 269.996 145.281 270.001 145.361C270.012 145.52 270.022 145.653 270.02 145.767C269.975 146.367 270.022 146.944 270.075 147.355C270.126 147.784 270.164 148.103 270.209 148.373C270.244 148.499 270.33 148.581 270.362 148.623C270.393 148.657 270.406 148.679 270.419 148.679C270.431 148.679 270.451 148.653 270.447 148.593C270.445 148.53 270.403 148.454 270.409 148.343C270.45 148.131 270.503 147.797 270.555 147.376C270.604 146.945 270.659 146.467 270.805 145.916C270.897 145.325 271 144.659 271.113 143.934C271.128 143.828 271.137 143.787 271.156 143.706C271.177 143.623 271.198 143.54 271.219 143.455C271.243 143.362 271.268 143.259 271.289 143.145C271.311 143.031 271.323 142.889 271.327 142.803C271.339 142.605 271.351 142.403 271.363 142.198C271.369 142.096 271.375 141.992 271.381 141.888C271.386 141.778 271.394 141.724 271.406 141.635C271.43 141.471 271.474 141.28 271.513 141.049C271.559 140.805 271.569 140.517 271.577 140.314C271.585 140.091 271.599 139.96 271.635 139.77C271.669 139.583 271.721 139.359 271.757 139.088L271.78 138.878L271.79 138.682L271.801 138.337C271.809 138.112 271.816 137.886 271.823 137.659C271.841 137.286 271.935 136.851 271.97 136.289C271.985 136.029 271.992 135.846 272.022 135.67C272.026 135.642 272.03 135.61 272.035 135.582C272.46 140.069 272.956 143.023 273.134 143.026C273.359 143.028 273.788 139.737 274.218 134.847C274.221 134.813 274.224 134.776 274.227 134.742C274.797 137.752 275.531 139.604 275.673 139.58C275.917 139.545 275.944 136.976 276.239 133.261C276.325 132.016 276.456 130.642 276.61 129.183C276.74 130.718 276.91 132.166 277.114 133.479C277.793 138.025 278.732 140.982 278.902 140.962C279.143 140.935 279.178 137.89 279.373 133.432C279.543 128.969 279.98 123.098 280.422 117.274C280.82 111.775 281.153 106.282 281.326 102.136C281.5 97.9916 281.487 95.204 281.268 95.1692L281.268 95.1694ZM270.821 107.691C270.836 107.702 270.85 107.713 270.865 107.715C270.865 107.715 270.865 107.715 270.866 107.715L270.798 107.752C270.805 107.723 270.813 107.705 270.821 107.691Z" fill="#A97C50" stroke="black" stroke-width="2" mask="url(#path-1-inside-1_50_335)"/>
<path d="M105.173 163.307C114.452 162.569 123.848 162.987 133.193 163.152C143.632 163.335 154.069 163.615 164.502 163.989C174.419 164.344 184.331 164.746 194.227 165.383C203.103 165.954 212.399 165.93 221.075 167.835L221.108 167.842L221.142 167.845C226.69 168.282 232.237 168.721 237.785 169.143L237.804 169.144C239.197 169.259 240.419 170.392 240.877 171.724C241.104 172.382 241.128 173.049 240.922 173.625C240.72 174.191 240.28 174.718 239.482 175.082C233.529 177.802 227.369 179.725 221.084 181.17L219.541 181.525L221.009 182.12C221.066 182.144 221.124 182.164 221.169 182.181L221.292 182.229C222.737 182.837 223.513 184.102 223.552 185.322C223.591 186.519 222.922 187.728 221.324 188.279C212.173 191.432 202.475 191.865 192.793 192.406C182.596 192.974 172.396 193.49 162.194 193.953C152.032 194.414 141.866 194.816 131.7 195.198C126.671 195.386 121.646 195.538 116.624 195.49C112.407 195.449 108.393 195.45 104.87 193.272C103.117 192.188 103.094 189.631 104.864 188.57C110.933 184.929 117.678 183.017 124.647 181.737L124.574 180.744C117.916 180.522 111.288 180.109 104.731 179.393L104.708 179.391L104.685 179.39C98.8563 179.291 93.0897 178.683 88.3179 176.09C87.3587 175.569 87.0776 174.571 87.3364 173.635L87.3872 173.449L87.3013 173.278C86.9382 172.556 86.7508 171.742 86.8101 170.804C86.9088 169.246 87.7902 168.177 89.0483 167.358C90.3245 166.527 91.9233 165.995 93.354 165.505C97.1301 164.212 101.164 163.626 105.173 163.307Z" fill="black" stroke="black"/>
<path d="M250.412 163.223C261.576 161.538 272.958 164.268 284.402 165.847L284.418 165.85L284.433 165.851C286.672 166.02 288.906 166.252 291.131 166.568L291.166 166.572C298.659 167.108 306.151 166.749 313.586 166.599C321.035 166.45 328.444 166.509 335.846 167.863C336.704 168.02 337.261 168.828 337.331 169.784L337.807 169.749L337.516 170.136V170.137L337.916 170.458C338.619 171.097 339.058 171.955 339.114 172.799C339.177 173.753 338.757 174.748 337.537 175.456C335.442 176.671 333.14 177.224 330.734 177.513C328.302 177.806 325.858 177.824 323.371 178.007C317.727 178.42 312.093 178.943 306.468 179.532C295.211 180.711 283.984 182.16 272.761 183.54C261.288 184.951 249.813 186.312 238.3 187.242C227.493 188.115 215.996 189.594 205.407 187.469C204.612 187.31 204.036 186.795 203.687 186.107C203.334 185.411 203.227 184.557 203.379 183.796C203.826 181.546 205.48 180.196 207.731 179.327C209.993 178.453 212.755 178.107 215.24 177.817L215.277 176.83C214.111 176.603 212.956 176.304 211.816 175.896C210.906 175.571 210.099 174.713 209.768 173.743C209.446 172.797 209.591 171.814 210.469 171.11C214.233 168.095 218.494 167.122 223.285 166.215C228.926 165.146 234.628 164.353 240.346 163.832C243.674 163.528 247.012 163.335 250.353 163.229L250.383 163.228L250.412 163.223Z" fill="black" stroke="black"/>
<path d="M222.129 0.5C223.742 0.49875 224.919 0.958952 225.934 1.85254C226.971 2.76674 227.864 4.15557 228.846 6.06738C229.83 7.983 230.863 10.337 232.227 13.1846C232.432 13.6138 242.43 33.5983 256.731 57.5879C271.031 81.5743 289.666 109.622 307.138 126.11L307.146 126.119L307.155 126.127C309.784 128.378 313.759 131.952 317.143 135.012C318.833 136.54 320.376 137.94 321.526 138.979C322.102 139.498 322.58 139.929 322.931 140.24C323.264 140.536 323.515 140.755 323.607 140.82C324.854 141.694 325.82 142.91 326.347 144.071C326.889 145.269 326.901 146.246 326.534 146.773C326.204 147.248 325.358 147.621 323.471 147.09C321.615 146.567 318.941 145.209 315.275 142.571C312.32 140.444 294.441 126.843 290.629 123.784L289.483 122.865L289.83 124.292C289.848 124.366 289.865 124.442 289.879 124.518L289.917 124.746C291.358 135.276 295.386 163.848 296.657 169.161V169.162C296.952 170.394 296.712 171.69 296.003 172.731L295.855 172.937C295.034 174.01 293.771 174.655 292.42 174.694L279.242 175.072L279.216 175.073L279.191 175.077L205.583 184.751L205.573 184.752L205.563 184.754C205.498 184.765 205.433 184.775 205.369 184.783L205.178 184.805L143.127 190.029C143.001 190.04 142.875 190.045 142.75 190.045C141.524 190.045 140.344 189.543 139.493 188.646C139.297 188.439 139.125 188.209 138.968 187.961L138.775 187.659L138.427 187.744C138.066 187.832 137.712 187.886 137.361 187.886C137.014 187.886 136.665 187.845 136.321 187.764C122.407 184.451 96.4759 178.434 72.9424 173.35L72.8672 173.334L72.79 173.341C70.2811 173.577 67.7747 173.811 65.2666 174.016C59.0642 174.523 52.8544 174.922 46.6387 175.128C45.3855 175.169 44.0574 175.262 42.71 175.349C41.3582 175.435 39.9817 175.516 38.6152 175.537C35.8764 175.579 33.2175 175.377 30.9238 174.521C30.0255 174.186 29.4971 173.46 29.3857 172.702C29.2826 171.999 29.5335 171.241 30.2471 170.698L30.3955 170.593C31.6221 169.782 32.9961 169.14 34.4629 168.608L34.249 167.641C29.1809 168.086 24.116 168.504 19.043 168.761C13.3874 169.047 7.32526 169.734 2.01367 168.048C1.45922 167.872 0.947955 167.405 0.683594 166.836C0.424391 166.277 0.423917 165.675 0.786133 165.17C2.82083 162.331 5.76418 161.583 9.2373 160.631C12.8304 159.646 16.4555 158.773 20.1016 157.999L20.4092 157.934L20.4834 157.628L25.8799 135.538C26.0776 134.729 26.4851 134.027 27.0293 133.471L27.6621 132.824L26.7773 132.633C20.5921 131.295 17.0215 130.441 16.8857 130.408H16.8867C15.1019 129.977 13.7593 128.504 13.4961 126.687C13.2336 124.869 14.1034 123.075 15.6934 122.156C24.1278 117.284 33.5081 107.81 42.8232 96.3799C52.1478 84.938 61.4433 71.4911 69.7041 58.627C86.2253 32.8994 98.6286 9.46953 98.8789 8.99414C99.672 7.4876 101.222 6.5957 102.853 6.5957C103.304 6.59571 103.761 6.6636 104.211 6.80664C117.995 11.1847 133.137 13.4028 149.214 13.4023C184.825 13.4014 215 2.20515 215.583 1.99512C218.398 0.979752 220.489 0.501276 222.129 0.5Z" fill="black" stroke="black"/>
<path d="M214.532 7.37305C200.194 43.0846 179.445 77.0336 162.205 102.139C153.503 114.811 145.698 125.227 140.069 132.474C137.255 136.097 134.985 138.928 133.419 140.853C132.636 141.815 132.028 142.55 131.617 143.045C131.417 143.286 131.262 143.47 131.157 143.595C102.096 141.196 73.8603 136.698 52.8673 132.792C42.3406 130.834 33.6363 129.025 27.5646 127.706C24.5287 127.047 22.1507 126.509 20.5323 126.137C20.0327 126.022 19.6059 125.921 19.254 125.839C27.8122 120.58 37.155 111.123 46.382 99.8564C56.0024 88.1095 65.5333 74.355 73.962 61.2422C82.3915 48.1282 89.7244 35.648 94.9493 26.4473C97.5617 21.8471 99.6472 18.066 101.08 15.4346C101.797 14.1189 102.35 13.0903 102.725 12.3906C102.882 12.0975 103.006 11.8612 103.099 11.6865C130.83 20.3999 158.889 19.2456 180.032 15.9072C190.657 14.2296 199.543 11.9996 205.775 10.1885C208.89 9.28285 211.344 8.48142 213.019 7.90625C213.628 7.69701 214.134 7.51667 214.532 7.37305Z" fill="#49BEAD" stroke="black"/>
<path d="M30.8052 137.245C31.2499 137.345 31.9087 137.492 32.7652 137.682C34.4783 138.062 36.983 138.61 40.1509 139.284C46.4871 140.631 55.4767 142.483 66.0904 144.498C87.1841 148.502 114.703 153.152 140.565 155.776C140.521 156.211 140.429 157.038 140.231 158.604C139.802 162.008 138.885 168.888 136.942 182.783C136.784 182.745 136.592 182.7 136.368 182.647C135.643 182.475 134.578 182.223 133.217 181.903C130.496 181.262 126.593 180.346 121.865 179.248C112.408 177.05 99.6493 174.122 86.441 171.194C73.2331 168.266 59.5722 165.338 48.314 163.146C42.6855 162.05 37.6539 161.137 33.5777 160.499C29.947 159.93 27.0484 159.576 25.1588 159.511L30.6099 137.2C30.6696 137.213 30.7347 137.229 30.8052 137.245Z" fill="#49BEAD" stroke="black"/>
<path d="M220.783 10.9409C218.169 51.3984 198.563 83.5225 179.4 105.664C169.631 116.952 159.984 125.638 152.78 131.5C149.498 134.171 146.723 136.255 144.677 137.732C159.222 121.455 177.679 90.8992 192.879 63.6558C201.059 48.9943 208.306 35.2722 213.509 25.2163C216.11 20.1885 218.2 16.0762 219.64 13.2212C220.085 12.3378 220.466 11.5736 220.783 10.9409Z" fill="#49BEAD" stroke="black"/>
<path d="M220.135 59.0952C221.887 85.6031 218.069 115.416 213.741 138.844C211.518 150.876 209.162 161.215 207.363 168.545C206.463 172.211 205.702 175.124 205.167 177.12C204.899 178.118 204.688 178.887 204.543 179.406C204.492 179.589 204.448 179.741 204.415 179.861L143.331 185.004L148.651 146.273C171.857 136.035 189.907 113.758 202.151 94.0757C208.301 84.1891 212.999 74.9375 216.159 68.1577C217.739 64.7677 218.934 61.9943 219.736 60.0679C219.883 59.7149 220.015 59.3899 220.135 59.0952Z" fill="#49BEAD" stroke="black"/>
<path d="M228.75 51.2266C229.798 52.9487 231.319 55.4258 233.21 58.4453C236.992 64.484 242.255 72.6952 248.179 81.3838C254.102 90.0714 260.69 99.2416 267.121 107.196C273.475 115.055 279.703 121.76 285.002 125.632C285.01 125.693 285.021 125.767 285.033 125.854C285.072 126.135 285.128 126.548 285.201 127.076C285.347 128.133 285.558 129.651 285.815 131.493C286.33 135.177 287.033 140.158 287.786 145.349C289.21 155.164 290.821 165.768 291.671 169.723L267.354 170.423C267.28 170.258 267.177 170.027 267.047 169.734C266.757 169.084 266.331 168.126 265.79 166.894C264.708 164.429 263.161 160.868 261.306 156.486C257.595 147.722 252.649 135.673 247.708 122.534C242.767 109.394 237.833 95.1693 234.144 82.0518C230.706 69.8297 228.361 58.6057 228.082 50.125C228.277 50.4472 228.5 50.8155 228.75 51.2266Z" fill="#49BEAD" stroke="black"/>
<path d="M227.725 14.1223C228.721 16.3262 230.19 19.5175 232.091 23.468C235.893 31.3688 241.42 42.3097 248.314 54.4709C260.541 76.0379 277.093 101.477 295.994 120.602C291.067 116.523 284.186 110.444 276.322 102.413C260.54 86.2966 240.803 62.3231 224.949 30.8743L226.962 12.4114C227.173 12.8886 227.427 13.4616 227.725 14.1223Z" fill="#49BEAD" stroke="black"/>
<path d="M115.917 21.3435V21.3445C116.477 21.4898 117.073 21.6443 117.702 21.8074L117.71 21.8093L117.718 21.8113C118.352 21.9534 119.019 22.1027 119.715 22.2585H119.718C120.056 22.3318 120.411 22.4147 120.777 22.4978L121.894 22.7419L121.901 22.7429C122.655 22.8861 123.435 23.0339 124.238 23.1863V23.1873C124.638 23.265 125.045 23.3436 125.456 23.4236L125.464 23.4255L125.472 23.4265C125.886 23.4927 126.305 23.5588 126.729 23.6267V23.6277L129.322 24.0486L129.335 24.0505C132.874 24.5334 136.67 25.0111 140.508 25.2927V25.2937C148.621 25.9534 156.867 26.0272 163.077 25.7693L163.076 25.7683C163.85 25.7392 164.592 25.7129 165.298 25.6863C166.004 25.6597 166.705 25.6046 167.311 25.574H167.315C167.318 25.5738 167.321 25.5732 167.324 25.573C167.294 25.578 167.265 25.5836 167.235 25.5886L167.23 25.5896C165.98 25.8138 164.559 26.0017 162.996 26.199H162.994C156.778 27.0018 148.408 27.406 140.206 26.7224H140.207C139.239 26.6329 138.273 26.5437 137.312 26.4548C136.354 26.3286 135.4 26.203 134.456 26.0789H134.451C133.518 25.9643 132.595 25.8068 131.679 25.6404C130.751 25.4722 129.861 25.3273 128.985 25.1472C127.198 24.7421 125.517 24.416 123.948 23.9607L123.94 23.9587L121.637 23.3289C120.901 23.0932 120.189 22.8656 119.507 22.6472C118.814 22.4165 118.184 22.2252 117.584 22.0046H117.585C116.976 21.7714 116.399 21.5503 115.857 21.3425H115.858C115.825 21.3298 115.793 21.3171 115.76 21.3044C115.812 21.3175 115.864 21.3303 115.917 21.3435Z" fill="#1D1D1D" stroke="black"/>
<path d="M100.576 25.1299C100.282 25.9716 99.9341 26.9275 99.5345 27.9717V27.9727C98.026 31.9327 95.7457 37.1372 93.0081 42.1533L93.0071 42.1543C90.1209 47.4771 86.7572 52.5937 84.0413 56.2939L84.0403 56.2959C83.3661 57.2231 82.7318 58.0622 82.1605 58.7988C82.6267 57.9662 83.1544 57.0259 83.7288 56C85.4322 52.9831 87.5105 49.2176 89.6507 45.2939L91.8001 41.3398C94.507 36.3417 97.1766 31.4132 99.1702 27.7324L99.1712 27.7314C99.6871 26.772 100.158 25.8975 100.576 25.1299Z" fill="#1D1D1D" stroke="black"/>
<path d="M204.089 21.5842C203.724 22.1574 203.33 22.7713 202.91 23.4202L201.696 25.2825C198.294 30.4691 193.645 37.335 188.642 44.0334V44.0344C183.351 51.1347 177.646 58.0343 173.14 63.0217L173.139 63.0237C172.017 64.2755 170.976 65.4109 170.036 66.3997L170.015 66.4202C170.869 65.3036 171.836 64.0403 172.891 62.6614C174.947 59.9752 177.307 56.8305 179.812 53.4719L187.604 43.0012C191.97 37.1545 196.342 31.4144 199.922 26.8372L201.405 24.9495C202.387 23.7052 203.289 22.5748 204.089 21.5842Z" fill="#1D1D1D" stroke="black"/>
<path d="M177.961 44.3447C177.313 45.4492 176.585 46.6875 175.733 48.002L175.731 48.0049C175.307 48.6685 174.868 49.3552 174.411 50.0713C173.933 50.7769 173.439 51.5071 172.931 52.2578L172.929 52.2607C171.929 53.7599 170.799 55.2888 169.629 56.8994C167.254 60.0641 164.64 63.3913 161.829 66.5635L161.828 66.5654C155.908 73.3424 149.312 79.6041 144.131 84.0244L144.129 84.0264C142.836 85.1385 141.642 86.1424 140.563 87.0049L140.56 87.0068C140.556 87.0104 140.551 87.0131 140.546 87.0166C140.569 86.9938 140.592 86.9712 140.616 86.9482L140.617 86.9492C141.619 85.9701 142.728 84.8473 143.932 83.6338L143.931 83.6328C148.771 78.7784 155.006 72.1851 160.871 65.4541L160.872 65.4551C163.668 62.2916 166.349 59.0725 168.835 56.0566L168.838 56.0527C170.056 54.5381 171.265 53.0729 172.358 51.6533C172.909 50.9529 173.444 50.2721 173.961 49.6143L173.966 49.6084C174.474 48.9407 174.965 48.2959 175.435 47.6777L175.434 47.6768C176.393 46.4465 177.233 45.2865 177.981 44.2842L177.982 44.2852C178.003 44.2572 178.023 44.229 178.044 44.2012C178.017 44.2486 177.989 44.2967 177.961 44.3447Z" fill="#1D1D1D" stroke="black"/>
<path d="M151.129 68.8633L151.127 68.8662C150.515 69.7633 149.83 70.7685 149.037 71.8311L149.036 71.833C148.639 72.3716 148.224 72.9323 147.795 73.5137C147.354 74.0805 146.898 74.6667 146.428 75.2695L146.426 75.2725C145.496 76.4808 144.454 77.7097 143.369 79.001C141.171 81.5356 138.756 84.1863 136.154 86.6631L136.151 86.666C130.671 91.9764 124.503 96.6486 119.617 99.7158C119.003 100.101 118.414 100.471 117.854 100.823C117.296 101.161 116.762 101.462 116.246 101.761C116.243 101.763 116.238 101.764 116.235 101.767C116.257 101.75 116.279 101.734 116.301 101.718L116.304 101.715C116.756 101.375 117.293 100.992 117.814 100.589L117.815 100.588C118.336 100.183 118.882 99.7576 119.453 99.3145L119.453 99.3154C124.052 95.7758 129.857 90.7593 135.27 85.5C140.413 80.5625 145.232 75.4238 148.754 71.4971L148.753 71.4961C149.646 70.5253 150.443 69.6023 151.145 68.8154L151.144 68.8145C151.168 68.7873 151.193 68.7604 151.217 68.7334C151.188 68.7762 151.159 68.82 151.129 68.8633Z" fill="#1D1D1D" stroke="black"/>
<path d="M124.018 82.8936C123.245 83.8677 122.393 84.9595 121.386 86.0859L121.382 86.0898C120.881 86.6637 120.359 87.2619 119.818 87.8809C119.268 88.4871 118.683 89.0906 118.074 89.7363L118.07 89.7402C116.892 91.0174 115.562 92.2793 114.175 93.6182C111.359 96.2202 108.262 98.91 104.931 101.311L104.926 101.314C97.9165 106.498 90.1119 110.655 84.0386 113.183H84.0377C83.2779 113.5 82.5495 113.803 81.856 114.093C81.1592 114.367 80.4954 114.605 79.858 114.844C79.8558 114.845 79.8533 114.845 79.8511 114.846C79.8779 114.833 79.9053 114.82 79.9322 114.807L79.9341 114.805C80.5162 114.514 81.1911 114.199 81.8599 113.854L81.8629 113.853C82.5294 113.503 83.2315 113.136 83.9615 112.753L83.9605 112.752C89.834 109.706 97.3206 105.156 104.227 100.028C107.523 97.6407 110.652 95.0849 113.531 92.6592L113.537 92.6533C114.947 91.4255 116.341 90.2401 117.601 89.0527C118.215 88.4844 118.867 87.913 119.452 87.3525L119.453 87.3516C120.032 86.7919 120.592 86.2508 121.128 85.7324C122.233 84.7007 123.193 83.69 124.043 82.8408H124.044C124.068 82.8161 124.092 82.7911 124.117 82.7666C124.084 82.8085 124.051 82.8512 124.018 82.8936Z" fill="#1D1D1D" stroke="black"/>
<path d="M69.0397 83.4951C68.6513 84.1728 68.2204 84.9268 67.7028 85.7158L67.7008 85.7188C67.4401 86.1229 67.168 86.544 66.8864 86.9805C66.5932 87.4019 66.2898 87.8379 65.9781 88.2861L65.9762 88.2891C65.3608 89.1854 64.6582 90.0919 63.9205 91.0518C62.425 92.9326 60.7606 94.889 58.9664 96.7227L58.9645 96.7256C55.1766 100.65 50.9506 104.172 47.6793 106.684L47.6783 106.685C46.8549 107.32 46.0912 107.889 45.4098 108.387C46.0141 107.771 46.702 107.077 47.4537 106.319L47.4528 106.318C50.3827 103.379 54.2742 99.5067 58.0074 95.6289L58.0065 95.6279C61.5543 91.9807 64.944 88.2879 67.3873 85.416C68.0218 84.6736 68.5965 83.9886 69.1012 83.3848C69.0806 83.4211 69.0606 83.4582 69.0397 83.4951Z" fill="#1D1D1D" stroke="black"/>
<path d="M43.7144 126.231C45.0739 126.432 46.6199 126.667 48.315 126.928C54.7902 127.929 63.4343 129.336 72.149 130.574V130.575C81.3803 131.913 90.7394 132.944 97.8306 133.324V133.325C98.7145 133.377 99.5623 133.428 100.369 133.475H100.379C101.186 133.506 101.952 133.535 102.671 133.562C102.676 133.562 102.681 133.562 102.686 133.562L102.583 133.569C101.839 133.608 101.079 133.662 100.266 133.687C99.4473 133.705 98.5868 133.725 97.69 133.745C90.5297 133.907 80.9993 133.332 71.73 131.979H71.7281C62.9651 130.729 54.4487 128.852 48.1265 127.33C46.4989 126.938 45.0173 126.566 43.7144 126.231Z" fill="#1D1D1D" stroke="black"/>
<path d="M150.42 108.217C150.142 108.732 149.818 109.315 149.45 109.95C148.06 112.345 146.065 115.462 143.789 118.406H143.788C141.381 121.531 138.674 124.472 136.52 126.56V126.561C135.974 127.092 135.464 127.568 135.008 127.983C135.367 127.466 135.777 126.882 136.228 126.246L136.229 126.247C137.981 123.789 140.302 120.557 142.693 117.452L142.694 117.453C144.955 114.527 147.305 111.722 149.12 109.663C149.595 109.125 150.032 108.639 150.42 108.217Z" fill="#1D1D1D" stroke="black"/>
<path d="M212.059 41.9033C211.901 42.5337 211.712 43.251 211.489 44.0352C210.645 47.0008 209.321 50.9147 207.587 54.6934V54.6953C205.761 58.7037 203.49 62.5513 201.581 65.2939L201.58 65.2959C201.103 65.9872 200.651 66.6094 200.242 67.1533C200.54 66.5243 200.875 65.8125 201.241 65.0352L201.24 65.0342C202.683 62.0022 204.505 57.9657 206.309 54.001C208.024 50.2617 209.761 46.5814 211.101 43.8359C211.449 43.1212 211.771 42.4717 212.059 41.9033Z" fill="#1D1D1D" stroke="black"/>
<path d="M191.326 81.4937C191.104 82.0278 190.84 82.6336 190.533 83.2925L190.532 83.2935C189.376 85.7786 187.592 88.9983 185.461 92.0073L185.46 92.0083C183.491 94.8057 181.261 97.4401 179.359 99.4907L178.565 100.333C178.044 100.877 177.559 101.368 177.124 101.795C177.458 101.269 177.84 100.676 178.262 100.031C179.899 97.5329 182.1 94.266 184.324 91.103L184.325 91.104C186.435 88.1225 188.571 85.2219 190.179 83.0356L190.18 83.0366C190.601 82.4663 190.985 81.9471 191.326 81.4937Z" fill="#1D1D1D" stroke="black"/>
<path d="M213.716 66.5469C213.513 68.2989 213.298 70.2629 212.943 72.3887L212.943 72.3936C212.774 73.4665 212.6 74.5837 212.418 75.7412C212.217 76.888 211.983 78.0642 211.75 79.293L211.749 79.2979C211.312 81.7367 210.709 84.2796 210.105 86.9443C208.805 92.2315 207.279 97.8528 205.396 103.375L205.395 103.379C201.493 115.127 196.425 126.558 192.247 134.94C191.724 135.987 191.223 136.991 190.746 137.946C190.252 138.895 189.783 139.796 189.343 140.642C189.34 140.647 189.337 140.651 189.334 140.656C189.352 140.616 189.37 140.576 189.388 140.536C190.168 138.775 191.016 136.778 191.935 134.61C195.639 125.937 200.252 114.318 204.109 102.645L204.109 102.644C205.975 97.1411 207.603 91.6106 209.053 86.4316L209.055 86.4258C209.742 83.8364 210.439 81.3227 210.993 78.9199L210.992 78.9189C211.273 77.7433 211.581 76.5679 211.833 75.4424L211.834 75.4395C212.079 74.3146 212.316 73.2283 212.543 72.1865L212.544 72.1875C213.032 70.0935 213.378 68.1495 213.714 66.4609C213.723 66.4142 213.732 66.3676 213.741 66.3213C213.733 66.3961 213.725 66.4713 213.716 66.5469Z" fill="#1D1D1D" stroke="black"/>
<path d="M209.618 130.55C209.516 131.25 209.405 132.023 209.22 132.85L209.219 132.855C209.129 133.281 209.034 133.725 208.936 134.185C208.82 134.633 208.7 135.097 208.578 135.573L208.577 135.577C208.339 136.529 208.015 137.511 207.68 138.561C206.976 140.611 206.139 142.771 205.136 144.849L205.134 144.852C203.293 148.745 201.043 152.443 199.114 155.368L198.309 156.573C197.783 157.348 197.292 158.052 196.853 158.672C196.861 158.654 196.87 158.636 196.878 158.618L197.973 156.307C199.591 152.943 201.81 148.505 203.87 144.133L203.87 144.132C204.862 142.066 205.792 139.999 206.645 138.062L206.648 138.054C207.05 137.098 207.474 136.148 207.824 135.24C208.005 134.791 208.18 134.355 208.35 133.933L207.887 133.746L208.351 133.933L208.355 133.922L208.817 132.69C209.126 131.862 209.398 131.101 209.634 130.43C209.629 130.47 209.623 130.51 209.618 130.55Z" fill="#1D1D1D" stroke="black"/>
<path d="M178.35 168.29C178.139 168.551 177.887 168.845 177.591 169.157L177.59 169.159C176.517 170.3 174.874 171.649 173.017 172.639L173.015 172.64C171.046 173.701 168.876 174.386 167.216 174.725L167.215 174.726C166.778 174.816 166.377 174.884 166.026 174.934C166.335 174.747 166.689 174.538 167.079 174.312L167.08 174.313C168.554 173.466 170.469 172.367 172.363 171.343C174.158 170.386 175.956 169.491 177.336 168.792L177.337 168.793C177.711 168.605 178.051 168.435 178.35 168.29Z" fill="#1D1D1D" stroke="black"/>
<path d="M153.925 152.519C154.087 153.42 154.24 154.564 154.306 155.867V155.869C154.421 157.974 154.315 160.486 153.915 162.96L153.914 162.962C153.385 166.322 152.341 169.598 151.405 171.991C151.165 172.603 150.933 173.158 150.721 173.643C150.801 173.108 150.897 172.502 151.004 171.84C151.415 169.312 151.958 165.964 152.494 162.664L152.495 162.663C152.883 160.247 153.268 157.85 153.531 155.803C153.67 154.78 153.776 153.846 153.865 153.052C153.885 152.866 153.906 152.688 153.925 152.519Z" fill="#1D1D1D" stroke="black"/>
<path d="M232.068 55.0952V55.0962C232.391 56.5494 232.711 58.2459 233.213 60.0522V60.0532C233.443 60.9529 233.682 61.8898 233.93 62.8608L233.932 62.8657C234.061 63.3513 234.208 63.8492 234.359 64.3501L234.809 65.854L234.81 65.8569C234.961 66.3671 235.114 66.8848 235.269 67.4087L235.27 67.4097C235.347 67.671 235.425 67.935 235.503 68.1997L235.506 68.2085L235.51 68.2183C235.599 68.4805 235.688 68.7442 235.778 69.0093V69.0083C236.136 70.068 236.501 71.1522 236.873 72.2544L236.877 72.2642C238.455 76.6473 240.244 81.307 242.345 85.8667V85.8677C246.679 95.5623 251.919 104.964 256.048 111.926V111.927C256.561 112.798 257.054 113.634 257.523 114.428L257.526 114.433C258.003 115.223 258.455 115.972 258.881 116.676L258.88 116.677C258.86 116.65 258.84 116.622 258.82 116.594L258.818 116.591L258.066 115.552C257.296 114.477 256.478 113.296 255.613 112.03L255.609 112.025L255.171 111.391C254.731 110.749 254.288 110.081 253.836 109.392L251.976 106.536C251.344 105.559 250.737 104.542 250.085 103.491H250.086C249.442 102.448 248.793 101.388 248.174 100.29L248.169 100.281L247.207 98.6255C244.977 94.7176 242.844 90.507 240.921 86.2319L240.92 86.229L240.53 85.3657C238.864 81.6203 237.458 77.7939 236.263 74.106L235.726 72.4136C235.4 71.2859 235.08 70.1784 234.767 69.0952L234.766 69.0923L234.651 68.6909C234.395 67.7587 234.208 66.8412 233.974 65.9009C233.731 64.8296 233.47 63.8608 233.29 62.8833L232.765 60.0161L232.763 60.0073C232.399 58.2011 232.234 56.527 232.037 55.0122C232.032 54.9677 232.026 54.9234 232.021 54.8794C232.036 54.9508 232.053 55.0229 232.068 55.0952Z" fill="#1D1D1D" stroke="black"/>
<path d="M266.977 143.583C267.272 143.953 267.603 144.38 267.964 144.854C269.309 146.623 271.038 149.02 272.697 151.453V151.454C274.011 153.394 275.321 155.371 276.476 157.071L277.574 158.666C277.925 159.174 278.246 159.637 278.53 160.047C278.135 159.725 277.695 159.347 277.226 158.917L277.224 158.915C275.419 157.28 273.243 154.851 271.463 152.216L271.462 152.215L271.149 151.746C269.606 149.395 268.39 146.954 267.571 145.048C267.34 144.511 267.142 144.018 266.977 143.583Z" fill="#1D1D1D" stroke="black"/>
<path d="M35.8235 146.647C36.5338 146.985 37.4995 147.494 38.6243 148.135C39.8062 148.809 41.1591 149.607 42.5989 150.456C44.0373 151.304 45.5613 152.203 47.0813 153.075L47.0872 153.078C48.7007 153.979 50.3333 154.888 51.9299 155.621L51.9348 155.624C53.5093 156.324 55.0524 156.961 56.4524 157.343V157.344C57.7426 157.729 58.8814 157.965 59.72 158.134C58.8791 158.321 57.6958 158.485 56.2522 158.467H56.2434C54.7251 158.474 52.9494 158.188 51.1008 157.674H51.1018C49.4986 157.223 47.8848 156.533 46.343 155.715L45.6868 155.356C44.0635 154.427 42.5782 153.326 41.2551 152.226C39.9478 151.113 38.8067 150.01 37.885 149.024H37.884C37.0008 148.082 36.3005 147.261 35.8235 146.647Z" fill="#1D1D1D" stroke="black"/>
<path d="M74.8185 153.122C75.8046 153.41 77.1712 153.827 78.7814 154.272L78.7824 154.273C79.2058 154.389 79.6478 154.51 80.1047 154.635L80.1086 154.636C80.557 154.755 81.0835 154.868 81.5324 154.98V154.981C82.5135 155.242 83.5826 155.444 84.6242 155.674L84.631 155.676L84.6379 155.677C86.7796 156.087 89.0766 156.518 91.4113 156.799V156.798C96.3224 157.473 101.369 157.725 105.229 157.676C107.001 157.665 108.528 157.621 109.644 157.599C108.576 157.974 107.09 158.419 105.291 158.814L105.288 158.815C101.447 159.684 96.1142 160.159 90.9426 159.434V159.433H90.9348C88.5043 159.13 86.1301 158.506 83.9641 157.79C82.8764 157.407 81.8545 157.035 80.924 156.603L80.9201 156.601L80.2082 156.285C79.9831 156.184 79.7673 156.086 79.5558 155.977H79.5568C79.1235 155.75 78.7047 155.531 78.3029 155.321C76.8138 154.508 75.6356 153.729 74.8185 153.122Z" fill="#1D1D1D" stroke="black"/>
<path d="M111.827 169.669C126.965 167.059 141.735 177.977 142.694 193.125L142.724 193.594H143.863C146.812 193.657 149.88 194.039 152.752 194.718C153.632 194.925 154.741 195.129 155.716 195.518C156.69 195.907 157.359 196.418 157.556 197.131C157.558 197.143 157.559 197.158 157.562 197.174L157.587 197.306L157.675 197.409C157.694 197.43 157.711 197.471 157.702 197.529C157.694 197.573 157.674 197.611 157.646 197.639L157.615 197.664C156.217 198.557 154.514 198.58 152.68 198.734C150.603 198.909 148.496 199.062 146.41 199.246C144.428 199.421 142.444 199.605 140.462 199.818L139.56 199.915L140.124 200.626C140.458 201.048 140.587 201.671 140.467 202.138C140.271 202.907 139.834 203.409 139.236 203.749C138.62 204.099 137.819 204.283 136.911 204.361C136.007 204.439 135.037 204.409 134.104 204.358C133.188 204.309 132.28 204.237 131.563 204.244C126.662 204.29 121.759 204.364 116.861 204.424C114.566 204.452 112.29 204.508 110.009 204.499C108.473 204.492 107.26 204.466 106.433 203.478L106.273 203.267C105.808 202.595 105.665 201.979 105.713 201.431C105.763 200.877 106.014 200.344 106.419 199.856L107.123 199.009L106.021 199.037C105.624 199.047 105.229 199.056 104.83 199.065H104.818L104.806 199.066C103.566 199.154 102.242 199.199 101 199.398C99.0133 199.716 97.0456 199.993 95.0582 200.088C91.1155 200.276 86.9422 200.036 83.149 199.009C82.1501 198.738 80.9023 198.168 80.0416 197.377C79.1923 196.596 78.7899 195.684 79.2027 194.625L79.4429 194.008L78.7828 193.946C78.1023 193.883 77.4341 193.815 76.817 193.761C75.2227 193.622 73.1529 193.566 71.3463 193.096L71.3082 193.087L71.2691 193.083C70.6517 193.022 70.0396 192.962 69.4283 192.889C68.7347 192.807 68.352 192.405 68.2388 191.978C68.125 191.548 68.2617 191.001 68.8082 190.58C70.0094 189.654 71.6161 189.153 73.358 188.837C75.1181 188.517 76.8845 188.403 78.4966 188.187C80.3572 187.938 82.2225 187.743 84.0933 187.614C84.9999 187.551 85.7846 187.439 86.5572 187.496L86.9332 187.523L87.063 187.17C87.7275 185.367 88.8159 183.676 90.0679 182.234C95.4393 176.048 103.768 171.058 111.827 169.669Z" fill="black" stroke="black"/>
<path d="M113.494 175.645C119.368 174.637 125.882 175.817 130.357 179.893C132.36 181.717 133.741 184.888 134.714 187.531C135.299 189.12 135.663 190.686 135.69 192.25C134.722 192.295 133.747 192.408 132.773 192.519H132.772C130.191 192.814 127.586 193.281 125.152 194.393C124.467 194.706 123.857 195.105 123.282 195.494C122.699 195.89 122.158 196.27 121.571 196.59C121.028 196.886 120.443 196.995 119.801 197.022C119.127 197.05 118.501 196.991 117.748 196.982C116.764 196.97 115.785 197.009 114.811 197.091C114.952 196.884 115.097 196.68 115.247 196.483C116.478 194.864 118.095 193.917 119.873 192.738C120.417 192.377 120.66 191.737 120.61 191.163C120.559 190.567 120.181 189.973 119.44 189.81C116.488 189.162 113.874 190.928 112.107 192.901C112.032 192.984 111.951 193.074 111.867 193.169C110.747 193.236 109.705 193.326 108.668 193.183C108.14 193.11 107.837 192.976 107.669 192.84C107.518 192.718 107.447 192.573 107.428 192.382C107.407 192.171 107.452 191.895 107.57 191.551C107.688 191.211 107.865 190.839 108.075 190.445C108.313 189.998 108.595 189.546 108.896 189.073C109.193 188.604 109.509 188.114 109.796 187.615C110.369 186.618 110.866 185.521 110.923 184.322C110.952 183.695 110.609 183.233 110.154 183.005C109.721 182.787 109.176 182.772 108.717 182.987C108.316 183.174 107.945 183.43 107.603 183.718C106.803 184.036 106.079 184.504 105.406 184.997C105.058 185.253 104.717 185.52 104.386 185.779C104.053 186.038 103.729 186.289 103.404 186.524C101.614 187.815 99.9257 188.485 97.7931 189.24C96.155 189.821 94.2274 190.802 92.8234 192.21L92.7521 192.14C92.4123 191.773 92.3236 191.221 92.4298 190.523C92.5415 189.789 92.8526 189.021 93.1202 188.445C94.1696 186.185 96.1133 184.347 98.0997 182.731C102.492 179.157 107.916 176.602 113.494 175.645Z" fill="#FFFBEF" stroke="black"/>
<path d="M325.014 143.861C340.152 141.251 354.923 152.169 355.881 167.317L355.91 167.785H357.05C359.999 167.849 363.067 168.231 365.939 168.909C366.819 169.117 367.928 169.321 368.904 169.71C369.879 170.1 370.547 170.611 370.743 171.325C370.745 171.337 370.746 171.351 370.749 171.365L370.761 171.428L370.788 171.487L370.818 171.549L370.864 171.601C370.882 171.622 370.899 171.663 370.889 171.721C370.879 171.779 370.846 171.828 370.802 171.856C369.405 172.748 367.702 172.771 365.867 172.926C363.79 173.101 361.683 173.254 359.597 173.438C357.615 173.613 355.631 173.797 353.65 174.01L352.747 174.107L353.311 174.818C353.603 175.187 353.739 175.71 353.688 176.149L353.655 176.33C353.458 177.098 353.021 177.601 352.423 177.941C351.807 178.291 351.006 178.475 350.098 178.553C349.194 178.631 348.225 178.6 347.291 178.55C346.375 178.501 345.467 178.429 344.75 178.436C339.849 178.482 334.946 178.556 330.048 178.615C327.754 178.644 325.478 178.7 323.197 178.691C321.557 178.683 320.287 178.654 319.46 177.459C318.995 176.786 318.852 176.171 318.901 175.623C318.95 175.069 319.201 174.536 319.606 174.048L320.31 173.2L319.208 173.229C318.811 173.239 318.416 173.248 318.017 173.257H318.005L317.993 173.258C316.753 173.346 315.429 173.391 314.187 173.59C312.201 173.908 310.233 174.184 308.245 174.28C304.303 174.468 300.129 174.228 296.336 173.2C295.337 172.93 294.089 172.359 293.229 171.569C292.379 170.788 291.977 169.876 292.39 168.817L292.63 168.199L291.97 168.138C291.289 168.075 290.621 168.007 290.004 167.953C288.41 167.814 286.34 167.758 284.533 167.288L284.495 167.279L284.456 167.275C283.839 167.214 283.227 167.154 282.615 167.081C281.922 166.999 281.539 166.598 281.426 166.171C281.312 165.741 281.449 165.193 281.995 164.772C283.197 163.846 284.803 163.345 286.545 163.029C288.305 162.709 290.072 162.595 291.684 162.379C293.544 162.13 295.409 161.935 297.281 161.806C298.187 161.743 298.972 161.63 299.744 161.688L300.12 161.715L300.25 161.362C300.914 159.559 302.002 157.868 303.254 156.426C308.626 150.24 316.955 145.25 325.014 143.861Z" fill="black" stroke="black"/>
<path d="M326.681 149.836C332.555 148.828 339.069 150.008 343.544 154.084C345.547 155.908 346.928 159.079 347.901 161.722C348.486 163.31 348.85 164.877 348.877 166.441C347.909 166.486 346.934 166.599 345.96 166.71C343.379 167.005 340.774 167.473 338.339 168.585C337.654 168.898 337.044 169.297 336.469 169.687C335.885 170.082 335.346 170.462 334.758 170.782C334.215 171.078 333.63 171.186 332.988 171.213C332.314 171.241 331.688 171.182 330.935 171.173C329.952 171.161 328.972 171.2 327.998 171.282C328.139 171.075 328.284 170.871 328.434 170.674C329.665 169.055 331.282 168.108 333.06 166.929C333.604 166.568 333.847 165.928 333.797 165.354C333.746 164.758 333.368 164.165 332.627 164.002V164.001C329.675 163.354 327.061 165.119 325.294 167.092C325.219 167.175 325.138 167.266 325.054 167.361C323.934 167.428 322.892 167.517 321.855 167.374C321.327 167.301 321.024 167.167 320.856 167.031C320.705 166.909 320.634 166.765 320.615 166.573C320.594 166.362 320.639 166.086 320.757 165.742C320.875 165.403 321.052 165.03 321.262 164.636C321.5 164.189 321.782 163.737 322.083 163.264C322.38 162.796 322.696 162.305 322.983 161.806C323.556 160.809 324.054 159.712 324.111 158.513C324.14 157.886 323.796 157.424 323.341 157.196C322.908 156.979 322.363 156.963 321.904 157.178C321.503 157.365 321.132 157.621 320.79 157.909C319.99 158.227 319.266 158.695 318.593 159.188C318.245 159.444 317.904 159.712 317.573 159.97C317.406 160.1 317.242 160.227 317.079 160.352L316.591 160.715C314.801 162.006 313.113 162.676 310.98 163.432C309.342 164.012 307.414 164.993 306.01 166.401L305.939 166.331C305.599 165.964 305.511 165.412 305.617 164.714C305.729 163.98 306.04 163.212 306.307 162.636C307.357 160.376 309.3 158.538 311.287 156.922C315.679 153.348 321.103 150.793 326.681 149.836Z" fill="#FFFBEF" stroke="black"/>
<path d="M336.427 160.332C337.373 160.025 338.406 160.056 339.404 160.318C339.978 160.469 340.479 160.583 340.911 160.789C341.319 160.985 341.626 161.247 341.812 161.673C341.877 161.821 341.875 161.954 341.843 162.041C341.817 162.115 341.76 162.186 341.627 162.225C341.194 162.353 340.835 162.314 340.452 162.194C340.252 162.131 340.049 162.047 339.82 161.948C339.596 161.852 339.345 161.741 339.078 161.642C338.129 161.29 337.225 160.901 336.441 160.345C336.434 160.34 336.43 160.335 336.427 160.332Z" fill="black" stroke="black"/>
</svg>
